<?xml version="1.0" encoding="utf-8" standalone="no"?>
<!DOCTYPE svg PUBLIC "-//W3C//DTD SVG 1.1//EN"
  "http://www.w3.org/Graphics/SVG/1.1/DTD/svg11.dtd">
<svg height="345.6pt" version="1.1" viewBox="0 0 460.8 345.6" width="460.8pt" xmlns="http://www.w3.org/2000/svg" xmlns:xlink="http://www.w3.org/1999/xlink">
 <metadata>
  <rdf:RDF xmlns:cc="http://creativecommons.org/ns#" xmlns:dc="http://purl.org/dc/elements/1.1/" xmlns:rdf="http://www.w3.org/1999/02/22-rdf-syntax-ns#">
   <cc:Work>
    <dc:type rdf:resource="http://purl.org/dc/dcmitype/StillImage"/>
    <dc:date>2021-09-28T16:37:33.411186</dc:date>
    <dc:format>image/svg+xml</dc:format>
    <dc:creator>
     <cc:Agent>
      <dc:title>Matplotlib v3.4.2, https://matplotlib.org/</dc:title>
     </cc:Agent>
    </dc:creator>
   </cc:Work>
  </rdf:RDF>
 </metadata>
 <defs>
  <style type="text/css">*{stroke-linecap:butt;stroke-linejoin:round;}</style>
 </defs>
 <g id="figure_1">
  <g id="patch_1">
   <path d="M 0 345.6 
L 460.8 345.6 
L 460.8 0 
L 0 0 
z
" style="fill:#ffffff;"/>
  </g>
  <g id="axes_1">
   <g id="patch_2">
    <path d="M 57.6 227.045647 
L 162.635294 227.045647 
L 162.635294 122.010353 
L 57.6 122.010353 
z
" style="fill:#ffffff;"/>
   </g>
   <g id="matplotlib.axis_1">
    <g id="xtick_1">
     <g id="line2d_1">
      <defs>
       <path d="M 0 0 
L 0 3.5 
" id="m8a6c94cd06" style="stroke:#000000;stroke-width:0.8;"/>
      </defs>
      <g>
       <use style="stroke:#000000;stroke-width:0.8;" x="92.756441" xlink:href="#m8a6c94cd06" y="227.045647"/>
      </g>
     </g>
     <g id="text_1">
      <!-- 10 -->
      <g transform="translate(86.393941 241.644085)scale(0.1 -0.1)">
       <defs>
        <path d="M 794 531 
L 1825 531 
L 1825 4091 
L 703 3866 
L 703 4441 
L 1819 4666 
L 2450 4666 
L 2450 531 
L 3481 531 
L 3481 0 
L 794 0 
L 794 531 
z
" id="DejaVuSans-31" transform="scale(0.015625)"/>
        <path d="M 2034 4250 
Q 1547 4250 1301 3770 
Q 1056 3291 1056 2328 
Q 1056 1369 1301 889 
Q 1547 409 2034 409 
Q 2525 409 2770 889 
Q 3016 1369 3016 2328 
Q 3016 3291 2770 3770 
Q 2525 4250 2034 4250 
z
M 2034 4750 
Q 2819 4750 3233 4129 
Q 3647 3509 3647 2328 
Q 3647 1150 3233 529 
Q 2819 -91 2034 -91 
Q 1250 -91 836 529 
Q 422 1150 422 2328 
Q 422 3509 836 4129 
Q 1250 4750 2034 4750 
z
" id="DejaVuSans-30" transform="scale(0.015625)"/>
       </defs>
       <use xlink:href="#DejaVuSans-31"/>
       <use x="63.623047" xlink:href="#DejaVuSans-30"/>
      </g>
     </g>
    </g>
    <g id="xtick_2">
     <g id="line2d_2">
      <g>
       <use style="stroke:#000000;stroke-width:0.8;" x="136.159456" xlink:href="#m8a6c94cd06" y="227.045647"/>
      </g>
     </g>
     <g id="text_2">
      <!-- 20 -->
      <g transform="translate(129.796956 241.644085)scale(0.1 -0.1)">
       <defs>
        <path d="M 1228 531 
L 3431 531 
L 3431 0 
L 469 0 
L 469 531 
Q 828 903 1448 1529 
Q 2069 2156 2228 2338 
Q 2531 2678 2651 2914 
Q 2772 3150 2772 3378 
Q 2772 3750 2511 3984 
Q 2250 4219 1831 4219 
Q 1534 4219 1204 4116 
Q 875 4013 500 3803 
L 500 4441 
Q 881 4594 1212 4672 
Q 1544 4750 1819 4750 
Q 2544 4750 2975 4387 
Q 3406 4025 3406 3419 
Q 3406 3131 3298 2873 
Q 3191 2616 2906 2266 
Q 2828 2175 2409 1742 
Q 1991 1309 1228 531 
z
" id="DejaVuSans-32" transform="scale(0.015625)"/>
       </defs>
       <use xlink:href="#DejaVuSans-32"/>
       <use x="63.623047" xlink:href="#DejaVuSans-30"/>
      </g>
     </g>
    </g>
    <g id="text_3">
     <!-- Ma -->
     <g transform="translate(102.739522 255.32221)scale(0.1 -0.1)">
      <defs>
       <path d="M 628 4666 
L 1569 4666 
L 2759 1491 
L 3956 4666 
L 4897 4666 
L 4897 0 
L 4281 0 
L 4281 4097 
L 3078 897 
L 2444 897 
L 1241 4097 
L 1241 0 
L 628 0 
L 628 4666 
z
" id="DejaVuSans-4d" transform="scale(0.015625)"/>
       <path d="M 2194 1759 
Q 1497 1759 1228 1600 
Q 959 1441 959 1056 
Q 959 750 1161 570 
Q 1363 391 1709 391 
Q 2188 391 2477 730 
Q 2766 1069 2766 1631 
L 2766 1759 
L 2194 1759 
z
M 3341 1997 
L 3341 0 
L 2766 0 
L 2766 531 
Q 2569 213 2275 61 
Q 1981 -91 1556 -91 
Q 1019 -91 701 211 
Q 384 513 384 1019 
Q 384 1609 779 1909 
Q 1175 2209 1959 2209 
L 2766 2209 
L 2766 2266 
Q 2766 2663 2505 2880 
Q 2244 3097 1772 3097 
Q 1472 3097 1187 3025 
Q 903 2953 641 2809 
L 641 3341 
Q 956 3463 1253 3523 
Q 1550 3584 1831 3584 
Q 2591 3584 2966 3190 
Q 3341 2797 3341 1997 
z
" id="DejaVuSans-61" transform="scale(0.015625)"/>
      </defs>
      <use xlink:href="#DejaVuSans-4d"/>
      <use x="86.279297" xlink:href="#DejaVuSans-61"/>
     </g>
    </g>
   </g>
   <g id="matplotlib.axis_2">
    <g id="ytick_1">
     <g id="line2d_3">
      <defs>
       <path d="M 0 0 
L -3.5 0 
" id="mf84de7ca53" style="stroke:#000000;stroke-width:0.8;"/>
      </defs>
      <g>
       <use style="stroke:#000000;stroke-width:0.8;" x="57.6" xlink:href="#mf84de7ca53" y="199.599642"/>
      </g>
     </g>
     <g id="text_4">
      <!-- 1.0 -->
      <g transform="translate(34.696875 203.398861)scale(0.1 -0.1)">
       <defs>
        <path d="M 684 794 
L 1344 794 
L 1344 0 
L 684 0 
L 684 794 
z
" id="DejaVuSans-2e" transform="scale(0.015625)"/>
       </defs>
       <use xlink:href="#DejaVuSans-31"/>
       <use x="63.623047" xlink:href="#DejaVuSans-2e"/>
       <use x="95.410156" xlink:href="#DejaVuSans-30"/>
      </g>
     </g>
    </g>
    <g id="ytick_2">
     <g id="line2d_4">
      <g>
       <use style="stroke:#000000;stroke-width:0.8;" x="57.6" xlink:href="#mf84de7ca53" y="170.519489"/>
      </g>
     </g>
     <g id="text_5">
      <!-- 1.5 -->
      <g transform="translate(34.696875 174.318708)scale(0.1 -0.1)">
       <defs>
        <path d="M 691 4666 
L 3169 4666 
L 3169 4134 
L 1269 4134 
L 1269 2991 
Q 1406 3038 1543 3061 
Q 1681 3084 1819 3084 
Q 2600 3084 3056 2656 
Q 3513 2228 3513 1497 
Q 3513 744 3044 326 
Q 2575 -91 1722 -91 
Q 1428 -91 1123 -41 
Q 819 9 494 109 
L 494 744 
Q 775 591 1075 516 
Q 1375 441 1709 441 
Q 2250 441 2565 725 
Q 2881 1009 2881 1497 
Q 2881 1984 2565 2268 
Q 2250 2553 1709 2553 
Q 1456 2553 1204 2497 
Q 953 2441 691 2322 
L 691 4666 
z
" id="DejaVuSans-35" transform="scale(0.015625)"/>
       </defs>
       <use xlink:href="#DejaVuSans-31"/>
       <use x="63.623047" xlink:href="#DejaVuSans-2e"/>
       <use x="95.410156" xlink:href="#DejaVuSans-35"/>
      </g>
     </g>
    </g>
    <g id="ytick_3">
     <g id="line2d_5">
      <g>
       <use style="stroke:#000000;stroke-width:0.8;" x="57.6" xlink:href="#mf84de7ca53" y="141.439335"/>
      </g>
     </g>
     <g id="text_6">
      <!-- 2.0 -->
      <g transform="translate(34.696875 145.238554)scale(0.1 -0.1)">
       <use xlink:href="#DejaVuSans-32"/>
       <use x="63.623047" xlink:href="#DejaVuSans-2e"/>
       <use x="95.410156" xlink:href="#DejaVuSans-30"/>
      </g>
     </g>
    </g>
    <g id="text_7">
     <!-- $\nu(Ma)$ -->
     <g transform="translate(28.617188 188.628)rotate(-90)scale(0.1 -0.1)">
      <defs>
       <path d="M 959 0 
L 572 3500 
L 1191 3500 
L 1522 563 
Q 1972 950 2391 1488 
Q 2706 1891 2788 2241 
Q 2825 2406 2809 2719 
Q 2794 3091 2544 3500 
L 3125 3500 
L 3125 3500 
Q 3288 3222 3353 2834 
Q 3416 2478 3369 2234 
Q 3250 1622 2719 1075 
Q 2025 363 1572 0 
L 959 0 
z
" id="DejaVuSans-Oblique-3bd" transform="scale(0.015625)"/>
       <path d="M 1984 4856 
Q 1566 4138 1362 3434 
Q 1159 2731 1159 2009 
Q 1159 1288 1364 580 
Q 1569 -128 1984 -844 
L 1484 -844 
Q 1016 -109 783 600 
Q 550 1309 550 2009 
Q 550 2706 781 3412 
Q 1013 4119 1484 4856 
L 1984 4856 
z
" id="DejaVuSans-28" transform="scale(0.015625)"/>
       <path d="M 1081 4666 
L 2028 4666 
L 2572 1522 
L 4378 4666 
L 5350 4666 
L 4441 0 
L 3828 0 
L 4622 4091 
L 2791 897 
L 2175 897 
L 1581 4103 
L 788 0 
L 172 0 
L 1081 4666 
z
" id="DejaVuSans-Oblique-4d" transform="scale(0.015625)"/>
       <path d="M 3438 1997 
L 3047 0 
L 2472 0 
L 2578 531 
Q 2325 219 2001 64 
Q 1678 -91 1281 -91 
Q 834 -91 548 182 
Q 263 456 263 884 
Q 263 1497 752 1853 
Q 1241 2209 2100 2209 
L 2900 2209 
L 2931 2363 
Q 2938 2388 2941 2417 
Q 2944 2447 2944 2509 
Q 2944 2788 2717 2942 
Q 2491 3097 2081 3097 
Q 1800 3097 1504 3025 
Q 1209 2953 897 2809 
L 997 3341 
Q 1322 3463 1633 3523 
Q 1944 3584 2234 3584 
Q 2853 3584 3176 3315 
Q 3500 3047 3500 2534 
Q 3500 2431 3484 2292 
Q 3469 2153 3438 1997 
z
M 2816 1759 
L 2241 1759 
Q 1534 1759 1195 1570 
Q 856 1381 856 984 
Q 856 709 1029 553 
Q 1203 397 1509 397 
Q 1978 397 2328 733 
Q 2678 1069 2791 1631 
L 2816 1759 
z
" id="DejaVuSans-Oblique-61" transform="scale(0.015625)"/>
       <path d="M 513 4856 
L 1013 4856 
Q 1481 4119 1714 3412 
Q 1947 2706 1947 2009 
Q 1947 1309 1714 600 
Q 1481 -109 1013 -844 
L 513 -844 
Q 928 -128 1133 580 
Q 1338 1288 1338 2009 
Q 1338 2731 1133 3434 
Q 928 4138 513 4856 
z
" id="DejaVuSans-29" transform="scale(0.015625)"/>
      </defs>
      <use transform="translate(0 0.125)" xlink:href="#DejaVuSans-Oblique-3bd"/>
      <use transform="translate(55.859375 0.125)" xlink:href="#DejaVuSans-28"/>
      <use transform="translate(94.873047 0.125)" xlink:href="#DejaVuSans-Oblique-4d"/>
      <use transform="translate(181.152344 0.125)" xlink:href="#DejaVuSans-Oblique-61"/>
      <use transform="translate(242.431641 0.125)" xlink:href="#DejaVuSans-29"/>
     </g>
    </g>
   </g>
   <g id="line2d_6">
    <path clip-path="url(#p59c33b4c19)" d="M 62.374332 207.251822 
L 71.054934 179.679096 
L 92.756441 153.899861 
L 157.860963 136.935573 
" style="fill:none;stroke:#0000ff;stroke-linecap:square;stroke-width:1.5;"/>
   </g>
   <g id="line2d_7">
    <path clip-path="url(#p59c33b4c19)" d="M 62.374332 197.100933 
L 71.054934 169.528208 
L 92.756441 143.748973 
L 157.860963 126.784684 
" style="fill:none;stroke:#008000;stroke-linecap:square;stroke-width:1.5;"/>
   </g>
   <g id="line2d_8">
    <path clip-path="url(#p59c33b4c19)" d="M 62.374332 222.271316 
L 71.054934 183.497777 
L 92.756441 154.417624 
L 157.860963 136.969532 
" style="fill:none;stroke:#ff0000;stroke-linecap:square;stroke-width:1.5;"/>
   </g>
   <g id="line2d_9">
    <path clip-path="url(#p59c33b4c19)" d="M 62.374332 212.120427 
L 71.054934 173.346889 
L 92.756441 144.266735 
L 157.860963 126.818643 
" style="fill:none;stroke:#000000;stroke-linecap:square;stroke-width:1.5;"/>
   </g>
   <g id="patch_3">
    <path d="M 57.6 227.045647 
L 57.6 122.010353 
" style="fill:none;stroke:#000000;stroke-linecap:square;stroke-linejoin:miter;stroke-width:0.8;"/>
   </g>
   <g id="patch_4">
    <path d="M 162.635294 227.045647 
L 162.635294 122.010353 
" style="fill:none;stroke:#000000;stroke-linecap:square;stroke-linejoin:miter;stroke-width:0.8;"/>
   </g>
   <g id="patch_5">
    <path d="M 57.6 227.045647 
L 162.635294 227.045647 
" style="fill:none;stroke:#000000;stroke-linecap:square;stroke-linejoin:miter;stroke-width:0.8;"/>
   </g>
   <g id="patch_6">
    <path d="M 57.6 122.010353 
L 162.635294 122.010353 
" style="fill:none;stroke:#000000;stroke-linecap:square;stroke-linejoin:miter;stroke-width:0.8;"/>
   </g>
   <g id="text_8">
    <!-- Prandl-Meyer vs Ma -->
    <g transform="translate(51.09546 116.010353)scale(0.12 -0.12)">
     <defs>
      <path d="M 1259 4147 
L 1259 2394 
L 2053 2394 
Q 2494 2394 2734 2622 
Q 2975 2850 2975 3272 
Q 2975 3691 2734 3919 
Q 2494 4147 2053 4147 
L 1259 4147 
z
M 628 4666 
L 2053 4666 
Q 2838 4666 3239 4311 
Q 3641 3956 3641 3272 
Q 3641 2581 3239 2228 
Q 2838 1875 2053 1875 
L 1259 1875 
L 1259 0 
L 628 0 
L 628 4666 
z
" id="DejaVuSans-50" transform="scale(0.015625)"/>
      <path d="M 2631 2963 
Q 2534 3019 2420 3045 
Q 2306 3072 2169 3072 
Q 1681 3072 1420 2755 
Q 1159 2438 1159 1844 
L 1159 0 
L 581 0 
L 581 3500 
L 1159 3500 
L 1159 2956 
Q 1341 3275 1631 3429 
Q 1922 3584 2338 3584 
Q 2397 3584 2469 3576 
Q 2541 3569 2628 3553 
L 2631 2963 
z
" id="DejaVuSans-72" transform="scale(0.015625)"/>
      <path d="M 3513 2113 
L 3513 0 
L 2938 0 
L 2938 2094 
Q 2938 2591 2744 2837 
Q 2550 3084 2163 3084 
Q 1697 3084 1428 2787 
Q 1159 2491 1159 1978 
L 1159 0 
L 581 0 
L 581 3500 
L 1159 3500 
L 1159 2956 
Q 1366 3272 1645 3428 
Q 1925 3584 2291 3584 
Q 2894 3584 3203 3211 
Q 3513 2838 3513 2113 
z
" id="DejaVuSans-6e" transform="scale(0.015625)"/>
      <path d="M 2906 2969 
L 2906 4863 
L 3481 4863 
L 3481 0 
L 2906 0 
L 2906 525 
Q 2725 213 2448 61 
Q 2172 -91 1784 -91 
Q 1150 -91 751 415 
Q 353 922 353 1747 
Q 353 2572 751 3078 
Q 1150 3584 1784 3584 
Q 2172 3584 2448 3432 
Q 2725 3281 2906 2969 
z
M 947 1747 
Q 947 1113 1208 752 
Q 1469 391 1925 391 
Q 2381 391 2643 752 
Q 2906 1113 2906 1747 
Q 2906 2381 2643 2742 
Q 2381 3103 1925 3103 
Q 1469 3103 1208 2742 
Q 947 2381 947 1747 
z
" id="DejaVuSans-64" transform="scale(0.015625)"/>
      <path d="M 603 4863 
L 1178 4863 
L 1178 0 
L 603 0 
L 603 4863 
z
" id="DejaVuSans-6c" transform="scale(0.015625)"/>
      <path d="M 313 2009 
L 1997 2009 
L 1997 1497 
L 313 1497 
L 313 2009 
z
" id="DejaVuSans-2d" transform="scale(0.015625)"/>
      <path d="M 3597 1894 
L 3597 1613 
L 953 1613 
Q 991 1019 1311 708 
Q 1631 397 2203 397 
Q 2534 397 2845 478 
Q 3156 559 3463 722 
L 3463 178 
Q 3153 47 2828 -22 
Q 2503 -91 2169 -91 
Q 1331 -91 842 396 
Q 353 884 353 1716 
Q 353 2575 817 3079 
Q 1281 3584 2069 3584 
Q 2775 3584 3186 3129 
Q 3597 2675 3597 1894 
z
M 3022 2063 
Q 3016 2534 2758 2815 
Q 2500 3097 2075 3097 
Q 1594 3097 1305 2825 
Q 1016 2553 972 2059 
L 3022 2063 
z
" id="DejaVuSans-65" transform="scale(0.015625)"/>
      <path d="M 2059 -325 
Q 1816 -950 1584 -1140 
Q 1353 -1331 966 -1331 
L 506 -1331 
L 506 -850 
L 844 -850 
Q 1081 -850 1212 -737 
Q 1344 -625 1503 -206 
L 1606 56 
L 191 3500 
L 800 3500 
L 1894 763 
L 2988 3500 
L 3597 3500 
L 2059 -325 
z
" id="DejaVuSans-79" transform="scale(0.015625)"/>
      <path id="DejaVuSans-20" transform="scale(0.015625)"/>
      <path d="M 191 3500 
L 800 3500 
L 1894 563 
L 2988 3500 
L 3597 3500 
L 2284 0 
L 1503 0 
L 191 3500 
z
" id="DejaVuSans-76" transform="scale(0.015625)"/>
      <path d="M 2834 3397 
L 2834 2853 
Q 2591 2978 2328 3040 
Q 2066 3103 1784 3103 
Q 1356 3103 1142 2972 
Q 928 2841 928 2578 
Q 928 2378 1081 2264 
Q 1234 2150 1697 2047 
L 1894 2003 
Q 2506 1872 2764 1633 
Q 3022 1394 3022 966 
Q 3022 478 2636 193 
Q 2250 -91 1575 -91 
Q 1294 -91 989 -36 
Q 684 19 347 128 
L 347 722 
Q 666 556 975 473 
Q 1284 391 1588 391 
Q 1994 391 2212 530 
Q 2431 669 2431 922 
Q 2431 1156 2273 1281 
Q 2116 1406 1581 1522 
L 1381 1569 
Q 847 1681 609 1914 
Q 372 2147 372 2553 
Q 372 3047 722 3315 
Q 1072 3584 1716 3584 
Q 2034 3584 2315 3537 
Q 2597 3491 2834 3397 
z
" id="DejaVuSans-73" transform="scale(0.015625)"/>
     </defs>
     <use xlink:href="#DejaVuSans-50"/>
     <use x="58.552734" xlink:href="#DejaVuSans-72"/>
     <use x="99.666016" xlink:href="#DejaVuSans-61"/>
     <use x="160.945312" xlink:href="#DejaVuSans-6e"/>
     <use x="224.324219" xlink:href="#DejaVuSans-64"/>
     <use x="287.800781" xlink:href="#DejaVuSans-6c"/>
     <use x="315.583984" xlink:href="#DejaVuSans-2d"/>
     <use x="351.667969" xlink:href="#DejaVuSans-4d"/>
     <use x="437.947266" xlink:href="#DejaVuSans-65"/>
     <use x="499.470703" xlink:href="#DejaVuSans-79"/>
     <use x="558.650391" xlink:href="#DejaVuSans-65"/>
     <use x="620.173828" xlink:href="#DejaVuSans-72"/>
     <use x="661.287109" xlink:href="#DejaVuSans-20"/>
     <use x="693.074219" xlink:href="#DejaVuSans-76"/>
     <use x="752.253906" xlink:href="#DejaVuSans-73"/>
     <use x="804.353516" xlink:href="#DejaVuSans-20"/>
     <use x="836.140625" xlink:href="#DejaVuSans-4d"/>
     <use x="922.419922" xlink:href="#DejaVuSans-61"/>
    </g>
   </g>
   <g id="legend_1">
    <g id="patch_7">
     <path d="M 64.6 222.045647 
L 253.375 222.045647 
Q 255.375 222.045647 255.375 220.045647 
L 255.375 162.333147 
Q 255.375 160.333147 253.375 160.333147 
L 64.6 160.333147 
Q 62.6 160.333147 62.6 162.333147 
L 62.6 220.045647 
Q 62.6 222.045647 64.6 222.045647 
z
" style="fill:#ffffff;opacity:0.8;stroke:#cccccc;stroke-linejoin:miter;"/>
    </g>
    <g id="line2d_10">
     <path d="M 66.6 168.431585 
L 86.6 168.431585 
" style="fill:none;stroke:#0000ff;stroke-linecap:square;stroke-width:1.5;"/>
    </g>
    <g id="line2d_11"/>
    <g id="text_9">
     <!-- Upstream P-M (Classic) -->
     <g transform="translate(94.6 171.931585)scale(0.1 -0.1)">
      <defs>
       <path d="M 556 4666 
L 1191 4666 
L 1191 1831 
Q 1191 1081 1462 751 
Q 1734 422 2344 422 
Q 2950 422 3222 751 
Q 3494 1081 3494 1831 
L 3494 4666 
L 4128 4666 
L 4128 1753 
Q 4128 841 3676 375 
Q 3225 -91 2344 -91 
Q 1459 -91 1007 375 
Q 556 841 556 1753 
L 556 4666 
z
" id="DejaVuSans-55" transform="scale(0.015625)"/>
       <path d="M 1159 525 
L 1159 -1331 
L 581 -1331 
L 581 3500 
L 1159 3500 
L 1159 2969 
Q 1341 3281 1617 3432 
Q 1894 3584 2278 3584 
Q 2916 3584 3314 3078 
Q 3713 2572 3713 1747 
Q 3713 922 3314 415 
Q 2916 -91 2278 -91 
Q 1894 -91 1617 61 
Q 1341 213 1159 525 
z
M 3116 1747 
Q 3116 2381 2855 2742 
Q 2594 3103 2138 3103 
Q 1681 3103 1420 2742 
Q 1159 2381 1159 1747 
Q 1159 1113 1420 752 
Q 1681 391 2138 391 
Q 2594 391 2855 752 
Q 3116 1113 3116 1747 
z
" id="DejaVuSans-70" transform="scale(0.015625)"/>
       <path d="M 1172 4494 
L 1172 3500 
L 2356 3500 
L 2356 3053 
L 1172 3053 
L 1172 1153 
Q 1172 725 1289 603 
Q 1406 481 1766 481 
L 2356 481 
L 2356 0 
L 1766 0 
Q 1100 0 847 248 
Q 594 497 594 1153 
L 594 3053 
L 172 3053 
L 172 3500 
L 594 3500 
L 594 4494 
L 1172 4494 
z
" id="DejaVuSans-74" transform="scale(0.015625)"/>
       <path d="M 3328 2828 
Q 3544 3216 3844 3400 
Q 4144 3584 4550 3584 
Q 5097 3584 5394 3201 
Q 5691 2819 5691 2113 
L 5691 0 
L 5113 0 
L 5113 2094 
Q 5113 2597 4934 2840 
Q 4756 3084 4391 3084 
Q 3944 3084 3684 2787 
Q 3425 2491 3425 1978 
L 3425 0 
L 2847 0 
L 2847 2094 
Q 2847 2600 2669 2842 
Q 2491 3084 2119 3084 
Q 1678 3084 1418 2786 
Q 1159 2488 1159 1978 
L 1159 0 
L 581 0 
L 581 3500 
L 1159 3500 
L 1159 2956 
Q 1356 3278 1631 3431 
Q 1906 3584 2284 3584 
Q 2666 3584 2933 3390 
Q 3200 3197 3328 2828 
z
" id="DejaVuSans-6d" transform="scale(0.015625)"/>
       <path d="M 4122 4306 
L 4122 3641 
Q 3803 3938 3442 4084 
Q 3081 4231 2675 4231 
Q 1875 4231 1450 3742 
Q 1025 3253 1025 2328 
Q 1025 1406 1450 917 
Q 1875 428 2675 428 
Q 3081 428 3442 575 
Q 3803 722 4122 1019 
L 4122 359 
Q 3791 134 3420 21 
Q 3050 -91 2638 -91 
Q 1578 -91 968 557 
Q 359 1206 359 2328 
Q 359 3453 968 4101 
Q 1578 4750 2638 4750 
Q 3056 4750 3426 4639 
Q 3797 4528 4122 4306 
z
" id="DejaVuSans-43" transform="scale(0.015625)"/>
       <path d="M 603 3500 
L 1178 3500 
L 1178 0 
L 603 0 
L 603 3500 
z
M 603 4863 
L 1178 4863 
L 1178 4134 
L 603 4134 
L 603 4863 
z
" id="DejaVuSans-69" transform="scale(0.015625)"/>
       <path d="M 3122 3366 
L 3122 2828 
Q 2878 2963 2633 3030 
Q 2388 3097 2138 3097 
Q 1578 3097 1268 2742 
Q 959 2388 959 1747 
Q 959 1106 1268 751 
Q 1578 397 2138 397 
Q 2388 397 2633 464 
Q 2878 531 3122 666 
L 3122 134 
Q 2881 22 2623 -34 
Q 2366 -91 2075 -91 
Q 1284 -91 818 406 
Q 353 903 353 1747 
Q 353 2603 823 3093 
Q 1294 3584 2113 3584 
Q 2378 3584 2631 3529 
Q 2884 3475 3122 3366 
z
" id="DejaVuSans-63" transform="scale(0.015625)"/>
      </defs>
      <use xlink:href="#DejaVuSans-55"/>
      <use x="73.193359" xlink:href="#DejaVuSans-70"/>
      <use x="136.669922" xlink:href="#DejaVuSans-73"/>
      <use x="188.769531" xlink:href="#DejaVuSans-74"/>
      <use x="227.978516" xlink:href="#DejaVuSans-72"/>
      <use x="266.841797" xlink:href="#DejaVuSans-65"/>
      <use x="328.365234" xlink:href="#DejaVuSans-61"/>
      <use x="389.644531" xlink:href="#DejaVuSans-6d"/>
      <use x="487.056641" xlink:href="#DejaVuSans-20"/>
      <use x="518.84375" xlink:href="#DejaVuSans-50"/>
      <use x="576.896484" xlink:href="#DejaVuSans-2d"/>
      <use x="612.980469" xlink:href="#DejaVuSans-4d"/>
      <use x="699.259766" xlink:href="#DejaVuSans-20"/>
      <use x="731.046875" xlink:href="#DejaVuSans-28"/>
      <use x="770.060547" xlink:href="#DejaVuSans-43"/>
      <use x="839.884766" xlink:href="#DejaVuSans-6c"/>
      <use x="867.667969" xlink:href="#DejaVuSans-61"/>
      <use x="928.947266" xlink:href="#DejaVuSans-73"/>
      <use x="981.046875" xlink:href="#DejaVuSans-73"/>
      <use x="1033.146484" xlink:href="#DejaVuSans-69"/>
      <use x="1060.929688" xlink:href="#DejaVuSans-63"/>
      <use x="1115.910156" xlink:href="#DejaVuSans-29"/>
     </g>
    </g>
    <g id="line2d_12">
     <path d="M 66.6 183.10971 
L 86.6 183.10971 
" style="fill:none;stroke:#008000;stroke-linecap:square;stroke-width:1.5;"/>
    </g>
    <g id="line2d_13"/>
    <g id="text_10">
     <!-- Downstream P-M (Classic) -->
     <g transform="translate(94.6 186.60971)scale(0.1 -0.1)">
      <defs>
       <path d="M 1259 4147 
L 1259 519 
L 2022 519 
Q 2988 519 3436 956 
Q 3884 1394 3884 2338 
Q 3884 3275 3436 3711 
Q 2988 4147 2022 4147 
L 1259 4147 
z
M 628 4666 
L 1925 4666 
Q 3281 4666 3915 4102 
Q 4550 3538 4550 2338 
Q 4550 1131 3912 565 
Q 3275 0 1925 0 
L 628 0 
L 628 4666 
z
" id="DejaVuSans-44" transform="scale(0.015625)"/>
       <path d="M 1959 3097 
Q 1497 3097 1228 2736 
Q 959 2375 959 1747 
Q 959 1119 1226 758 
Q 1494 397 1959 397 
Q 2419 397 2687 759 
Q 2956 1122 2956 1747 
Q 2956 2369 2687 2733 
Q 2419 3097 1959 3097 
z
M 1959 3584 
Q 2709 3584 3137 3096 
Q 3566 2609 3566 1747 
Q 3566 888 3137 398 
Q 2709 -91 1959 -91 
Q 1206 -91 779 398 
Q 353 888 353 1747 
Q 353 2609 779 3096 
Q 1206 3584 1959 3584 
z
" id="DejaVuSans-6f" transform="scale(0.015625)"/>
       <path d="M 269 3500 
L 844 3500 
L 1563 769 
L 2278 3500 
L 2956 3500 
L 3675 769 
L 4391 3500 
L 4966 3500 
L 4050 0 
L 3372 0 
L 2619 2869 
L 1863 0 
L 1184 0 
L 269 3500 
z
" id="DejaVuSans-77" transform="scale(0.015625)"/>
      </defs>
      <use xlink:href="#DejaVuSans-44"/>
      <use x="77.001953" xlink:href="#DejaVuSans-6f"/>
      <use x="138.183594" xlink:href="#DejaVuSans-77"/>
      <use x="219.970703" xlink:href="#DejaVuSans-6e"/>
      <use x="283.349609" xlink:href="#DejaVuSans-73"/>
      <use x="335.449219" xlink:href="#DejaVuSans-74"/>
      <use x="374.658203" xlink:href="#DejaVuSans-72"/>
      <use x="413.521484" xlink:href="#DejaVuSans-65"/>
      <use x="475.044922" xlink:href="#DejaVuSans-61"/>
      <use x="536.324219" xlink:href="#DejaVuSans-6d"/>
      <use x="633.736328" xlink:href="#DejaVuSans-20"/>
      <use x="665.523438" xlink:href="#DejaVuSans-50"/>
      <use x="723.576172" xlink:href="#DejaVuSans-2d"/>
      <use x="759.660156" xlink:href="#DejaVuSans-4d"/>
      <use x="845.939453" xlink:href="#DejaVuSans-20"/>
      <use x="877.726562" xlink:href="#DejaVuSans-28"/>
      <use x="916.740234" xlink:href="#DejaVuSans-43"/>
      <use x="986.564453" xlink:href="#DejaVuSans-6c"/>
      <use x="1014.347656" xlink:href="#DejaVuSans-61"/>
      <use x="1075.626953" xlink:href="#DejaVuSans-73"/>
      <use x="1127.726562" xlink:href="#DejaVuSans-73"/>
      <use x="1179.826172" xlink:href="#DejaVuSans-69"/>
      <use x="1207.609375" xlink:href="#DejaVuSans-63"/>
      <use x="1262.589844" xlink:href="#DejaVuSans-29"/>
     </g>
    </g>
    <g id="line2d_14">
     <path d="M 66.6 197.787835 
L 86.6 197.787835 
" style="fill:none;stroke:#ff0000;stroke-linecap:square;stroke-width:1.5;"/>
    </g>
    <g id="line2d_15"/>
    <g id="text_11">
     <!-- Upstream P-M (Hypersonics) -->
     <g transform="translate(94.6 201.287835)scale(0.1 -0.1)">
      <defs>
       <path d="M 628 4666 
L 1259 4666 
L 1259 2753 
L 3553 2753 
L 3553 4666 
L 4184 4666 
L 4184 0 
L 3553 0 
L 3553 2222 
L 1259 2222 
L 1259 0 
L 628 0 
L 628 4666 
z
" id="DejaVuSans-48" transform="scale(0.015625)"/>
      </defs>
      <use xlink:href="#DejaVuSans-55"/>
      <use x="73.193359" xlink:href="#DejaVuSans-70"/>
      <use x="136.669922" xlink:href="#DejaVuSans-73"/>
      <use x="188.769531" xlink:href="#DejaVuSans-74"/>
      <use x="227.978516" xlink:href="#DejaVuSans-72"/>
      <use x="266.841797" xlink:href="#DejaVuSans-65"/>
      <use x="328.365234" xlink:href="#DejaVuSans-61"/>
      <use x="389.644531" xlink:href="#DejaVuSans-6d"/>
      <use x="487.056641" xlink:href="#DejaVuSans-20"/>
      <use x="518.84375" xlink:href="#DejaVuSans-50"/>
      <use x="576.896484" xlink:href="#DejaVuSans-2d"/>
      <use x="612.980469" xlink:href="#DejaVuSans-4d"/>
      <use x="699.259766" xlink:href="#DejaVuSans-20"/>
      <use x="731.046875" xlink:href="#DejaVuSans-28"/>
      <use x="770.060547" xlink:href="#DejaVuSans-48"/>
      <use x="845.255859" xlink:href="#DejaVuSans-79"/>
      <use x="904.435547" xlink:href="#DejaVuSans-70"/>
      <use x="967.912109" xlink:href="#DejaVuSans-65"/>
      <use x="1029.435547" xlink:href="#DejaVuSans-72"/>
      <use x="1070.548828" xlink:href="#DejaVuSans-73"/>
      <use x="1122.648438" xlink:href="#DejaVuSans-6f"/>
      <use x="1183.830078" xlink:href="#DejaVuSans-6e"/>
      <use x="1247.208984" xlink:href="#DejaVuSans-69"/>
      <use x="1274.992188" xlink:href="#DejaVuSans-63"/>
      <use x="1329.972656" xlink:href="#DejaVuSans-73"/>
      <use x="1382.072266" xlink:href="#DejaVuSans-29"/>
     </g>
    </g>
    <g id="line2d_16">
     <path d="M 66.6 212.46596 
L 86.6 212.46596 
" style="fill:none;stroke:#000000;stroke-linecap:square;stroke-width:1.5;"/>
    </g>
    <g id="line2d_17"/>
    <g id="text_12">
     <!-- Downstream P-M (Hypersonics) -->
     <g transform="translate(94.6 215.96596)scale(0.1 -0.1)">
      <use xlink:href="#DejaVuSans-44"/>
      <use x="77.001953" xlink:href="#DejaVuSans-6f"/>
      <use x="138.183594" xlink:href="#DejaVuSans-77"/>
      <use x="219.970703" xlink:href="#DejaVuSans-6e"/>
      <use x="283.349609" xlink:href="#DejaVuSans-73"/>
      <use x="335.449219" xlink:href="#DejaVuSans-74"/>
      <use x="374.658203" xlink:href="#DejaVuSans-72"/>
      <use x="413.521484" xlink:href="#DejaVuSans-65"/>
      <use x="475.044922" xlink:href="#DejaVuSans-61"/>
      <use x="536.324219" xlink:href="#DejaVuSans-6d"/>
      <use x="633.736328" xlink:href="#DejaVuSans-20"/>
      <use x="665.523438" xlink:href="#DejaVuSans-50"/>
      <use x="723.576172" xlink:href="#DejaVuSans-2d"/>
      <use x="759.660156" xlink:href="#DejaVuSans-4d"/>
      <use x="845.939453" xlink:href="#DejaVuSans-20"/>
      <use x="877.726562" xlink:href="#DejaVuSans-28"/>
      <use x="916.740234" xlink:href="#DejaVuSans-48"/>
      <use x="991.935547" xlink:href="#DejaVuSans-79"/>
      <use x="1051.115234" xlink:href="#DejaVuSans-70"/>
      <use x="1114.591797" xlink:href="#DejaVuSans-65"/>
      <use x="1176.115234" xlink:href="#DejaVuSans-72"/>
      <use x="1217.228516" xlink:href="#DejaVuSans-73"/>
      <use x="1269.328125" xlink:href="#DejaVuSans-6f"/>
      <use x="1330.509766" xlink:href="#DejaVuSans-6e"/>
      <use x="1393.888672" xlink:href="#DejaVuSans-69"/>
      <use x="1421.671875" xlink:href="#DejaVuSans-63"/>
      <use x="1476.652344" xlink:href="#DejaVuSans-73"/>
      <use x="1528.751953" xlink:href="#DejaVuSans-29"/>
     </g>
    </g>
   </g>
  </g>
  <g id="axes_2">
   <g id="patch_8">
    <path d="M 183.642353 227.045647 
L 288.677647 227.045647 
L 288.677647 122.010353 
L 183.642353 122.010353 
z
" style="fill:#ffffff;"/>
   </g>
   <g id="matplotlib.axis_3">
    <g id="xtick_3">
     <g id="line2d_18">
      <g>
       <use style="stroke:#000000;stroke-width:0.8;" x="218.798794" xlink:href="#m8a6c94cd06" y="227.045647"/>
      </g>
     </g>
     <g id="text_13">
      <!-- 10 -->
      <g transform="translate(212.436294 241.644085)scale(0.1 -0.1)">
       <use xlink:href="#DejaVuSans-31"/>
       <use x="63.623047" xlink:href="#DejaVuSans-30"/>
      </g>
     </g>
    </g>
    <g id="xtick_4">
     <g id="line2d_19">
      <g>
       <use style="stroke:#000000;stroke-width:0.8;" x="262.201808" xlink:href="#m8a6c94cd06" y="227.045647"/>
      </g>
     </g>
     <g id="text_14">
      <!-- 20 -->
      <g transform="translate(255.839308 241.644085)scale(0.1 -0.1)">
       <use xlink:href="#DejaVuSans-32"/>
       <use x="63.623047" xlink:href="#DejaVuSans-30"/>
      </g>
     </g>
    </g>
    <g id="text_15">
     <!-- $Ma_{1}$ -->
     <g transform="translate(226.41 255.32221)scale(0.1 -0.1)">
      <use transform="translate(0 0.09375)" xlink:href="#DejaVuSans-Oblique-4d"/>
      <use transform="translate(86.279297 0.09375)" xlink:href="#DejaVuSans-Oblique-61"/>
      <use transform="translate(147.558594 -16.3125)scale(0.7)" xlink:href="#DejaVuSans-31"/>
     </g>
    </g>
   </g>
   <g id="matplotlib.axis_4">
    <g id="ytick_4">
     <g id="line2d_20">
      <g>
       <use style="stroke:#000000;stroke-width:0.8;" x="183.642353" xlink:href="#mf84de7ca53" y="223.890754"/>
      </g>
     </g>
     <g id="text_16">
      <!-- 0 -->
      <g transform="translate(170.279853 227.689973)scale(0.1 -0.1)">
       <use xlink:href="#DejaVuSans-30"/>
      </g>
     </g>
    </g>
    <g id="ytick_5">
     <g id="line2d_21">
      <g>
       <use style="stroke:#000000;stroke-width:0.8;" x="183.642353" xlink:href="#mf84de7ca53" y="199.726564"/>
      </g>
     </g>
     <g id="text_17">
      <!-- 50 -->
      <g transform="translate(163.917353 203.525783)scale(0.1 -0.1)">
       <use xlink:href="#DejaVuSans-35"/>
       <use x="63.623047" xlink:href="#DejaVuSans-30"/>
      </g>
     </g>
    </g>
    <g id="ytick_6">
     <g id="line2d_22">
      <g>
       <use style="stroke:#000000;stroke-width:0.8;" x="183.642353" xlink:href="#mf84de7ca53" y="175.562374"/>
      </g>
     </g>
     <g id="text_18">
      <!-- 100 -->
      <g transform="translate(157.554853 179.361592)scale(0.1 -0.1)">
       <use xlink:href="#DejaVuSans-31"/>
       <use x="63.623047" xlink:href="#DejaVuSans-30"/>
       <use x="127.246094" xlink:href="#DejaVuSans-30"/>
      </g>
     </g>
    </g>
    <g id="ytick_7">
     <g id="line2d_23">
      <g>
       <use style="stroke:#000000;stroke-width:0.8;" x="183.642353" xlink:href="#mf84de7ca53" y="151.398183"/>
      </g>
     </g>
     <g id="text_19">
      <!-- 150 -->
      <g transform="translate(157.554853 155.197402)scale(0.1 -0.1)">
       <use xlink:href="#DejaVuSans-31"/>
       <use x="63.623047" xlink:href="#DejaVuSans-35"/>
       <use x="127.246094" xlink:href="#DejaVuSans-30"/>
      </g>
     </g>
    </g>
    <g id="ytick_8">
     <g id="line2d_24">
      <g>
       <use style="stroke:#000000;stroke-width:0.8;" x="183.642353" xlink:href="#mf84de7ca53" y="127.233993"/>
      </g>
     </g>
     <g id="text_20">
      <!-- 200 -->
      <g transform="translate(157.554853 131.033212)scale(0.1 -0.1)">
       <use xlink:href="#DejaVuSans-32"/>
       <use x="63.623047" xlink:href="#DejaVuSans-30"/>
       <use x="127.246094" xlink:href="#DejaVuSans-30"/>
      </g>
     </g>
    </g>
    <g id="text_21">
     <!-- $Ma_{2}$ -->
     <g transform="translate(151.475165 184.278)rotate(-90)scale(0.1 -0.1)">
      <use transform="translate(0 0.09375)" xlink:href="#DejaVuSans-Oblique-4d"/>
      <use transform="translate(86.279297 0.09375)" xlink:href="#DejaVuSans-Oblique-61"/>
      <use transform="translate(147.558594 -16.3125)scale(0.7)" xlink:href="#DejaVuSans-32"/>
     </g>
    </g>
   </g>
   <g id="line2d_25">
    <path clip-path="url(#p56ea42339e)" d="M 188.416684 222.161427 
L 197.097287 220.847317 
L 218.798794 216.313751 
L 283.903316 126.784684 
" style="fill:none;stroke:#0000ff;stroke-linecap:square;stroke-width:1.5;"/>
   </g>
   <g id="line2d_26">
    <path clip-path="url(#p56ea42339e)" d="M 188.416684 222.271316 
L 197.097287 220.963419 
L 218.798794 216.466289 
L 283.903316 129.006711 
" style="fill:none;stroke:#ff0000;stroke-linecap:square;stroke-width:1.5;"/>
   </g>
   <g id="patch_9">
    <path d="M 183.642353 227.045647 
L 183.642353 122.010353 
" style="fill:none;stroke:#000000;stroke-linecap:square;stroke-linejoin:miter;stroke-width:0.8;"/>
   </g>
   <g id="patch_10">
    <path d="M 288.677647 227.045647 
L 288.677647 122.010353 
" style="fill:none;stroke:#000000;stroke-linecap:square;stroke-linejoin:miter;stroke-width:0.8;"/>
   </g>
   <g id="patch_11">
    <path d="M 183.642353 227.045647 
L 288.677647 227.045647 
" style="fill:none;stroke:#000000;stroke-linecap:square;stroke-linejoin:miter;stroke-width:0.8;"/>
   </g>
   <g id="patch_12">
    <path d="M 183.642353 122.010353 
L 288.677647 122.010353 
" style="fill:none;stroke:#000000;stroke-linecap:square;stroke-linejoin:miter;stroke-width:0.8;"/>
   </g>
   <g id="text_22">
    <!-- Downstream vs upstream Mach -->
    <g transform="translate(141.15 116.010353)scale(0.12 -0.12)">
     <defs>
      <path d="M 544 1381 
L 544 3500 
L 1119 3500 
L 1119 1403 
Q 1119 906 1312 657 
Q 1506 409 1894 409 
Q 2359 409 2629 706 
Q 2900 1003 2900 1516 
L 2900 3500 
L 3475 3500 
L 3475 0 
L 2900 0 
L 2900 538 
Q 2691 219 2414 64 
Q 2138 -91 1772 -91 
Q 1169 -91 856 284 
Q 544 659 544 1381 
z
M 1991 3584 
L 1991 3584 
z
" id="DejaVuSans-75" transform="scale(0.015625)"/>
      <path d="M 3513 2113 
L 3513 0 
L 2938 0 
L 2938 2094 
Q 2938 2591 2744 2837 
Q 2550 3084 2163 3084 
Q 1697 3084 1428 2787 
Q 1159 2491 1159 1978 
L 1159 0 
L 581 0 
L 581 4863 
L 1159 4863 
L 1159 2956 
Q 1366 3272 1645 3428 
Q 1925 3584 2291 3584 
Q 2894 3584 3203 3211 
Q 3513 2838 3513 2113 
z
" id="DejaVuSans-68" transform="scale(0.015625)"/>
     </defs>
     <use xlink:href="#DejaVuSans-44"/>
     <use x="77.001953" xlink:href="#DejaVuSans-6f"/>
     <use x="138.183594" xlink:href="#DejaVuSans-77"/>
     <use x="219.970703" xlink:href="#DejaVuSans-6e"/>
     <use x="283.349609" xlink:href="#DejaVuSans-73"/>
     <use x="335.449219" xlink:href="#DejaVuSans-74"/>
     <use x="374.658203" xlink:href="#DejaVuSans-72"/>
     <use x="413.521484" xlink:href="#DejaVuSans-65"/>
     <use x="475.044922" xlink:href="#DejaVuSans-61"/>
     <use x="536.324219" xlink:href="#DejaVuSans-6d"/>
     <use x="633.736328" xlink:href="#DejaVuSans-20"/>
     <use x="665.523438" xlink:href="#DejaVuSans-76"/>
     <use x="724.703125" xlink:href="#DejaVuSans-73"/>
     <use x="776.802734" xlink:href="#DejaVuSans-20"/>
     <use x="808.589844" xlink:href="#DejaVuSans-75"/>
     <use x="871.96875" xlink:href="#DejaVuSans-70"/>
     <use x="935.445312" xlink:href="#DejaVuSans-73"/>
     <use x="987.544922" xlink:href="#DejaVuSans-74"/>
     <use x="1026.753906" xlink:href="#DejaVuSans-72"/>
     <use x="1065.617188" xlink:href="#DejaVuSans-65"/>
     <use x="1127.140625" xlink:href="#DejaVuSans-61"/>
     <use x="1188.419922" xlink:href="#DejaVuSans-6d"/>
     <use x="1285.832031" xlink:href="#DejaVuSans-20"/>
     <use x="1317.619141" xlink:href="#DejaVuSans-4d"/>
     <use x="1403.898438" xlink:href="#DejaVuSans-61"/>
     <use x="1465.177734" xlink:href="#DejaVuSans-63"/>
     <use x="1520.158203" xlink:href="#DejaVuSans-68"/>
    </g>
   </g>
   <g id="legend_2">
    <g id="patch_13">
     <path d="M 84.351085 159.366603 
L 281.677647 159.366603 
Q 283.677647 159.366603 283.677647 157.366603 
L 283.677647 129.010353 
Q 283.677647 127.010353 281.677647 127.010353 
L 84.351085 127.010353 
Q 82.351085 127.010353 82.351085 129.010353 
L 82.351085 157.366603 
Q 82.351085 159.366603 84.351085 159.366603 
z
" style="fill:#ffffff;opacity:0.8;stroke:#cccccc;stroke-linejoin:miter;"/>
    </g>
    <g id="line2d_27">
     <path d="M 86.351085 135.10879 
L 106.351085 135.10879 
" style="fill:none;stroke:#0000ff;stroke-linecap:square;stroke-width:1.5;"/>
    </g>
    <g id="line2d_28"/>
    <g id="text_23">
     <!-- Dowstream Mach (Classic) -->
     <g transform="translate(114.351085 138.60879)scale(0.1 -0.1)">
      <use xlink:href="#DejaVuSans-44"/>
      <use x="77.001953" xlink:href="#DejaVuSans-6f"/>
      <use x="138.183594" xlink:href="#DejaVuSans-77"/>
      <use x="219.970703" xlink:href="#DejaVuSans-73"/>
      <use x="272.070312" xlink:href="#DejaVuSans-74"/>
      <use x="311.279297" xlink:href="#DejaVuSans-72"/>
      <use x="350.142578" xlink:href="#DejaVuSans-65"/>
      <use x="411.666016" xlink:href="#DejaVuSans-61"/>
      <use x="472.945312" xlink:href="#DejaVuSans-6d"/>
      <use x="570.357422" xlink:href="#DejaVuSans-20"/>
      <use x="602.144531" xlink:href="#DejaVuSans-4d"/>
      <use x="688.423828" xlink:href="#DejaVuSans-61"/>
      <use x="749.703125" xlink:href="#DejaVuSans-63"/>
      <use x="804.683594" xlink:href="#DejaVuSans-68"/>
      <use x="868.0625" xlink:href="#DejaVuSans-20"/>
      <use x="899.849609" xlink:href="#DejaVuSans-28"/>
      <use x="938.863281" xlink:href="#DejaVuSans-43"/>
      <use x="1008.6875" xlink:href="#DejaVuSans-6c"/>
      <use x="1036.470703" xlink:href="#DejaVuSans-61"/>
      <use x="1097.75" xlink:href="#DejaVuSans-73"/>
      <use x="1149.849609" xlink:href="#DejaVuSans-73"/>
      <use x="1201.949219" xlink:href="#DejaVuSans-69"/>
      <use x="1229.732422" xlink:href="#DejaVuSans-63"/>
      <use x="1284.712891" xlink:href="#DejaVuSans-29"/>
     </g>
    </g>
    <g id="line2d_29">
     <path d="M 86.351085 149.786915 
L 106.351085 149.786915 
" style="fill:none;stroke:#ff0000;stroke-linecap:square;stroke-width:1.5;"/>
    </g>
    <g id="line2d_30"/>
    <g id="text_24">
     <!-- Downstream Mach (Hypersonics) -->
     <g transform="translate(114.351085 153.286915)scale(0.1 -0.1)">
      <use xlink:href="#DejaVuSans-44"/>
      <use x="77.001953" xlink:href="#DejaVuSans-6f"/>
      <use x="138.183594" xlink:href="#DejaVuSans-77"/>
      <use x="219.970703" xlink:href="#DejaVuSans-6e"/>
      <use x="283.349609" xlink:href="#DejaVuSans-73"/>
      <use x="335.449219" xlink:href="#DejaVuSans-74"/>
      <use x="374.658203" xlink:href="#DejaVuSans-72"/>
      <use x="413.521484" xlink:href="#DejaVuSans-65"/>
      <use x="475.044922" xlink:href="#DejaVuSans-61"/>
      <use x="536.324219" xlink:href="#DejaVuSans-6d"/>
      <use x="633.736328" xlink:href="#DejaVuSans-20"/>
      <use x="665.523438" xlink:href="#DejaVuSans-4d"/>
      <use x="751.802734" xlink:href="#DejaVuSans-61"/>
      <use x="813.082031" xlink:href="#DejaVuSans-63"/>
      <use x="868.0625" xlink:href="#DejaVuSans-68"/>
      <use x="931.441406" xlink:href="#DejaVuSans-20"/>
      <use x="963.228516" xlink:href="#DejaVuSans-28"/>
      <use x="1002.242188" xlink:href="#DejaVuSans-48"/>
      <use x="1077.4375" xlink:href="#DejaVuSans-79"/>
      <use x="1136.617188" xlink:href="#DejaVuSans-70"/>
      <use x="1200.09375" xlink:href="#DejaVuSans-65"/>
      <use x="1261.617188" xlink:href="#DejaVuSans-72"/>
      <use x="1302.730469" xlink:href="#DejaVuSans-73"/>
      <use x="1354.830078" xlink:href="#DejaVuSans-6f"/>
      <use x="1416.011719" xlink:href="#DejaVuSans-6e"/>
      <use x="1479.390625" xlink:href="#DejaVuSans-69"/>
      <use x="1507.173828" xlink:href="#DejaVuSans-63"/>
      <use x="1562.154297" xlink:href="#DejaVuSans-73"/>
      <use x="1614.253906" xlink:href="#DejaVuSans-29"/>
     </g>
    </g>
   </g>
  </g>
  <g id="axes_3">
   <g id="patch_14">
    <path d="M 309.684706 227.045647 
L 414.72 227.045647 
L 414.72 122.010353 
L 309.684706 122.010353 
z
" style="fill:#ffffff;"/>
   </g>
   <g id="matplotlib.axis_5">
    <g id="xtick_5">
     <g id="line2d_31">
      <g>
       <use style="stroke:#000000;stroke-width:0.8;" x="344.841147" xlink:href="#m8a6c94cd06" y="227.045647"/>
      </g>
     </g>
     <g id="text_25">
      <!-- 10 -->
      <g transform="translate(338.478647 241.644085)scale(0.1 -0.1)">
       <use xlink:href="#DejaVuSans-31"/>
       <use x="63.623047" xlink:href="#DejaVuSans-30"/>
      </g>
     </g>
    </g>
    <g id="xtick_6">
     <g id="line2d_32">
      <g>
       <use style="stroke:#000000;stroke-width:0.8;" x="388.244161" xlink:href="#m8a6c94cd06" y="227.045647"/>
      </g>
     </g>
     <g id="text_26">
      <!-- 20 -->
      <g transform="translate(381.881661 241.644085)scale(0.1 -0.1)">
       <use xlink:href="#DejaVuSans-32"/>
       <use x="63.623047" xlink:href="#DejaVuSans-30"/>
      </g>
     </g>
    </g>
    <g id="text_27">
     <!-- Ma -->
     <g transform="translate(354.824228 255.32221)scale(0.1 -0.1)">
      <use xlink:href="#DejaVuSans-4d"/>
      <use x="86.279297" xlink:href="#DejaVuSans-61"/>
     </g>
    </g>
   </g>
   <g id="matplotlib.axis_6">
    <g id="ytick_9">
     <g id="line2d_33">
      <g>
       <use style="stroke:#000000;stroke-width:0.8;" x="309.684706" xlink:href="#mf84de7ca53" y="222.27137"/>
      </g>
     </g>
     <g id="text_28">
      <!-- 0.0 -->
      <g transform="translate(286.781581 226.070589)scale(0.1 -0.1)">
       <use xlink:href="#DejaVuSans-30"/>
       <use x="63.623047" xlink:href="#DejaVuSans-2e"/>
       <use x="95.410156" xlink:href="#DejaVuSans-30"/>
      </g>
     </g>
    </g>
    <g id="ytick_10">
     <g id="line2d_34">
      <g>
       <use style="stroke:#000000;stroke-width:0.8;" x="309.684706" xlink:href="#mf84de7ca53" y="198.445169"/>
      </g>
     </g>
     <g id="text_29">
      <!-- 0.2 -->
      <g transform="translate(286.781581 202.244388)scale(0.1 -0.1)">
       <use xlink:href="#DejaVuSans-30"/>
       <use x="63.623047" xlink:href="#DejaVuSans-2e"/>
       <use x="95.410156" xlink:href="#DejaVuSans-32"/>
      </g>
     </g>
    </g>
    <g id="ytick_11">
     <g id="line2d_35">
      <g>
       <use style="stroke:#000000;stroke-width:0.8;" x="309.684706" xlink:href="#mf84de7ca53" y="174.618967"/>
      </g>
     </g>
     <g id="text_30">
      <!-- 0.4 -->
      <g transform="translate(286.781581 178.418186)scale(0.1 -0.1)">
       <defs>
        <path d="M 2419 4116 
L 825 1625 
L 2419 1625 
L 2419 4116 
z
M 2253 4666 
L 3047 4666 
L 3047 1625 
L 3713 1625 
L 3713 1100 
L 3047 1100 
L 3047 0 
L 2419 0 
L 2419 1100 
L 313 1100 
L 313 1709 
L 2253 4666 
z
" id="DejaVuSans-34" transform="scale(0.015625)"/>
       </defs>
       <use xlink:href="#DejaVuSans-30"/>
       <use x="63.623047" xlink:href="#DejaVuSans-2e"/>
       <use x="95.410156" xlink:href="#DejaVuSans-34"/>
      </g>
     </g>
    </g>
    <g id="ytick_12">
     <g id="line2d_36">
      <g>
       <use style="stroke:#000000;stroke-width:0.8;" x="309.684706" xlink:href="#mf84de7ca53" y="150.792765"/>
      </g>
     </g>
     <g id="text_31">
      <!-- 0.6 -->
      <g transform="translate(286.781581 154.591984)scale(0.1 -0.1)">
       <defs>
        <path d="M 2113 2584 
Q 1688 2584 1439 2293 
Q 1191 2003 1191 1497 
Q 1191 994 1439 701 
Q 1688 409 2113 409 
Q 2538 409 2786 701 
Q 3034 994 3034 1497 
Q 3034 2003 2786 2293 
Q 2538 2584 2113 2584 
z
M 3366 4563 
L 3366 3988 
Q 3128 4100 2886 4159 
Q 2644 4219 2406 4219 
Q 1781 4219 1451 3797 
Q 1122 3375 1075 2522 
Q 1259 2794 1537 2939 
Q 1816 3084 2150 3084 
Q 2853 3084 3261 2657 
Q 3669 2231 3669 1497 
Q 3669 778 3244 343 
Q 2819 -91 2113 -91 
Q 1303 -91 875 529 
Q 447 1150 447 2328 
Q 447 3434 972 4092 
Q 1497 4750 2381 4750 
Q 2619 4750 2861 4703 
Q 3103 4656 3366 4563 
z
" id="DejaVuSans-36" transform="scale(0.015625)"/>
       </defs>
       <use xlink:href="#DejaVuSans-30"/>
       <use x="63.623047" xlink:href="#DejaVuSans-2e"/>
       <use x="95.410156" xlink:href="#DejaVuSans-36"/>
      </g>
     </g>
    </g>
    <g id="ytick_13">
     <g id="line2d_37">
      <g>
       <use style="stroke:#000000;stroke-width:0.8;" x="309.684706" xlink:href="#mf84de7ca53" y="126.966564"/>
      </g>
     </g>
     <g id="text_32">
      <!-- 0.8 -->
      <g transform="translate(286.781581 130.765783)scale(0.1 -0.1)">
       <defs>
        <path d="M 2034 2216 
Q 1584 2216 1326 1975 
Q 1069 1734 1069 1313 
Q 1069 891 1326 650 
Q 1584 409 2034 409 
Q 2484 409 2743 651 
Q 3003 894 3003 1313 
Q 3003 1734 2745 1975 
Q 2488 2216 2034 2216 
z
M 1403 2484 
Q 997 2584 770 2862 
Q 544 3141 544 3541 
Q 544 4100 942 4425 
Q 1341 4750 2034 4750 
Q 2731 4750 3128 4425 
Q 3525 4100 3525 3541 
Q 3525 3141 3298 2862 
Q 3072 2584 2669 2484 
Q 3125 2378 3379 2068 
Q 3634 1759 3634 1313 
Q 3634 634 3220 271 
Q 2806 -91 2034 -91 
Q 1263 -91 848 271 
Q 434 634 434 1313 
Q 434 1759 690 2068 
Q 947 2378 1403 2484 
z
M 1172 3481 
Q 1172 3119 1398 2916 
Q 1625 2713 2034 2713 
Q 2441 2713 2670 2916 
Q 2900 3119 2900 3481 
Q 2900 3844 2670 4047 
Q 2441 4250 2034 4250 
Q 1625 4250 1398 4047 
Q 1172 3844 1172 3481 
z
" id="DejaVuSans-38" transform="scale(0.015625)"/>
       </defs>
       <use xlink:href="#DejaVuSans-30"/>
       <use x="63.623047" xlink:href="#DejaVuSans-2e"/>
       <use x="95.410156" xlink:href="#DejaVuSans-38"/>
      </g>
     </g>
    </g>
    <g id="text_33">
     <!-- P2/P1 or T2/T1 -->
     <g transform="translate(280.701893 211.052219)rotate(-90)scale(0.1 -0.1)">
      <defs>
       <path d="M 1625 4666 
L 2156 4666 
L 531 -594 
L 0 -594 
L 1625 4666 
z
" id="DejaVuSans-2f" transform="scale(0.015625)"/>
       <path d="M -19 4666 
L 3928 4666 
L 3928 4134 
L 2272 4134 
L 2272 0 
L 1638 0 
L 1638 4134 
L -19 4134 
L -19 4666 
z
" id="DejaVuSans-54" transform="scale(0.015625)"/>
      </defs>
      <use xlink:href="#DejaVuSans-50"/>
      <use x="60.302734" xlink:href="#DejaVuSans-32"/>
      <use x="123.925781" xlink:href="#DejaVuSans-2f"/>
      <use x="157.617188" xlink:href="#DejaVuSans-50"/>
      <use x="217.919922" xlink:href="#DejaVuSans-31"/>
      <use x="281.542969" xlink:href="#DejaVuSans-20"/>
      <use x="313.330078" xlink:href="#DejaVuSans-6f"/>
      <use x="374.511719" xlink:href="#DejaVuSans-72"/>
      <use x="415.625" xlink:href="#DejaVuSans-20"/>
      <use x="447.412109" xlink:href="#DejaVuSans-54"/>
      <use x="508.496094" xlink:href="#DejaVuSans-32"/>
      <use x="572.119141" xlink:href="#DejaVuSans-2f"/>
      <use x="605.810547" xlink:href="#DejaVuSans-54"/>
      <use x="666.894531" xlink:href="#DejaVuSans-31"/>
     </g>
    </g>
   </g>
   <g id="line2d_38">
    <path clip-path="url(#pc8662b27e8)" d="M 314.459037 138.534366 
L 323.13964 147.17123 
L 344.841147 173.805683 
L 409.945668 220.427134 
" style="fill:none;stroke:#0000ff;stroke-linecap:square;stroke-width:1.5;"/>
   </g>
   <g id="line2d_39">
    <path clip-path="url(#pc8662b27e8)" d="M 314.459037 187.585793 
L 323.13964 198.575069 
L 344.841147 217.155044 
L 409.945668 222.271316 
" style="fill:none;stroke:#008000;stroke-linecap:square;stroke-width:1.5;"/>
   </g>
   <g id="line2d_40">
    <path clip-path="url(#pc8662b27e8)" d="M 314.459037 126.784684 
L 323.13964 141.095991 
L 344.841147 171.793743 
L 409.945668 220.339745 
" style="fill:none;stroke:#ff0000;stroke-linecap:square;stroke-width:1.5;"/>
   </g>
   <g id="line2d_41">
    <path clip-path="url(#pc8662b27e8)" d="M 314.459037 167.350447 
L 323.13964 191.159716 
L 344.841147 216.372292 
L 409.945668 222.271306 
" style="fill:none;stroke:#000000;stroke-linecap:square;stroke-width:1.5;"/>
   </g>
   <g id="patch_15">
    <path d="M 309.684706 227.045647 
L 309.684706 122.010353 
" style="fill:none;stroke:#000000;stroke-linecap:square;stroke-linejoin:miter;stroke-width:0.8;"/>
   </g>
   <g id="patch_16">
    <path d="M 414.72 227.045647 
L 414.72 122.010353 
" style="fill:none;stroke:#000000;stroke-linecap:square;stroke-linejoin:miter;stroke-width:0.8;"/>
   </g>
   <g id="patch_17">
    <path d="M 309.684706 227.045647 
L 414.72 227.045647 
" style="fill:none;stroke:#000000;stroke-linecap:square;stroke-linejoin:miter;stroke-width:0.8;"/>
   </g>
   <g id="patch_18">
    <path d="M 309.684706 122.010353 
L 414.72 122.010353 
" style="fill:none;stroke:#000000;stroke-linecap:square;stroke-linejoin:miter;stroke-width:0.8;"/>
   </g>
   <g id="text_34">
    <!-- Isentropic Relations -->
    <g transform="translate(303.222353 116.010353)scale(0.12 -0.12)">
     <defs>
      <path d="M 628 4666 
L 1259 4666 
L 1259 0 
L 628 0 
L 628 4666 
z
" id="DejaVuSans-49" transform="scale(0.015625)"/>
      <path d="M 2841 2188 
Q 3044 2119 3236 1894 
Q 3428 1669 3622 1275 
L 4263 0 
L 3584 0 
L 2988 1197 
Q 2756 1666 2539 1819 
Q 2322 1972 1947 1972 
L 1259 1972 
L 1259 0 
L 628 0 
L 628 4666 
L 2053 4666 
Q 2853 4666 3247 4331 
Q 3641 3997 3641 3322 
Q 3641 2881 3436 2590 
Q 3231 2300 2841 2188 
z
M 1259 4147 
L 1259 2491 
L 2053 2491 
Q 2509 2491 2742 2702 
Q 2975 2913 2975 3322 
Q 2975 3731 2742 3939 
Q 2509 4147 2053 4147 
L 1259 4147 
z
" id="DejaVuSans-52" transform="scale(0.015625)"/>
     </defs>
     <use xlink:href="#DejaVuSans-49"/>
     <use x="29.492188" xlink:href="#DejaVuSans-73"/>
     <use x="81.591797" xlink:href="#DejaVuSans-65"/>
     <use x="143.115234" xlink:href="#DejaVuSans-6e"/>
     <use x="206.494141" xlink:href="#DejaVuSans-74"/>
     <use x="245.703125" xlink:href="#DejaVuSans-72"/>
     <use x="284.566406" xlink:href="#DejaVuSans-6f"/>
     <use x="345.748047" xlink:href="#DejaVuSans-70"/>
     <use x="409.224609" xlink:href="#DejaVuSans-69"/>
     <use x="437.007812" xlink:href="#DejaVuSans-63"/>
     <use x="491.988281" xlink:href="#DejaVuSans-20"/>
     <use x="523.775391" xlink:href="#DejaVuSans-52"/>
     <use x="588.757812" xlink:href="#DejaVuSans-65"/>
     <use x="650.28125" xlink:href="#DejaVuSans-6c"/>
     <use x="678.064453" xlink:href="#DejaVuSans-61"/>
     <use x="739.34375" xlink:href="#DejaVuSans-74"/>
     <use x="778.552734" xlink:href="#DejaVuSans-69"/>
     <use x="806.335938" xlink:href="#DejaVuSans-6f"/>
     <use x="867.517578" xlink:href="#DejaVuSans-6e"/>
     <use x="930.896484" xlink:href="#DejaVuSans-73"/>
    </g>
   </g>
   <g id="legend_3">
    <g id="patch_19">
     <path d="M 316.684706 188.722853 
L 510.442518 188.722853 
Q 512.442518 188.722853 512.442518 186.722853 
L 512.442518 129.010353 
Q 512.442518 127.010353 510.442518 127.010353 
L 316.684706 127.010353 
Q 314.684706 127.010353 314.684706 129.010353 
L 314.684706 186.722853 
Q 314.684706 188.722853 316.684706 188.722853 
z
" style="fill:#ffffff;opacity:0.8;stroke:#cccccc;stroke-linejoin:miter;"/>
    </g>
    <g id="line2d_42">
     <path d="M 318.684706 135.10879 
L 338.684706 135.10879 
" style="fill:none;stroke:#0000ff;stroke-linecap:square;stroke-width:1.5;"/>
    </g>
    <g id="line2d_43"/>
    <g id="text_35">
     <!-- Temperature ratio (Classic) -->
     <g transform="translate(346.684706 138.60879)scale(0.1 -0.1)">
      <use xlink:href="#DejaVuSans-54"/>
      <use x="44.083984" xlink:href="#DejaVuSans-65"/>
      <use x="105.607422" xlink:href="#DejaVuSans-6d"/>
      <use x="203.019531" xlink:href="#DejaVuSans-70"/>
      <use x="266.496094" xlink:href="#DejaVuSans-65"/>
      <use x="328.019531" xlink:href="#DejaVuSans-72"/>
      <use x="369.132812" xlink:href="#DejaVuSans-61"/>
      <use x="430.412109" xlink:href="#DejaVuSans-74"/>
      <use x="469.621094" xlink:href="#DejaVuSans-75"/>
      <use x="533" xlink:href="#DejaVuSans-72"/>
      <use x="571.863281" xlink:href="#DejaVuSans-65"/>
      <use x="633.386719" xlink:href="#DejaVuSans-20"/>
      <use x="665.173828" xlink:href="#DejaVuSans-72"/>
      <use x="706.287109" xlink:href="#DejaVuSans-61"/>
      <use x="767.566406" xlink:href="#DejaVuSans-74"/>
      <use x="806.775391" xlink:href="#DejaVuSans-69"/>
      <use x="834.558594" xlink:href="#DejaVuSans-6f"/>
      <use x="895.740234" xlink:href="#DejaVuSans-20"/>
      <use x="927.527344" xlink:href="#DejaVuSans-28"/>
      <use x="966.541016" xlink:href="#DejaVuSans-43"/>
      <use x="1036.365234" xlink:href="#DejaVuSans-6c"/>
      <use x="1064.148438" xlink:href="#DejaVuSans-61"/>
      <use x="1125.427734" xlink:href="#DejaVuSans-73"/>
      <use x="1177.527344" xlink:href="#DejaVuSans-73"/>
      <use x="1229.626953" xlink:href="#DejaVuSans-69"/>
      <use x="1257.410156" xlink:href="#DejaVuSans-63"/>
      <use x="1312.390625" xlink:href="#DejaVuSans-29"/>
     </g>
    </g>
    <g id="line2d_44">
     <path d="M 318.684706 149.786915 
L 338.684706 149.786915 
" style="fill:none;stroke:#008000;stroke-linecap:square;stroke-width:1.5;"/>
    </g>
    <g id="line2d_45"/>
    <g id="text_36">
     <!-- Pressure ratio (Classic) -->
     <g transform="translate(346.684706 153.286915)scale(0.1 -0.1)">
      <use xlink:href="#DejaVuSans-50"/>
      <use x="58.552734" xlink:href="#DejaVuSans-72"/>
      <use x="97.416016" xlink:href="#DejaVuSans-65"/>
      <use x="158.939453" xlink:href="#DejaVuSans-73"/>
      <use x="211.039062" xlink:href="#DejaVuSans-73"/>
      <use x="263.138672" xlink:href="#DejaVuSans-75"/>
      <use x="326.517578" xlink:href="#DejaVuSans-72"/>
      <use x="365.380859" xlink:href="#DejaVuSans-65"/>
      <use x="426.904297" xlink:href="#DejaVuSans-20"/>
      <use x="458.691406" xlink:href="#DejaVuSans-72"/>
      <use x="499.804688" xlink:href="#DejaVuSans-61"/>
      <use x="561.083984" xlink:href="#DejaVuSans-74"/>
      <use x="600.292969" xlink:href="#DejaVuSans-69"/>
      <use x="628.076172" xlink:href="#DejaVuSans-6f"/>
      <use x="689.257812" xlink:href="#DejaVuSans-20"/>
      <use x="721.044922" xlink:href="#DejaVuSans-28"/>
      <use x="760.058594" xlink:href="#DejaVuSans-43"/>
      <use x="829.882812" xlink:href="#DejaVuSans-6c"/>
      <use x="857.666016" xlink:href="#DejaVuSans-61"/>
      <use x="918.945312" xlink:href="#DejaVuSans-73"/>
      <use x="971.044922" xlink:href="#DejaVuSans-73"/>
      <use x="1023.144531" xlink:href="#DejaVuSans-69"/>
      <use x="1050.927734" xlink:href="#DejaVuSans-63"/>
      <use x="1105.908203" xlink:href="#DejaVuSans-29"/>
     </g>
    </g>
    <g id="line2d_46">
     <path d="M 318.684706 164.46504 
L 338.684706 164.46504 
" style="fill:none;stroke:#ff0000;stroke-linecap:square;stroke-width:1.5;"/>
    </g>
    <g id="line2d_47"/>
    <g id="text_37">
     <!-- Temperature ratio (Hypersonics) -->
     <g transform="translate(346.684706 167.96504)scale(0.1 -0.1)">
      <use xlink:href="#DejaVuSans-54"/>
      <use x="44.083984" xlink:href="#DejaVuSans-65"/>
      <use x="105.607422" xlink:href="#DejaVuSans-6d"/>
      <use x="203.019531" xlink:href="#DejaVuSans-70"/>
      <use x="266.496094" xlink:href="#DejaVuSans-65"/>
      <use x="328.019531" xlink:href="#DejaVuSans-72"/>
      <use x="369.132812" xlink:href="#DejaVuSans-61"/>
      <use x="430.412109" xlink:href="#DejaVuSans-74"/>
      <use x="469.621094" xlink:href="#DejaVuSans-75"/>
      <use x="533" xlink:href="#DejaVuSans-72"/>
      <use x="571.863281" xlink:href="#DejaVuSans-65"/>
      <use x="633.386719" xlink:href="#DejaVuSans-20"/>
      <use x="665.173828" xlink:href="#DejaVuSans-72"/>
      <use x="706.287109" xlink:href="#DejaVuSans-61"/>
      <use x="767.566406" xlink:href="#DejaVuSans-74"/>
      <use x="806.775391" xlink:href="#DejaVuSans-69"/>
      <use x="834.558594" xlink:href="#DejaVuSans-6f"/>
      <use x="895.740234" xlink:href="#DejaVuSans-20"/>
      <use x="927.527344" xlink:href="#DejaVuSans-28"/>
      <use x="966.541016" xlink:href="#DejaVuSans-48"/>
      <use x="1041.736328" xlink:href="#DejaVuSans-79"/>
      <use x="1100.916016" xlink:href="#DejaVuSans-70"/>
      <use x="1164.392578" xlink:href="#DejaVuSans-65"/>
      <use x="1225.916016" xlink:href="#DejaVuSans-72"/>
      <use x="1267.029297" xlink:href="#DejaVuSans-73"/>
      <use x="1319.128906" xlink:href="#DejaVuSans-6f"/>
      <use x="1380.310547" xlink:href="#DejaVuSans-6e"/>
      <use x="1443.689453" xlink:href="#DejaVuSans-69"/>
      <use x="1471.472656" xlink:href="#DejaVuSans-63"/>
      <use x="1526.453125" xlink:href="#DejaVuSans-73"/>
      <use x="1578.552734" xlink:href="#DejaVuSans-29"/>
     </g>
    </g>
    <g id="line2d_48">
     <path d="M 318.684706 179.143165 
L 338.684706 179.143165 
" style="fill:none;stroke:#000000;stroke-linecap:square;stroke-width:1.5;"/>
    </g>
    <g id="line2d_49"/>
    <g id="text_38">
     <!-- Pressure ratio (Hypersonics) -->
     <g transform="translate(346.684706 182.643165)scale(0.1 -0.1)">
      <use xlink:href="#DejaVuSans-50"/>
      <use x="58.552734" xlink:href="#DejaVuSans-72"/>
      <use x="97.416016" xlink:href="#DejaVuSans-65"/>
      <use x="158.939453" xlink:href="#DejaVuSans-73"/>
      <use x="211.039062" xlink:href="#DejaVuSans-73"/>
      <use x="263.138672" xlink:href="#DejaVuSans-75"/>
      <use x="326.517578" xlink:href="#DejaVuSans-72"/>
      <use x="365.380859" xlink:href="#DejaVuSans-65"/>
      <use x="426.904297" xlink:href="#DejaVuSans-20"/>
      <use x="458.691406" xlink:href="#DejaVuSans-72"/>
      <use x="499.804688" xlink:href="#DejaVuSans-61"/>
      <use x="561.083984" xlink:href="#DejaVuSans-74"/>
      <use x="600.292969" xlink:href="#DejaVuSans-69"/>
      <use x="628.076172" xlink:href="#DejaVuSans-6f"/>
      <use x="689.257812" xlink:href="#DejaVuSans-20"/>
      <use x="721.044922" xlink:href="#DejaVuSans-28"/>
      <use x="760.058594" xlink:href="#DejaVuSans-48"/>
      <use x="835.253906" xlink:href="#DejaVuSans-79"/>
      <use x="894.433594" xlink:href="#DejaVuSans-70"/>
      <use x="957.910156" xlink:href="#DejaVuSans-65"/>
      <use x="1019.433594" xlink:href="#DejaVuSans-72"/>
      <use x="1060.546875" xlink:href="#DejaVuSans-73"/>
      <use x="1112.646484" xlink:href="#DejaVuSans-6f"/>
      <use x="1173.828125" xlink:href="#DejaVuSans-6e"/>
      <use x="1237.207031" xlink:href="#DejaVuSans-69"/>
      <use x="1264.990234" xlink:href="#DejaVuSans-63"/>
      <use x="1319.970703" xlink:href="#DejaVuSans-73"/>
      <use x="1372.070312" xlink:href="#DejaVuSans-29"/>
     </g>
    </g>
   </g>
  </g>
 </g>
 <defs>
  <clipPath id="p59c33b4c19">
   <rect height="105.035294" width="105.035294" x="57.6" y="122.010353"/>
  </clipPath>
  <clipPath id="p56ea42339e">
   <rect height="105.035294" width="105.035294" x="183.642353" y="122.010353"/>
  </clipPath>
  <clipPath id="pc8662b27e8">
   <rect height="105.035294" width="105.035294" x="309.684706" y="122.010353"/>
  </clipPath>
 </defs>
</svg>
