<?xml version="1.0" encoding="utf-8" standalone="no"?>
<!DOCTYPE svg PUBLIC "-//W3C//DTD SVG 1.1//EN"
  "http://www.w3.org/Graphics/SVG/1.1/DTD/svg11.dtd">
<svg height="345.6pt" version="1.1" viewBox="0 0 460.8 345.6" width="460.8pt" xmlns="http://www.w3.org/2000/svg" xmlns:xlink="http://www.w3.org/1999/xlink">
 <metadata>
  <rdf:RDF xmlns:cc="http://creativecommons.org/ns#" xmlns:dc="http://purl.org/dc/elements/1.1/" xmlns:rdf="http://www.w3.org/1999/02/22-rdf-syntax-ns#">
   <cc:Work>
    <dc:type rdf:resource="http://purl.org/dc/dcmitype/StillImage"/>
    <dc:date>2021-10-20T23:32:27.543078</dc:date>
    <dc:format>image/svg+xml</dc:format>
    <dc:creator>
     <cc:Agent>
      <dc:title>Matplotlib v3.4.2, https://matplotlib.org/</dc:title>
     </cc:Agent>
    </dc:creator>
   </cc:Work>
  </rdf:RDF>
 </metadata>
 <defs>
  <style type="text/css">*{stroke-linecap:butt;stroke-linejoin:round;}</style>
 </defs>
 <g id="figure_1">
  <g id="patch_1">
   <path d="M 0 345.6 
L 460.8 345.6 
L 460.8 0 
L 0 0 
z
" style="fill:#ffffff;"/>
  </g>
  <g id="axes_1">
   <g id="patch_2">
    <path d="M 57.6 307.584 
L 414.72 307.584 
L 414.72 41.472 
L 57.6 41.472 
z
" style="fill:#ffffff;"/>
   </g>
   <g id="matplotlib.axis_1">
    <g id="xtick_1">
     <g id="line2d_1">
      <defs>
       <path d="M 0 0 
L 0 3.5 
" id="me8d83c2e39" style="stroke:#000000;stroke-width:0.8;"/>
      </defs>
      <g>
       <use style="stroke:#000000;stroke-width:0.8;" x="57.6" xlink:href="#me8d83c2e39" y="307.584"/>
      </g>
     </g>
     <g id="text_1">
      <!-- 0 -->
      <g transform="translate(54.100625 322.942281)scale(0.11 -0.11)">
       <defs>
        <path d="M 2034 219 
Q 2513 219 2750 744 
Q 2988 1269 2988 2328 
Q 2988 3391 2750 3916 
Q 2513 4441 2034 4441 
Q 1556 4441 1318 3916 
Q 1081 3391 1081 2328 
Q 1081 1269 1318 744 
Q 1556 219 2034 219 
z
M 2034 -91 
Q 1275 -91 848 546 
Q 422 1184 422 2328 
Q 422 3475 848 4112 
Q 1275 4750 2034 4750 
Q 2797 4750 3222 4112 
Q 3647 3475 3647 2328 
Q 3647 1184 3222 546 
Q 2797 -91 2034 -91 
z
" id="DejaVuSerif-30" transform="scale(0.015625)"/>
       </defs>
       <use xlink:href="#DejaVuSerif-30"/>
      </g>
     </g>
    </g>
    <g id="xtick_2">
     <g id="line2d_2">
      <g>
       <use style="stroke:#000000;stroke-width:0.8;" x="129.024" xlink:href="#me8d83c2e39" y="307.584"/>
      </g>
     </g>
     <g id="text_2">
      <!-- 10 -->
      <g transform="translate(122.02525 322.942281)scale(0.11 -0.11)">
       <defs>
        <path d="M 909 0 
L 909 331 
L 1722 331 
L 1722 4213 
L 781 3603 
L 781 4013 
L 1919 4750 
L 2350 4750 
L 2350 331 
L 3163 331 
L 3163 0 
L 909 0 
z
" id="DejaVuSerif-31" transform="scale(0.015625)"/>
       </defs>
       <use xlink:href="#DejaVuSerif-31"/>
       <use x="63.623047" xlink:href="#DejaVuSerif-30"/>
      </g>
     </g>
    </g>
    <g id="xtick_3">
     <g id="line2d_3">
      <g>
       <use style="stroke:#000000;stroke-width:0.8;" x="200.448" xlink:href="#me8d83c2e39" y="307.584"/>
      </g>
     </g>
     <g id="text_3">
      <!-- 20 -->
      <g transform="translate(193.44925 322.942281)scale(0.11 -0.11)">
       <defs>
        <path d="M 819 3553 
L 469 3553 
L 469 4384 
Q 803 4563 1142 4656 
Q 1481 4750 1806 4750 
Q 2534 4750 2956 4397 
Q 3378 4044 3378 3438 
Q 3378 2753 2422 1800 
Q 2347 1728 2309 1691 
L 1131 513 
L 3078 513 
L 3078 1088 
L 3444 1088 
L 3444 0 
L 434 0 
L 434 341 
L 1850 1753 
Q 2319 2222 2519 2614 
Q 2719 3006 2719 3438 
Q 2719 3909 2473 4175 
Q 2228 4441 1797 4441 
Q 1350 4441 1106 4219 
Q 863 3997 819 3553 
z
" id="DejaVuSerif-32" transform="scale(0.015625)"/>
       </defs>
       <use xlink:href="#DejaVuSerif-32"/>
       <use x="63.623047" xlink:href="#DejaVuSerif-30"/>
      </g>
     </g>
    </g>
    <g id="xtick_4">
     <g id="line2d_4">
      <g>
       <use style="stroke:#000000;stroke-width:0.8;" x="271.872" xlink:href="#me8d83c2e39" y="307.584"/>
      </g>
     </g>
     <g id="text_4">
      <!-- 30 -->
      <g transform="translate(264.87325 322.942281)scale(0.11 -0.11)">
       <defs>
        <path d="M 622 4469 
Q 988 4606 1323 4678 
Q 1659 4750 1953 4750 
Q 2638 4750 3022 4454 
Q 3406 4159 3406 3634 
Q 3406 3213 3140 2930 
Q 2875 2647 2388 2547 
Q 2963 2466 3280 2130 
Q 3597 1794 3597 1259 
Q 3597 606 3158 257 
Q 2719 -91 1894 -91 
Q 1528 -91 1179 -12 
Q 831 66 488 225 
L 488 1131 
L 838 1131 
Q 869 681 1141 450 
Q 1413 219 1906 219 
Q 2384 219 2661 495 
Q 2938 772 2938 1253 
Q 2938 1803 2653 2086 
Q 2369 2369 1819 2369 
L 1522 2369 
L 1522 2688 
L 1678 2688 
Q 2225 2688 2498 2914 
Q 2772 3141 2772 3597 
Q 2772 4006 2547 4223 
Q 2322 4441 1900 4441 
Q 1478 4441 1245 4241 
Q 1013 4041 972 3647 
L 622 3647 
L 622 4469 
z
" id="DejaVuSerif-33" transform="scale(0.015625)"/>
       </defs>
       <use xlink:href="#DejaVuSerif-33"/>
       <use x="63.623047" xlink:href="#DejaVuSerif-30"/>
      </g>
     </g>
    </g>
    <g id="xtick_5">
     <g id="line2d_5">
      <g>
       <use style="stroke:#000000;stroke-width:0.8;" x="343.296" xlink:href="#me8d83c2e39" y="307.584"/>
      </g>
     </g>
     <g id="text_5">
      <!-- 40 -->
      <g transform="translate(336.29725 322.942281)scale(0.11 -0.11)">
       <defs>
        <path d="M 2234 1581 
L 2234 4063 
L 641 1581 
L 2234 1581 
z
M 3609 0 
L 1484 0 
L 1484 331 
L 2234 331 
L 2234 1247 
L 197 1247 
L 197 1588 
L 2241 4750 
L 2859 4750 
L 2859 1581 
L 3750 1581 
L 3750 1247 
L 2859 1247 
L 2859 331 
L 3609 331 
L 3609 0 
z
" id="DejaVuSerif-34" transform="scale(0.015625)"/>
       </defs>
       <use xlink:href="#DejaVuSerif-34"/>
       <use x="63.623047" xlink:href="#DejaVuSerif-30"/>
      </g>
     </g>
    </g>
    <g id="xtick_6">
     <g id="line2d_6">
      <g>
       <use style="stroke:#000000;stroke-width:0.8;" x="414.72" xlink:href="#me8d83c2e39" y="307.584"/>
      </g>
     </g>
     <g id="text_6">
      <!-- 50 -->
      <g transform="translate(407.72125 322.942281)scale(0.11 -0.11)">
       <defs>
        <path d="M 3219 4666 
L 3219 4153 
L 1081 4153 
L 1081 2816 
Q 1244 2928 1461 2984 
Q 1678 3041 1947 3041 
Q 2703 3041 3140 2622 
Q 3578 2203 3578 1478 
Q 3578 738 3136 323 
Q 2694 -91 1894 -91 
Q 1572 -91 1234 -12 
Q 897 66 544 225 
L 544 1131 
L 897 1131 
Q 925 688 1179 453 
Q 1434 219 1894 219 
Q 2388 219 2653 544 
Q 2919 869 2919 1478 
Q 2919 2084 2655 2407 
Q 2391 2731 1894 2731 
Q 1613 2731 1398 2631 
Q 1184 2531 1019 2322 
L 750 2322 
L 750 4666 
L 3219 4666 
z
" id="DejaVuSerif-35" transform="scale(0.015625)"/>
       </defs>
       <use xlink:href="#DejaVuSerif-35"/>
       <use x="63.623047" xlink:href="#DejaVuSerif-30"/>
      </g>
     </g>
    </g>
    <g id="text_7">
     <!-- Theta [deg] -->
     <g transform="translate(203.867266 337.588219)scale(0.11 -0.11)">
      <defs>
       <path d="M 1222 0 
L 1222 331 
L 1819 331 
L 1819 4294 
L 447 4294 
L 447 3566 
L 63 3566 
L 63 4666 
L 4206 4666 
L 4206 3566 
L 3822 3566 
L 3822 4294 
L 2450 4294 
L 2450 331 
L 3047 331 
L 3047 0 
L 1222 0 
z
" id="DejaVuSerif-54" transform="scale(0.015625)"/>
       <path d="M 263 0 
L 263 331 
L 781 331 
L 781 4531 
L 231 4531 
L 231 4863 
L 1356 4863 
L 1356 2731 
Q 1516 3069 1770 3241 
Q 2025 3413 2363 3413 
Q 2913 3413 3172 3097 
Q 3431 2781 3431 2113 
L 3431 331 
L 3944 331 
L 3944 0 
L 2356 0 
L 2356 331 
L 2853 331 
L 2853 1931 
Q 2853 2541 2704 2764 
Q 2556 2988 2175 2988 
Q 1775 2988 1565 2697 
Q 1356 2406 1356 1850 
L 1356 331 
L 1856 331 
L 1856 0 
L 263 0 
z
" id="DejaVuSerif-68" transform="scale(0.015625)"/>
       <path d="M 3469 1600 
L 991 1600 
L 991 1575 
Q 991 903 1244 561 
Q 1497 219 1991 219 
Q 2369 219 2611 417 
Q 2853 616 2950 1006 
L 3413 1006 
Q 3275 459 2904 184 
Q 2534 -91 1931 -91 
Q 1203 -91 761 389 
Q 319 869 319 1663 
Q 319 2450 753 2931 
Q 1188 3413 1894 3413 
Q 2647 3413 3050 2948 
Q 3453 2484 3469 1600 
z
M 2791 1931 
Q 2772 2513 2545 2808 
Q 2319 3103 1894 3103 
Q 1497 3103 1269 2806 
Q 1041 2509 991 1931 
L 2791 1931 
z
" id="DejaVuSerif-65" transform="scale(0.015625)"/>
       <path d="M 691 2988 
L 184 2988 
L 184 3322 
L 691 3322 
L 691 4353 
L 1269 4353 
L 1269 3322 
L 2350 3322 
L 2350 2988 
L 1269 2988 
L 1269 878 
Q 1269 456 1350 337 
Q 1431 219 1650 219 
Q 1875 219 1978 351 
Q 2081 484 2088 781 
L 2522 781 
Q 2497 328 2275 118 
Q 2053 -91 1600 -91 
Q 1103 -91 897 129 
Q 691 350 691 878 
L 691 2988 
z
" id="DejaVuSerif-74" transform="scale(0.015625)"/>
       <path d="M 2547 1044 
L 2547 1747 
L 1806 1747 
Q 1378 1747 1168 1562 
Q 959 1378 959 997 
Q 959 650 1171 447 
Q 1384 244 1747 244 
Q 2106 244 2326 466 
Q 2547 688 2547 1044 
z
M 3122 2075 
L 3122 331 
L 3634 331 
L 3634 0 
L 2547 0 
L 2547 359 
Q 2356 128 2106 18 
Q 1856 -91 1522 -91 
Q 969 -91 644 203 
Q 319 497 319 997 
Q 319 1513 691 1797 
Q 1063 2081 1741 2081 
L 2547 2081 
L 2547 2309 
Q 2547 2688 2317 2895 
Q 2088 3103 1672 3103 
Q 1328 3103 1125 2947 
Q 922 2791 872 2484 
L 575 2484 
L 575 3156 
Q 875 3284 1158 3348 
Q 1441 3413 1709 3413 
Q 2400 3413 2761 3070 
Q 3122 2728 3122 2075 
z
" id="DejaVuSerif-61" transform="scale(0.015625)"/>
       <path id="DejaVuSerif-20" transform="scale(0.015625)"/>
       <path d="M 550 4863 
L 2003 4863 
L 2003 4531 
L 1147 4531 
L 1147 -513 
L 2003 -513 
L 2003 -844 
L 550 -844 
L 550 4863 
z
" id="DejaVuSerif-5b" transform="scale(0.015625)"/>
       <path d="M 3359 331 
L 3909 331 
L 3909 0 
L 2784 0 
L 2784 519 
Q 2616 206 2355 57 
Q 2094 -91 1709 -91 
Q 1097 -91 708 395 
Q 319 881 319 1663 
Q 319 2444 706 2928 
Q 1094 3413 1709 3413 
Q 2094 3413 2355 3264 
Q 2616 3116 2784 2803 
L 2784 4531 
L 2241 4531 
L 2241 4863 
L 3359 4863 
L 3359 331 
z
M 2784 1497 
L 2784 1825 
Q 2784 2422 2554 2737 
Q 2325 3053 1888 3053 
Q 1444 3053 1217 2703 
Q 991 2353 991 1663 
Q 991 975 1217 622 
Q 1444 269 1888 269 
Q 2325 269 2554 583 
Q 2784 897 2784 1497 
z
" id="DejaVuSerif-64" transform="scale(0.015625)"/>
       <path d="M 3359 2988 
L 3359 72 
Q 3359 -644 2965 -1033 
Q 2572 -1422 1844 -1422 
Q 1516 -1422 1216 -1362 
Q 916 -1303 641 -1184 
L 641 -488 
L 941 -488 
Q 997 -813 1206 -963 
Q 1416 -1113 1806 -1113 
Q 2313 -1113 2548 -827 
Q 2784 -541 2784 72 
L 2784 519 
Q 2616 206 2355 57 
Q 2094 -91 1709 -91 
Q 1097 -91 708 395 
Q 319 881 319 1663 
Q 319 2444 706 2928 
Q 1094 3413 1709 3413 
Q 2094 3413 2355 3264 
Q 2616 3116 2784 2803 
L 2784 3322 
L 3909 3322 
L 3909 2988 
L 3359 2988 
z
M 2784 1825 
Q 2784 2422 2554 2737 
Q 2325 3053 1888 3053 
Q 1444 3053 1217 2703 
Q 991 2353 991 1663 
Q 991 975 1217 622 
Q 1444 269 1888 269 
Q 2325 269 2554 583 
Q 2784 897 2784 1497 
L 2784 1825 
z
" id="DejaVuSerif-67" transform="scale(0.015625)"/>
       <path d="M 1947 4863 
L 1947 -844 
L 494 -844 
L 494 -513 
L 1350 -513 
L 1350 4531 
L 494 4531 
L 494 4863 
L 1947 4863 
z
" id="DejaVuSerif-5d" transform="scale(0.015625)"/>
      </defs>
      <use xlink:href="#DejaVuSerif-54"/>
      <use x="66.699219" xlink:href="#DejaVuSerif-68"/>
      <use x="131.103516" xlink:href="#DejaVuSerif-65"/>
      <use x="190.283203" xlink:href="#DejaVuSerif-74"/>
      <use x="230.46875" xlink:href="#DejaVuSerif-61"/>
      <use x="290.087891" xlink:href="#DejaVuSerif-20"/>
      <use x="321.875" xlink:href="#DejaVuSerif-5b"/>
      <use x="360.888672" xlink:href="#DejaVuSerif-64"/>
      <use x="424.902344" xlink:href="#DejaVuSerif-65"/>
      <use x="484.082031" xlink:href="#DejaVuSerif-67"/>
      <use x="548.095703" xlink:href="#DejaVuSerif-5d"/>
     </g>
    </g>
   </g>
   <g id="matplotlib.axis_2">
    <g id="ytick_1">
     <g id="line2d_7">
      <defs>
       <path d="M 0 0 
L -3.5 0 
" id="md54ae74374" style="stroke:#000000;stroke-width:0.8;"/>
      </defs>
      <g>
       <use style="stroke:#000000;stroke-width:0.8;" x="57.6" xlink:href="#md54ae74374" y="307.584"/>
      </g>
     </g>
     <g id="text_8">
      <!-- 0 -->
      <g transform="translate(43.60125 311.763141)scale(0.11 -0.11)">
       <use xlink:href="#DejaVuSerif-30"/>
      </g>
     </g>
    </g>
    <g id="ytick_2">
     <g id="line2d_8">
      <g>
       <use style="stroke:#000000;stroke-width:0.8;" x="57.6" xlink:href="#md54ae74374" y="278.016"/>
      </g>
     </g>
     <g id="text_9">
      <!-- 10 -->
      <g transform="translate(36.6025 282.195141)scale(0.11 -0.11)">
       <use xlink:href="#DejaVuSerif-31"/>
       <use x="63.623047" xlink:href="#DejaVuSerif-30"/>
      </g>
     </g>
    </g>
    <g id="ytick_3">
     <g id="line2d_9">
      <g>
       <use style="stroke:#000000;stroke-width:0.8;" x="57.6" xlink:href="#md54ae74374" y="248.448"/>
      </g>
     </g>
     <g id="text_10">
      <!-- 20 -->
      <g transform="translate(36.6025 252.627141)scale(0.11 -0.11)">
       <use xlink:href="#DejaVuSerif-32"/>
       <use x="63.623047" xlink:href="#DejaVuSerif-30"/>
      </g>
     </g>
    </g>
    <g id="ytick_4">
     <g id="line2d_10">
      <g>
       <use style="stroke:#000000;stroke-width:0.8;" x="57.6" xlink:href="#md54ae74374" y="218.88"/>
      </g>
     </g>
     <g id="text_11">
      <!-- 30 -->
      <g transform="translate(36.6025 223.059141)scale(0.11 -0.11)">
       <use xlink:href="#DejaVuSerif-33"/>
       <use x="63.623047" xlink:href="#DejaVuSerif-30"/>
      </g>
     </g>
    </g>
    <g id="ytick_5">
     <g id="line2d_11">
      <g>
       <use style="stroke:#000000;stroke-width:0.8;" x="57.6" xlink:href="#md54ae74374" y="189.312"/>
      </g>
     </g>
     <g id="text_12">
      <!-- 40 -->
      <g transform="translate(36.6025 193.491141)scale(0.11 -0.11)">
       <use xlink:href="#DejaVuSerif-34"/>
       <use x="63.623047" xlink:href="#DejaVuSerif-30"/>
      </g>
     </g>
    </g>
    <g id="ytick_6">
     <g id="line2d_12">
      <g>
       <use style="stroke:#000000;stroke-width:0.8;" x="57.6" xlink:href="#md54ae74374" y="159.744"/>
      </g>
     </g>
     <g id="text_13">
      <!-- 50 -->
      <g transform="translate(36.6025 163.923141)scale(0.11 -0.11)">
       <use xlink:href="#DejaVuSerif-35"/>
       <use x="63.623047" xlink:href="#DejaVuSerif-30"/>
      </g>
     </g>
    </g>
    <g id="ytick_7">
     <g id="line2d_13">
      <g>
       <use style="stroke:#000000;stroke-width:0.8;" x="57.6" xlink:href="#md54ae74374" y="130.176"/>
      </g>
     </g>
     <g id="text_14">
      <!-- 60 -->
      <g transform="translate(36.6025 134.355141)scale(0.11 -0.11)">
       <defs>
        <path d="M 2094 219 
Q 2534 219 2771 542 
Q 3009 866 3009 1472 
Q 3009 2078 2771 2401 
Q 2534 2725 2094 2725 
Q 1647 2725 1412 2412 
Q 1178 2100 1178 1509 
Q 1178 888 1415 553 
Q 1653 219 2094 219 
z
M 1075 2569 
Q 1288 2803 1556 2918 
Q 1825 3034 2163 3034 
Q 2859 3034 3264 2615 
Q 3669 2197 3669 1472 
Q 3669 763 3233 336 
Q 2797 -91 2069 -91 
Q 1278 -91 853 498 
Q 428 1088 428 2181 
Q 428 3406 931 4078 
Q 1434 4750 2350 4750 
Q 2597 4750 2869 4703 
Q 3141 4656 3425 4563 
L 3425 3794 
L 3072 3794 
Q 3034 4109 2831 4275 
Q 2628 4441 2284 4441 
Q 1678 4441 1381 3981 
Q 1084 3522 1075 2569 
z
" id="DejaVuSerif-36" transform="scale(0.015625)"/>
       </defs>
       <use xlink:href="#DejaVuSerif-36"/>
       <use x="63.623047" xlink:href="#DejaVuSerif-30"/>
      </g>
     </g>
    </g>
    <g id="ytick_8">
     <g id="line2d_14">
      <g>
       <use style="stroke:#000000;stroke-width:0.8;" x="57.6" xlink:href="#md54ae74374" y="100.608"/>
      </g>
     </g>
     <g id="text_15">
      <!-- 70 -->
      <g transform="translate(36.6025 104.787141)scale(0.11 -0.11)">
       <defs>
        <path d="M 3609 4347 
L 1784 0 
L 1319 0 
L 3059 4153 
L 903 4153 
L 903 3578 
L 538 3578 
L 538 4666 
L 3609 4666 
L 3609 4347 
z
" id="DejaVuSerif-37" transform="scale(0.015625)"/>
       </defs>
       <use xlink:href="#DejaVuSerif-37"/>
       <use x="63.623047" xlink:href="#DejaVuSerif-30"/>
      </g>
     </g>
    </g>
    <g id="ytick_9">
     <g id="line2d_15">
      <g>
       <use style="stroke:#000000;stroke-width:0.8;" x="57.6" xlink:href="#md54ae74374" y="71.04"/>
      </g>
     </g>
     <g id="text_16">
      <!-- 80 -->
      <g transform="translate(36.6025 75.219141)scale(0.11 -0.11)">
       <defs>
        <path d="M 2981 1275 
Q 2981 1775 2732 2051 
Q 2484 2328 2034 2328 
Q 1584 2328 1336 2051 
Q 1088 1775 1088 1275 
Q 1088 772 1336 495 
Q 1584 219 2034 219 
Q 2484 219 2732 495 
Q 2981 772 2981 1275 
z
M 2853 3541 
Q 2853 3966 2637 4203 
Q 2422 4441 2034 4441 
Q 1650 4441 1433 4203 
Q 1216 3966 1216 3541 
Q 1216 3113 1433 2875 
Q 1650 2638 2034 2638 
Q 2422 2638 2637 2875 
Q 2853 3113 2853 3541 
z
M 2516 2484 
Q 3047 2413 3344 2092 
Q 3641 1772 3641 1275 
Q 3641 619 3225 264 
Q 2809 -91 2034 -91 
Q 1263 -91 845 264 
Q 428 619 428 1275 
Q 428 1772 725 2092 
Q 1022 2413 1556 2484 
Q 1084 2569 832 2842 
Q 581 3116 581 3541 
Q 581 4103 968 4426 
Q 1356 4750 2034 4750 
Q 2713 4750 3100 4426 
Q 3488 4103 3488 3541 
Q 3488 3116 3236 2842 
Q 2984 2569 2516 2484 
z
" id="DejaVuSerif-38" transform="scale(0.015625)"/>
       </defs>
       <use xlink:href="#DejaVuSerif-38"/>
       <use x="63.623047" xlink:href="#DejaVuSerif-30"/>
      </g>
     </g>
    </g>
    <g id="ytick_10">
     <g id="line2d_16">
      <g>
       <use style="stroke:#000000;stroke-width:0.8;" x="57.6" xlink:href="#md54ae74374" y="41.472"/>
      </g>
     </g>
     <g id="text_17">
      <!-- 90 -->
      <g transform="translate(36.6025 45.651141)scale(0.11 -0.11)">
       <defs>
        <path d="M 2994 2091 
Q 2784 1856 2512 1740 
Q 2241 1625 1900 1625 
Q 1206 1625 804 2044 
Q 403 2463 403 3188 
Q 403 3897 839 4323 
Q 1275 4750 2003 4750 
Q 2794 4750 3217 4161 
Q 3641 3572 3641 2478 
Q 3641 1253 3137 581 
Q 2634 -91 1722 -91 
Q 1475 -91 1203 -44 
Q 931 3 647 97 
L 647 872 
L 997 872 
Q 1038 556 1241 387 
Q 1444 219 1784 219 
Q 2391 219 2687 676 
Q 2984 1134 2994 2091 
z
M 1978 4441 
Q 1534 4441 1298 4117 
Q 1063 3794 1063 3188 
Q 1063 2581 1298 2256 
Q 1534 1931 1978 1931 
Q 2422 1931 2658 2245 
Q 2894 2559 2894 3150 
Q 2894 3772 2656 4106 
Q 2419 4441 1978 4441 
z
" id="DejaVuSerif-39" transform="scale(0.015625)"/>
       </defs>
       <use xlink:href="#DejaVuSerif-39"/>
       <use x="63.623047" xlink:href="#DejaVuSerif-30"/>
      </g>
     </g>
    </g>
    <g id="text_18">
     <!-- Beta [deg] -->
     <g transform="translate(30.158437 203.651359)rotate(-90)scale(0.11 -0.11)">
      <defs>
       <path d="M 1581 331 
L 2516 331 
Q 3078 331 3337 575 
Q 3597 819 3597 1350 
Q 3597 1878 3339 2120 
Q 3081 2363 2516 2363 
L 1581 2363 
L 1581 331 
z
M 1581 2694 
L 2375 2694 
Q 2888 2694 3123 2891 
Q 3359 3088 3359 3513 
Q 3359 3941 3123 4136 
Q 2888 4331 2375 4331 
L 1581 4331 
L 1581 2694 
z
M 353 0 
L 353 331 
L 947 331 
L 947 4331 
L 353 4331 
L 353 4666 
L 2656 4666 
Q 3363 4666 3720 4377 
Q 4078 4088 4078 3513 
Q 4078 3097 3829 2850 
Q 3581 2603 3103 2547 
Q 3697 2472 4005 2167 
Q 4313 1863 4313 1350 
Q 4313 656 3875 328 
Q 3438 0 2509 0 
L 353 0 
z
" id="DejaVuSerif-42" transform="scale(0.015625)"/>
      </defs>
      <use xlink:href="#DejaVuSerif-42"/>
      <use x="73.486328" xlink:href="#DejaVuSerif-65"/>
      <use x="132.666016" xlink:href="#DejaVuSerif-74"/>
      <use x="172.851562" xlink:href="#DejaVuSerif-61"/>
      <use x="232.470703" xlink:href="#DejaVuSerif-20"/>
      <use x="264.257812" xlink:href="#DejaVuSerif-5b"/>
      <use x="303.271484" xlink:href="#DejaVuSerif-64"/>
      <use x="367.285156" xlink:href="#DejaVuSerif-65"/>
      <use x="426.464844" xlink:href="#DejaVuSerif-67"/>
      <use x="490.478516" xlink:href="#DejaVuSerif-5d"/>
     </g>
    </g>
   </g>
   <g id="line2d_17">
    <path clip-path="url(#pdc9d92950c)" d="M 57.6 218.88 
L 62.953773 217.088 
L 68.195941 215.296 
L 73.330272 213.504 
L 78.360247 211.712 
L 83.289076 209.92 
L 88.119713 208.128 
L 92.854873 206.336 
L 97.497047 204.544 
L 102.048512 202.752 
L 106.511343 200.96 
L 110.887427 199.168 
L 115.178468 197.376 
L 119.385998 195.584 
L 123.511386 193.792 
L 127.555845 192 
L 131.520434 190.208 
L 135.406071 188.416 
L 139.213535 186.624 
L 142.943469 184.832 
L 146.596388 183.04 
L 150.172678 181.248 
L 153.672605 179.456 
L 157.096315 177.664 
L 160.443833 175.872 
L 163.715073 174.08 
L 166.909832 172.288 
L 170.027798 170.496 
L 173.068544 168.704 
L 176.031535 166.912 
L 178.916126 165.12 
L 181.721561 163.328 
L 184.446977 161.536 
L 187.091398 159.744 
L 189.653738 157.952 
L 192.132802 156.16 
L 194.527279 154.368 
L 196.835749 152.576 
L 199.056673 150.784 
L 201.1884 148.992 
L 203.229159 147.2 
L 205.17706 145.408 
L 207.030092 143.616 
L 208.78612 141.824 
L 210.442887 140.032 
L 211.998007 138.24 
L 213.448967 136.448 
L 214.793121 134.656 
L 216.027693 132.864 
L 217.149776 131.072 
L 218.156324 129.28 
L 219.044159 127.488 
L 219.809966 125.696 
L 220.450295 123.904 
L 220.961561 122.112 
L 221.340044 120.32 
L 221.581895 118.528 
L 221.683136 116.736 
L 221.639666 114.944 
L 221.447266 113.152 
L 221.101609 111.36 
L 220.598263 109.568 
L 219.93271 107.776 
L 219.100354 105.984 
L 218.096541 104.192 
L 216.916573 102.4 
L 215.555735 100.608 
L 214.009319 98.816 
L 212.27265 97.024 
L 210.341125 95.232 
L 208.210247 93.44 
L 205.87567 91.648 
L 203.333241 89.856 
L 200.579061 88.064 
L 197.609534 86.272 
L 194.421437 84.48 
L 191.011983 82.688 
L 187.378892 80.896 
L 183.520476 79.104 
L 179.435708 77.312 
L 175.124315 75.52 
L 170.586856 73.728 
L 165.824808 71.936 
L 160.840652 70.144 
L 155.637947 68.352 
L 150.221407 66.56 
L 144.596965 64.768 
L 138.771825 62.976 
L 132.754508 61.184 
L 126.554868 59.392 
L 120.184105 57.6 
L 113.654746 55.808 
L 106.980607 54.016 
L 100.176735 52.224 
L 93.259317 50.432 
L 86.245575 48.64 
L 79.153631 46.848 
L 72.002356 45.056 
L 64.811199 43.264 
L 57.6 41.472 
" style="fill:none;stroke:#1f77b4;stroke-linecap:square;stroke-width:1.5;"/>
   </g>
   <g id="line2d_18">
    <path clip-path="url(#pdc9d92950c)" d="M 57.6 273.47152 
L 66.371528 271.12809 
L 74.637607 268.784661 
L 82.480684 266.441231 
L 89.965872 264.097802 
L 97.145221 261.754372 
L 104.060795 259.410943 
L 110.746919 257.067513 
L 117.231847 254.724084 
L 123.539017 252.380654 
L 129.688005 250.037225 
L 135.695262 247.693795 
L 141.574689 245.350366 
L 147.338083 243.006936 
L 152.9955 240.663507 
L 158.555536 238.320077 
L 164.025558 235.976648 
L 169.411891 233.633218 
L 174.719972 231.289789 
L 179.954472 228.946359 
L 185.1194 226.60293 
L 190.218189 224.2595 
L 195.253767 221.916071 
L 200.228617 219.572641 
L 205.144823 217.229212 
L 210.004117 214.885782 
L 214.807909 212.542353 
L 219.557319 210.198923 
L 224.253201 207.855494 
L 228.896163 205.512064 
L 233.486582 203.168635 
L 238.024622 200.825205 
L 242.510241 198.481776 
L 246.943202 196.138346 
L 251.323079 193.794917 
L 255.649262 191.451487 
L 259.920959 189.108058 
L 264.137199 186.764628 
L 268.29683 184.421199 
L 272.398518 182.077769 
L 276.440745 179.73434 
L 280.421802 177.39091 
L 284.339786 175.047481 
L 288.192589 172.704051 
L 291.977893 170.360622 
L 295.693156 168.017192 
L 299.335602 165.673763 
L 302.902206 163.330333 
L 306.38968 160.986904 
L 309.794452 158.643475 
L 313.112649 156.300045 
L 316.340073 153.956616 
L 319.472178 151.613186 
L 322.504038 149.269757 
L 325.430322 146.926327 
L 328.245253 144.582898 
L 330.942575 142.239468 
L 333.515507 139.896039 
L 335.956698 137.552609 
L 338.258171 135.20918 
L 340.411267 132.86575 
L 342.406581 130.522321 
L 344.233884 128.178891 
L 345.88205 125.835462 
L 347.338963 123.492032 
L 348.591415 121.148603 
L 349.625004 118.805173 
L 350.424007 116.461744 
L 350.971246 114.118314 
L 351.247945 111.774885 
L 351.233565 109.431455 
L 350.905627 107.088026 
L 350.239525 104.744596 
L 349.208318 102.401167 
L 347.78251 100.057737 
L 345.929829 97.714308 
L 343.614985 95.370878 
L 340.799448 93.027449 
L 337.441231 90.684019 
L 333.494699 88.34059 
L 328.910449 85.99716 
L 323.635256 83.653731 
L 317.612165 81.310301 
L 310.780767 78.966872 
L 303.07773 76.623442 
L 294.437693 74.280013 
L 284.794623 71.936583 
L 274.083752 69.593154 
L 262.244239 67.249724 
L 249.222654 64.906295 
L 234.977355 62.562865 
L 219.483719 60.219436 
L 202.740067 57.876006 
L 184.773856 55.532577 
L 165.647524 53.189147 
L 145.463078 50.845718 
L 124.36438 48.502288 
L 102.536138 46.158859 
L 80.198903 43.815429 
L 57.6 41.472 
" style="fill:none;stroke:#ff7f0e;stroke-linecap:square;stroke-width:1.5;"/>
   </g>
   <g id="line2d_19">
    <path clip-path="url(#pdc9d92950c)" d="M 57.6 290.614421 
L 66.985819 288.097831 
L 75.374408 285.581241 
L 83.069628 283.06465 
L 90.262665 280.54806 
L 97.079712 278.03147 
L 103.60734 275.51488 
L 109.906852 272.99829 
L 116.022815 270.4817 
L 121.988354 267.96511 
L 127.82856 265.44852 
L 133.562738 262.93193 
L 139.205946 260.415339 
L 144.770063 257.898749 
L 150.264548 255.382159 
L 155.696991 252.865569 
L 161.073517 250.348979 
L 166.399089 247.832389 
L 171.677735 245.315799 
L 176.912726 242.799209 
L 182.106709 240.282619 
L 187.261811 237.766028 
L 192.379724 235.249438 
L 197.461773 232.732848 
L 202.508962 230.216258 
L 207.522022 227.699668 
L 212.50144 225.183078 
L 217.447489 222.666488 
L 222.360247 220.149898 
L 227.239617 217.633308 
L 232.085336 215.116717 
L 236.896991 212.600127 
L 241.674021 210.083537 
L 246.41573 207.566947 
L 251.121281 205.050357 
L 255.789709 202.533767 
L 260.419912 200.017177 
L 265.010658 197.500587 
L 269.560576 194.983997 
L 274.068158 192.467407 
L 278.53175 189.950816 
L 282.94955 187.434226 
L 287.319598 184.917636 
L 291.639769 182.401046 
L 295.907761 179.884456 
L 300.121087 177.367866 
L 304.277058 174.851276 
L 308.372775 172.334686 
L 312.405103 169.818096 
L 316.370663 167.301505 
L 320.265804 164.784915 
L 324.086581 162.268325 
L 327.828735 159.751735 
L 331.487656 157.235145 
L 335.058356 154.718555 
L 338.535432 152.201965 
L 341.913024 149.685375 
L 345.184772 147.168785 
L 348.343763 144.652194 
L 351.382474 142.135604 
L 354.292709 139.619014 
L 357.065526 137.102424 
L 359.691155 134.585834 
L 362.158905 132.069244 
L 364.457062 129.552654 
L 366.572768 127.036064 
L 368.49189 124.519474 
L 370.198867 122.002883 
L 371.676539 119.486293 
L 372.905949 116.969703 
L 373.866126 114.453113 
L 374.533831 111.936523 
L 374.883272 109.419933 
L 374.885784 106.903343 
L 374.509461 104.386753 
L 373.718752 101.870163 
L 372.474002 99.353572 
L 370.730943 96.836982 
L 368.440143 94.320392 
L 365.546404 91.803802 
L 361.988133 89.287212 
L 357.696701 86.770622 
L 352.595837 84.254032 
L 346.601104 81.737442 
L 339.619561 79.220852 
L 331.549748 76.704262 
L 322.282185 74.187671 
L 311.70067 71.671081 
L 299.684723 69.154491 
L 286.113637 66.637901 
L 270.872646 64.121311 
L 253.861703 61.604721 
L 235.007198 59.088131 
L 214.276535 56.571541 
L 191.694689 54.054951 
L 167.360804 51.53836 
L 141.461607 49.02177 
L 114.277508 46.50518 
L 86.177413 43.98859 
L 57.6 41.472 
" style="fill:none;stroke:#2ca02c;stroke-linecap:square;stroke-width:1.5;"/>
   </g>
   <g id="line2d_20">
    <path clip-path="url(#pdc9d92950c)" d="M 57.6 300.805705 
L 66.662568 298.186173 
L 74.068707 295.56664 
L 80.705884 292.947108 
L 86.922634 290.327576 
L 92.883537 287.708043 
L 98.676289 285.088511 
L 104.35178 282.468979 
L 109.941474 279.849446 
L 115.465778 277.229914 
L 120.938435 274.610381 
L 126.368969 271.990849 
L 131.764125 269.371317 
L 137.128754 266.751784 
L 142.466384 264.132252 
L 147.779583 261.51272 
L 153.070216 258.893187 
L 158.339618 256.273655 
L 163.588715 253.654122 
L 168.818113 251.03459 
L 174.028162 248.415058 
L 179.219003 245.795525 
L 184.390604 243.175993 
L 189.542784 240.556461 
L 194.675236 237.936928 
L 199.787537 235.317396 
L 204.879167 232.697863 
L 209.949506 230.078331 
L 214.99785 227.458799 
L 220.023409 224.839266 
L 225.02531 222.219734 
L 230.0026 219.600202 
L 234.954243 216.980669 
L 239.879121 214.361137 
L 244.776032 211.741604 
L 249.643683 209.122072 
L 254.480693 206.50254 
L 259.285582 203.883007 
L 264.056771 201.263475 
L 268.792572 198.643943 
L 273.491181 196.02441 
L 278.150673 193.404878 
L 282.768991 190.785345 
L 287.343937 188.165813 
L 291.873159 185.546281 
L 296.354141 182.926748 
L 300.784189 180.307216 
L 305.160415 177.687684 
L 309.479719 175.068151 
L 313.738774 172.448619 
L 317.934001 169.829086 
L 322.061548 167.209554 
L 326.117264 164.590022 
L 330.096669 161.970489 
L 333.994924 159.350957 
L 337.80679 156.731425 
L 341.526596 154.111892 
L 345.148183 151.49236 
L 348.664861 148.872827 
L 352.069349 146.253295 
L 355.353709 143.633763 
L 358.509272 141.01423 
L 361.526559 138.394698 
L 364.39518 135.775166 
L 367.103736 133.155633 
L 369.639687 130.536101 
L 371.989221 127.916568 
L 374.137093 125.297036 
L 376.066442 122.677504 
L 377.758585 120.057971 
L 379.192781 117.438439 
L 380.345957 114.818907 
L 381.192395 112.199374 
L 381.703375 109.579842 
L 381.846764 106.960309 
L 381.586548 104.340777 
L 380.882294 101.721245 
L 379.688544 99.101712 
L 377.954128 96.48218 
L 375.621398 93.862648 
L 372.625386 91.243115 
L 368.89289 88.623583 
L 364.341526 86.00405 
L 358.878783 83.384518 
L 352.401175 80.764986 
L 344.793614 78.145453 
L 335.929227 75.525921 
L 325.669921 72.906389 
L 313.868154 70.286856 
L 300.370524 67.667324 
L 285.023953 65.047791 
L 267.685369 62.428259 
L 248.23572 59.808727 
L 226.598767 57.189194 
L 202.764143 54.569662 
L 176.812483 51.95013 
L 148.938172 49.330597 
L 119.463115 46.711065 
L 88.834278 44.091532 
L 57.6 41.472 
" style="fill:none;stroke:#d62728;stroke-linecap:square;stroke-width:1.5;"/>
   </g>
   <g id="line2d_21">
    <path clip-path="url(#pdc9d92950c)" d="M 57.6 307.584 
L 61.207273 305.792 
L 64.814545 304 
L 68.421818 302.208 
L 72.029091 300.416 
L 75.636364 298.624 
L 79.243636 296.832 
L 82.850909 295.04 
L 86.458182 293.248 
L 90.065455 291.456 
L 93.672727 289.664 
L 97.28 287.872 
L 100.887273 286.08 
L 104.494545 284.288 
L 108.101818 282.496 
L 111.709091 280.704 
L 115.316364 278.912 
L 118.923636 277.12 
L 122.530909 275.328 
L 126.138182 273.536 
L 129.745455 271.744 
L 133.352727 269.952 
L 136.96 268.16 
L 140.567273 266.368 
L 144.174545 264.576 
L 147.781818 262.784 
L 151.389091 260.992 
L 154.996364 259.2 
L 158.603636 257.408 
L 162.210909 255.616 
L 165.818182 253.824 
L 169.425455 252.032 
L 173.032727 250.24 
L 176.64 248.448 
L 180.247273 246.656 
L 183.854545 244.864 
L 187.461818 243.072 
L 191.069091 241.28 
L 194.676364 239.488 
L 198.283636 237.696 
L 201.890909 235.904 
L 205.498182 234.112 
L 209.105455 232.32 
L 212.712727 230.528 
L 216.32 228.736 
L 219.927273 226.944 
L 223.534545 225.152 
L 227.141818 223.36 
L 230.749091 221.568 
L 234.356364 219.776 
L 237.963636 217.984 
L 241.570909 216.192 
L 245.178182 214.4 
L 248.785455 212.608 
L 252.392727 210.816 
L 256 209.024 
L 259.607273 207.232 
L 263.214545 205.44 
L 266.821818 203.648 
L 270.429091 201.856 
L 274.036364 200.064 
L 277.643636 198.272 
L 281.250909 196.48 
L 284.858182 194.688 
L 288.465455 192.896 
L 292.072727 191.104 
L 295.68 189.312 
L 299.287273 187.52 
L 302.894545 185.728 
L 306.501818 183.936 
L 310.109091 182.144 
L 313.716364 180.352 
L 317.323636 178.56 
L 320.930909 176.768 
L 324.538182 174.976 
L 328.145455 173.184 
L 331.752727 171.392 
L 335.36 169.6 
L 338.967273 167.808 
L 342.574545 166.016 
L 346.181818 164.224 
L 349.789091 162.432 
L 353.396364 160.64 
L 357.003636 158.848 
L 360.610909 157.056 
L 364.218182 155.264 
L 367.825455 153.472 
L 371.432727 151.68 
L 375.04 149.888 
L 378.647273 148.096 
L 382.254545 146.304 
L 385.861818 144.512 
L 389.469091 142.72 
L 393.076364 140.928 
L 396.683636 139.136 
L 400.290909 137.344 
L 403.898182 135.552 
L 407.505455 133.76 
L 411.112727 131.968 
L 414.72 130.176 
" style="fill:none;stroke:#9467bd;stroke-dasharray:9.6,2.4,1.5,2.4;stroke-dashoffset:0;stroke-width:1.5;"/>
   </g>
   <g id="patch_3">
    <path d="M 57.6 307.584 
L 57.6 41.472 
" style="fill:none;stroke:#000000;stroke-linecap:square;stroke-linejoin:miter;stroke-width:0.8;"/>
   </g>
   <g id="patch_4">
    <path d="M 414.72 307.584 
L 414.72 41.472 
" style="fill:none;stroke:#000000;stroke-linecap:square;stroke-linejoin:miter;stroke-width:0.8;"/>
   </g>
   <g id="patch_5">
    <path d="M 57.6 307.584 
L 414.72 307.584 
" style="fill:none;stroke:#000000;stroke-linecap:square;stroke-linejoin:miter;stroke-width:0.8;"/>
   </g>
   <g id="patch_6">
    <path d="M 57.6 41.472 
L 414.72 41.472 
" style="fill:none;stroke:#000000;stroke-linecap:square;stroke-linejoin:miter;stroke-width:0.8;"/>
   </g>
   <g id="text_19">
    <!-- Theta - Beta -Mach chart -->
    <g transform="translate(152.4885 35.472)scale(0.132 -0.132)">
     <defs>
      <path d="M 281 1959 
L 1881 1959 
L 1881 1472 
L 281 1472 
L 281 1959 
z
" id="DejaVuSerif-2d" transform="scale(0.015625)"/>
      <path d="M 353 0 
L 353 331 
L 947 331 
L 947 4331 
L 319 4331 
L 319 4666 
L 1678 4666 
L 3316 1344 
L 4953 4666 
L 6228 4666 
L 6228 4331 
L 5606 4331 
L 5606 331 
L 6203 331 
L 6203 0 
L 4378 0 
L 4378 331 
L 4972 331 
L 4972 3938 
L 3372 684 
L 2931 684 
L 1331 3938 
L 1331 331 
L 1925 331 
L 1925 0 
L 353 0 
z
" id="DejaVuSerif-4d" transform="scale(0.015625)"/>
      <path d="M 3291 997 
Q 3169 466 2822 187 
Q 2475 -91 1925 -91 
Q 1200 -91 759 389 
Q 319 869 319 1663 
Q 319 2459 759 2936 
Q 1200 3413 1925 3413 
Q 2241 3413 2553 3339 
Q 2866 3266 3181 3116 
L 3181 2266 
L 2847 2266 
Q 2781 2703 2561 2903 
Q 2341 3103 1931 3103 
Q 1466 3103 1228 2742 
Q 991 2381 991 1663 
Q 991 944 1227 581 
Q 1463 219 1931 219 
Q 2303 219 2525 412 
Q 2747 606 2828 997 
L 3291 997 
z
" id="DejaVuSerif-63" transform="scale(0.015625)"/>
      <path d="M 3059 3328 
L 3059 2497 
L 2728 2497 
Q 2713 2744 2591 2866 
Q 2469 2988 2234 2988 
Q 1809 2988 1582 2694 
Q 1356 2400 1356 1850 
L 1356 331 
L 2022 331 
L 2022 0 
L 263 0 
L 263 331 
L 781 331 
L 781 2994 
L 231 2994 
L 231 3322 
L 1356 3322 
L 1356 2731 
Q 1525 3078 1790 3245 
Q 2056 3413 2438 3413 
Q 2578 3413 2733 3391 
Q 2888 3369 3059 3328 
z
" id="DejaVuSerif-72" transform="scale(0.015625)"/>
     </defs>
     <use xlink:href="#DejaVuSerif-54"/>
     <use x="66.699219" xlink:href="#DejaVuSerif-68"/>
     <use x="131.103516" xlink:href="#DejaVuSerif-65"/>
     <use x="190.283203" xlink:href="#DejaVuSerif-74"/>
     <use x="230.46875" xlink:href="#DejaVuSerif-61"/>
     <use x="290.087891" xlink:href="#DejaVuSerif-20"/>
     <use x="321.875" xlink:href="#DejaVuSerif-2d"/>
     <use x="355.664062" xlink:href="#DejaVuSerif-20"/>
     <use x="387.451172" xlink:href="#DejaVuSerif-42"/>
     <use x="460.9375" xlink:href="#DejaVuSerif-65"/>
     <use x="520.117188" xlink:href="#DejaVuSerif-74"/>
     <use x="560.302734" xlink:href="#DejaVuSerif-61"/>
     <use x="619.921875" xlink:href="#DejaVuSerif-20"/>
     <use x="651.708984" xlink:href="#DejaVuSerif-2d"/>
     <use x="685.498047" xlink:href="#DejaVuSerif-4d"/>
     <use x="787.890625" xlink:href="#DejaVuSerif-61"/>
     <use x="847.509766" xlink:href="#DejaVuSerif-63"/>
     <use x="903.515625" xlink:href="#DejaVuSerif-68"/>
     <use x="967.919922" xlink:href="#DejaVuSerif-20"/>
     <use x="999.707031" xlink:href="#DejaVuSerif-63"/>
     <use x="1055.712891" xlink:href="#DejaVuSerif-68"/>
     <use x="1120.117188" xlink:href="#DejaVuSerif-61"/>
     <use x="1179.736328" xlink:href="#DejaVuSerif-72"/>
     <use x="1227.539062" xlink:href="#DejaVuSerif-74"/>
    </g>
   </g>
   <g id="legend_1">
    <g id="patch_7">
     <path d="M 275.484062 302.084 
L 407.02 302.084 
Q 409.22 302.084 409.22 299.884 
L 409.22 220.097906 
Q 409.22 217.897906 407.02 217.897906 
L 275.484062 217.897906 
Q 273.284063 217.897906 273.284063 220.097906 
L 273.284063 299.884 
Q 273.284063 302.084 275.484062 302.084 
z
" style="fill:#ffffff;opacity:0.8;stroke:#cccccc;stroke-linejoin:miter;"/>
    </g>
    <g id="line2d_22">
     <path d="M 277.684062 226.806187 
L 299.684062 226.806187 
" style="fill:none;stroke:#1f77b4;stroke-linecap:square;stroke-width:1.5;"/>
    </g>
    <g id="line2d_23"/>
    <g id="text_20">
     <!-- Mach = 2 -->
     <g transform="translate(308.484062 230.656187)scale(0.11 -0.11)">
      <defs>
       <path d="M 678 2894 
L 4684 2894 
L 4684 2394 
L 678 2394 
L 678 2894 
z
M 678 1619 
L 4684 1619 
L 4684 1119 
L 678 1119 
L 678 1619 
z
" id="DejaVuSerif-3d" transform="scale(0.015625)"/>
      </defs>
      <use xlink:href="#DejaVuSerif-4d"/>
      <use x="102.392578" xlink:href="#DejaVuSerif-61"/>
      <use x="162.011719" xlink:href="#DejaVuSerif-63"/>
      <use x="218.017578" xlink:href="#DejaVuSerif-68"/>
      <use x="282.421875" xlink:href="#DejaVuSerif-20"/>
      <use x="314.208984" xlink:href="#DejaVuSerif-3d"/>
      <use x="397.998047" xlink:href="#DejaVuSerif-20"/>
      <use x="429.785156" xlink:href="#DejaVuSerif-32"/>
     </g>
    </g>
    <g id="line2d_24">
     <path d="M 277.684062 242.952125 
L 299.684062 242.952125 
" style="fill:none;stroke:#ff7f0e;stroke-linecap:square;stroke-width:1.5;"/>
    </g>
    <g id="line2d_25"/>
    <g id="text_21">
     <!-- Mach = 5 -->
     <g transform="translate(308.484062 246.802125)scale(0.11 -0.11)">
      <use xlink:href="#DejaVuSerif-4d"/>
      <use x="102.392578" xlink:href="#DejaVuSerif-61"/>
      <use x="162.011719" xlink:href="#DejaVuSerif-63"/>
      <use x="218.017578" xlink:href="#DejaVuSerif-68"/>
      <use x="282.421875" xlink:href="#DejaVuSerif-20"/>
      <use x="314.208984" xlink:href="#DejaVuSerif-3d"/>
      <use x="397.998047" xlink:href="#DejaVuSerif-20"/>
      <use x="429.785156" xlink:href="#DejaVuSerif-35"/>
     </g>
    </g>
    <g id="line2d_26">
     <path d="M 277.684062 259.098062 
L 299.684062 259.098062 
" style="fill:none;stroke:#2ca02c;stroke-linecap:square;stroke-width:1.5;"/>
    </g>
    <g id="line2d_27"/>
    <g id="text_22">
     <!-- Mach = 10 -->
     <g transform="translate(308.484062 262.948062)scale(0.11 -0.11)">
      <use xlink:href="#DejaVuSerif-4d"/>
      <use x="102.392578" xlink:href="#DejaVuSerif-61"/>
      <use x="162.011719" xlink:href="#DejaVuSerif-63"/>
      <use x="218.017578" xlink:href="#DejaVuSerif-68"/>
      <use x="282.421875" xlink:href="#DejaVuSerif-20"/>
      <use x="314.208984" xlink:href="#DejaVuSerif-3d"/>
      <use x="397.998047" xlink:href="#DejaVuSerif-20"/>
      <use x="429.785156" xlink:href="#DejaVuSerif-31"/>
      <use x="493.408203" xlink:href="#DejaVuSerif-30"/>
     </g>
    </g>
    <g id="line2d_28">
     <path d="M 277.684062 275.244 
L 299.684062 275.244 
" style="fill:none;stroke:#d62728;stroke-linecap:square;stroke-width:1.5;"/>
    </g>
    <g id="line2d_29"/>
    <g id="text_23">
     <!-- Mach = 25 -->
     <g transform="translate(308.484062 279.094)scale(0.11 -0.11)">
      <use xlink:href="#DejaVuSerif-4d"/>
      <use x="102.392578" xlink:href="#DejaVuSerif-61"/>
      <use x="162.011719" xlink:href="#DejaVuSerif-63"/>
      <use x="218.017578" xlink:href="#DejaVuSerif-68"/>
      <use x="282.421875" xlink:href="#DejaVuSerif-20"/>
      <use x="314.208984" xlink:href="#DejaVuSerif-3d"/>
      <use x="397.998047" xlink:href="#DejaVuSerif-20"/>
      <use x="429.785156" xlink:href="#DejaVuSerif-32"/>
      <use x="493.408203" xlink:href="#DejaVuSerif-35"/>
     </g>
    </g>
    <g id="line2d_30">
     <path d="M 277.684062 291.389937 
L 299.684062 291.389937 
" style="fill:none;stroke:#9467bd;stroke-dasharray:9.6,2.4,1.5,2.4;stroke-dashoffset:0;stroke-width:1.5;"/>
    </g>
    <g id="line2d_31"/>
    <g id="text_24">
     <!-- Hypersonic Limit -->
     <g transform="translate(308.484062 295.239937)scale(0.11 -0.11)">
      <defs>
       <path d="M 353 0 
L 353 331 
L 947 331 
L 947 4331 
L 353 4331 
L 353 4666 
L 2175 4666 
L 2175 4331 
L 1581 4331 
L 1581 2719 
L 4000 2719 
L 4000 4331 
L 3406 4331 
L 3406 4666 
L 5228 4666 
L 5228 4331 
L 4634 4331 
L 4634 331 
L 5228 331 
L 5228 0 
L 3406 0 
L 3406 331 
L 4000 331 
L 4000 2338 
L 1581 2338 
L 1581 331 
L 2175 331 
L 2175 0 
L 353 0 
z
" id="DejaVuSerif-48" transform="scale(0.015625)"/>
       <path d="M 1381 -609 
L 1600 -56 
L 359 2988 
L -19 2988 
L -19 3322 
L 1509 3322 
L 1509 2988 
L 978 2988 
L 1913 703 
L 2847 2988 
L 2350 2988 
L 2350 3322 
L 3597 3322 
L 3597 2988 
L 3225 2988 
L 1703 -750 
Q 1547 -1138 1356 -1280 
Q 1166 -1422 819 -1422 
Q 672 -1422 517 -1397 
Q 363 -1372 206 -1325 
L 206 -691 
L 500 -691 
Q 519 -903 608 -995 
Q 697 -1088 884 -1088 
Q 1056 -1088 1161 -992 
Q 1266 -897 1381 -609 
z
" id="DejaVuSerif-79" transform="scale(0.015625)"/>
       <path d="M 1313 1825 
L 1313 1497 
Q 1313 897 1542 583 
Q 1772 269 2209 269 
Q 2650 269 2876 622 
Q 3103 975 3103 1663 
Q 3103 2353 2876 2703 
Q 2650 3053 2209 3053 
Q 1772 3053 1542 2737 
Q 1313 2422 1313 1825 
z
M 738 2988 
L 184 2988 
L 184 3322 
L 1313 3322 
L 1313 2803 
Q 1481 3116 1742 3264 
Q 2003 3413 2388 3413 
Q 3000 3413 3387 2928 
Q 3775 2444 3775 1663 
Q 3775 881 3387 395 
Q 3000 -91 2388 -91 
Q 2003 -91 1742 57 
Q 1481 206 1313 519 
L 1313 -997 
L 1856 -997 
L 1856 -1331 
L 184 -1331 
L 184 -997 
L 738 -997 
L 738 2988 
z
" id="DejaVuSerif-70" transform="scale(0.015625)"/>
       <path d="M 359 184 
L 359 959 
L 691 959 
Q 703 588 923 403 
Q 1144 219 1575 219 
Q 1963 219 2166 364 
Q 2369 509 2369 788 
Q 2369 1006 2220 1140 
Q 2072 1275 1594 1428 
L 1178 1569 
Q 750 1706 558 1912 
Q 366 2119 366 2438 
Q 366 2894 700 3153 
Q 1034 3413 1625 3413 
Q 1888 3413 2178 3344 
Q 2469 3275 2778 3144 
L 2778 2419 
L 2447 2419 
Q 2434 2741 2221 2922 
Q 2009 3103 1644 3103 
Q 1281 3103 1095 2975 
Q 909 2847 909 2591 
Q 909 2381 1050 2254 
Q 1191 2128 1613 1997 
L 2069 1856 
Q 2541 1709 2748 1489 
Q 2956 1269 2956 922 
Q 2956 450 2595 179 
Q 2234 -91 1600 -91 
Q 1278 -91 972 -22 
Q 666 47 359 184 
z
" id="DejaVuSerif-73" transform="scale(0.015625)"/>
       <path d="M 1925 219 
Q 2388 219 2623 584 
Q 2859 950 2859 1663 
Q 2859 2375 2623 2739 
Q 2388 3103 1925 3103 
Q 1463 3103 1227 2739 
Q 991 2375 991 1663 
Q 991 950 1228 584 
Q 1466 219 1925 219 
z
M 1925 -91 
Q 1200 -91 759 389 
Q 319 869 319 1663 
Q 319 2456 758 2934 
Q 1197 3413 1925 3413 
Q 2653 3413 3092 2934 
Q 3531 2456 3531 1663 
Q 3531 869 3092 389 
Q 2653 -91 1925 -91 
z
" id="DejaVuSerif-6f" transform="scale(0.015625)"/>
       <path d="M 263 0 
L 263 331 
L 781 331 
L 781 2988 
L 231 2988 
L 231 3322 
L 1356 3322 
L 1356 2731 
Q 1516 3069 1770 3241 
Q 2025 3413 2363 3413 
Q 2913 3413 3172 3097 
Q 3431 2781 3431 2113 
L 3431 331 
L 3944 331 
L 3944 0 
L 2356 0 
L 2356 331 
L 2853 331 
L 2853 1931 
Q 2853 2541 2703 2767 
Q 2553 2994 2175 2994 
Q 1775 2994 1565 2701 
Q 1356 2409 1356 1850 
L 1356 331 
L 1856 331 
L 1856 0 
L 263 0 
z
" id="DejaVuSerif-6e" transform="scale(0.015625)"/>
       <path d="M 622 4353 
Q 622 4497 726 4603 
Q 831 4709 978 4709 
Q 1122 4709 1226 4603 
Q 1331 4497 1331 4353 
Q 1331 4206 1228 4103 
Q 1125 4000 978 4000 
Q 831 4000 726 4103 
Q 622 4206 622 4353 
z
M 1356 331 
L 1900 331 
L 1900 0 
L 231 0 
L 231 331 
L 781 331 
L 781 2988 
L 231 2988 
L 231 3322 
L 1356 3322 
L 1356 331 
z
" id="DejaVuSerif-69" transform="scale(0.015625)"/>
       <path d="M 353 0 
L 353 331 
L 947 331 
L 947 4331 
L 353 4331 
L 353 4666 
L 2175 4666 
L 2175 4331 
L 1581 4331 
L 1581 384 
L 3713 384 
L 3713 1166 
L 4097 1166 
L 4097 0 
L 353 0 
z
" id="DejaVuSerif-4c" transform="scale(0.015625)"/>
       <path d="M 3316 2675 
Q 3481 3041 3739 3227 
Q 3997 3413 4341 3413 
Q 4863 3413 5119 3089 
Q 5375 2766 5375 2113 
L 5375 331 
L 5894 331 
L 5894 0 
L 4300 0 
L 4300 331 
L 4800 331 
L 4800 2047 
Q 4800 2556 4650 2772 
Q 4500 2988 4153 2988 
Q 3769 2988 3567 2697 
Q 3366 2406 3366 1850 
L 3366 331 
L 3866 331 
L 3866 0 
L 2291 0 
L 2291 331 
L 2791 331 
L 2791 2069 
Q 2791 2566 2641 2777 
Q 2491 2988 2144 2988 
Q 1759 2988 1557 2697 
Q 1356 2406 1356 1850 
L 1356 331 
L 1856 331 
L 1856 0 
L 263 0 
L 263 331 
L 781 331 
L 781 2994 
L 231 2994 
L 231 3322 
L 1356 3322 
L 1356 2731 
Q 1516 3063 1762 3238 
Q 2009 3413 2322 3413 
Q 2709 3413 2968 3220 
Q 3228 3028 3316 2675 
z
" id="DejaVuSerif-6d" transform="scale(0.015625)"/>
      </defs>
      <use xlink:href="#DejaVuSerif-48"/>
      <use x="87.207031" xlink:href="#DejaVuSerif-79"/>
      <use x="143.701172" xlink:href="#DejaVuSerif-70"/>
      <use x="207.714844" xlink:href="#DejaVuSerif-65"/>
      <use x="266.894531" xlink:href="#DejaVuSerif-72"/>
      <use x="314.697266" xlink:href="#DejaVuSerif-73"/>
      <use x="366.015625" xlink:href="#DejaVuSerif-6f"/>
      <use x="426.220703" xlink:href="#DejaVuSerif-6e"/>
      <use x="490.625" xlink:href="#DejaVuSerif-69"/>
      <use x="522.607422" xlink:href="#DejaVuSerif-63"/>
      <use x="578.613281" xlink:href="#DejaVuSerif-20"/>
      <use x="610.400391" xlink:href="#DejaVuSerif-4c"/>
      <use x="676.806641" xlink:href="#DejaVuSerif-69"/>
      <use x="708.789062" xlink:href="#DejaVuSerif-6d"/>
      <use x="803.613281" xlink:href="#DejaVuSerif-69"/>
      <use x="835.595703" xlink:href="#DejaVuSerif-74"/>
     </g>
    </g>
   </g>
  </g>
 </g>
 <defs>
  <clipPath id="pdc9d92950c">
   <rect height="266.112" width="357.12" x="57.6" y="41.472"/>
  </clipPath>
 </defs>
</svg>
