<?xml version="1.0" encoding="utf-8" standalone="no"?>
<!DOCTYPE svg PUBLIC "-//W3C//DTD SVG 1.1//EN"
  "http://www.w3.org/Graphics/SVG/1.1/DTD/svg11.dtd">
<svg height="345.6pt" version="1.1" viewBox="0 0 460.8 345.6" width="460.8pt" xmlns="http://www.w3.org/2000/svg" xmlns:xlink="http://www.w3.org/1999/xlink">
 <metadata>
  <rdf:RDF xmlns:cc="http://creativecommons.org/ns#" xmlns:dc="http://purl.org/dc/elements/1.1/" xmlns:rdf="http://www.w3.org/1999/02/22-rdf-syntax-ns#">
   <cc:Work>
    <dc:type rdf:resource="http://purl.org/dc/dcmitype/StillImage"/>
    <dc:date>2021-10-20T23:32:27.717358</dc:date>
    <dc:format>image/svg+xml</dc:format>
    <dc:creator>
     <cc:Agent>
      <dc:title>Matplotlib v3.4.2, https://matplotlib.org/</dc:title>
     </cc:Agent>
    </dc:creator>
   </cc:Work>
  </rdf:RDF>
 </metadata>
 <defs>
  <style type="text/css">*{stroke-linecap:butt;stroke-linejoin:round;}</style>
 </defs>
 <g id="figure_1">
  <g id="patch_1">
   <path d="M 0 345.6 
L 460.8 345.6 
L 460.8 0 
L 0 0 
z
" style="fill:#ffffff;"/>
  </g>
  <g id="axes_1">
   <g id="patch_2">
    <path d="M 57.6 307.584 
L 414.72 307.584 
L 414.72 41.472 
L 57.6 41.472 
z
" style="fill:#ffffff;"/>
   </g>
   <g id="matplotlib.axis_1">
    <g id="xtick_1">
     <g id="line2d_1">
      <defs>
       <path d="M 0 0 
L 0 3.5 
" id="mfe5e5b25f2" style="stroke:#000000;stroke-width:0.8;"/>
      </defs>
      <g>
       <use style="stroke:#000000;stroke-width:0.8;" x="57.6" xlink:href="#mfe5e5b25f2" y="307.584"/>
      </g>
     </g>
     <g id="text_1">
      <!-- 0 -->
      <g transform="translate(54.100625 322.942281)scale(0.11 -0.11)">
       <defs>
        <path d="M 2034 219 
Q 2513 219 2750 744 
Q 2988 1269 2988 2328 
Q 2988 3391 2750 3916 
Q 2513 4441 2034 4441 
Q 1556 4441 1318 3916 
Q 1081 3391 1081 2328 
Q 1081 1269 1318 744 
Q 1556 219 2034 219 
z
M 2034 -91 
Q 1275 -91 848 546 
Q 422 1184 422 2328 
Q 422 3475 848 4112 
Q 1275 4750 2034 4750 
Q 2797 4750 3222 4112 
Q 3647 3475 3647 2328 
Q 3647 1184 3222 546 
Q 2797 -91 2034 -91 
z
" id="DejaVuSerif-30" transform="scale(0.015625)"/>
       </defs>
       <use xlink:href="#DejaVuSerif-30"/>
      </g>
     </g>
    </g>
    <g id="xtick_2">
     <g id="line2d_2">
      <g>
       <use style="stroke:#000000;stroke-width:0.8;" x="108.617143" xlink:href="#mfe5e5b25f2" y="307.584"/>
      </g>
     </g>
     <g id="text_2">
      <!-- 10 -->
      <g transform="translate(101.618393 322.942281)scale(0.11 -0.11)">
       <defs>
        <path d="M 909 0 
L 909 331 
L 1722 331 
L 1722 4213 
L 781 3603 
L 781 4013 
L 1919 4750 
L 2350 4750 
L 2350 331 
L 3163 331 
L 3163 0 
L 909 0 
z
" id="DejaVuSerif-31" transform="scale(0.015625)"/>
       </defs>
       <use xlink:href="#DejaVuSerif-31"/>
       <use x="63.623047" xlink:href="#DejaVuSerif-30"/>
      </g>
     </g>
    </g>
    <g id="xtick_3">
     <g id="line2d_3">
      <g>
       <use style="stroke:#000000;stroke-width:0.8;" x="159.634286" xlink:href="#mfe5e5b25f2" y="307.584"/>
      </g>
     </g>
     <g id="text_3">
      <!-- 20 -->
      <g transform="translate(152.635536 322.942281)scale(0.11 -0.11)">
       <defs>
        <path d="M 819 3553 
L 469 3553 
L 469 4384 
Q 803 4563 1142 4656 
Q 1481 4750 1806 4750 
Q 2534 4750 2956 4397 
Q 3378 4044 3378 3438 
Q 3378 2753 2422 1800 
Q 2347 1728 2309 1691 
L 1131 513 
L 3078 513 
L 3078 1088 
L 3444 1088 
L 3444 0 
L 434 0 
L 434 341 
L 1850 1753 
Q 2319 2222 2519 2614 
Q 2719 3006 2719 3438 
Q 2719 3909 2473 4175 
Q 2228 4441 1797 4441 
Q 1350 4441 1106 4219 
Q 863 3997 819 3553 
z
" id="DejaVuSerif-32" transform="scale(0.015625)"/>
       </defs>
       <use xlink:href="#DejaVuSerif-32"/>
       <use x="63.623047" xlink:href="#DejaVuSerif-30"/>
      </g>
     </g>
    </g>
    <g id="xtick_4">
     <g id="line2d_4">
      <g>
       <use style="stroke:#000000;stroke-width:0.8;" x="210.651429" xlink:href="#mfe5e5b25f2" y="307.584"/>
      </g>
     </g>
     <g id="text_4">
      <!-- 30 -->
      <g transform="translate(203.652679 322.942281)scale(0.11 -0.11)">
       <defs>
        <path d="M 622 4469 
Q 988 4606 1323 4678 
Q 1659 4750 1953 4750 
Q 2638 4750 3022 4454 
Q 3406 4159 3406 3634 
Q 3406 3213 3140 2930 
Q 2875 2647 2388 2547 
Q 2963 2466 3280 2130 
Q 3597 1794 3597 1259 
Q 3597 606 3158 257 
Q 2719 -91 1894 -91 
Q 1528 -91 1179 -12 
Q 831 66 488 225 
L 488 1131 
L 838 1131 
Q 869 681 1141 450 
Q 1413 219 1906 219 
Q 2384 219 2661 495 
Q 2938 772 2938 1253 
Q 2938 1803 2653 2086 
Q 2369 2369 1819 2369 
L 1522 2369 
L 1522 2688 
L 1678 2688 
Q 2225 2688 2498 2914 
Q 2772 3141 2772 3597 
Q 2772 4006 2547 4223 
Q 2322 4441 1900 4441 
Q 1478 4441 1245 4241 
Q 1013 4041 972 3647 
L 622 3647 
L 622 4469 
z
" id="DejaVuSerif-33" transform="scale(0.015625)"/>
       </defs>
       <use xlink:href="#DejaVuSerif-33"/>
       <use x="63.623047" xlink:href="#DejaVuSerif-30"/>
      </g>
     </g>
    </g>
    <g id="xtick_5">
     <g id="line2d_5">
      <g>
       <use style="stroke:#000000;stroke-width:0.8;" x="261.668571" xlink:href="#mfe5e5b25f2" y="307.584"/>
      </g>
     </g>
     <g id="text_5">
      <!-- 40 -->
      <g transform="translate(254.669821 322.942281)scale(0.11 -0.11)">
       <defs>
        <path d="M 2234 1581 
L 2234 4063 
L 641 1581 
L 2234 1581 
z
M 3609 0 
L 1484 0 
L 1484 331 
L 2234 331 
L 2234 1247 
L 197 1247 
L 197 1588 
L 2241 4750 
L 2859 4750 
L 2859 1581 
L 3750 1581 
L 3750 1247 
L 2859 1247 
L 2859 331 
L 3609 331 
L 3609 0 
z
" id="DejaVuSerif-34" transform="scale(0.015625)"/>
       </defs>
       <use xlink:href="#DejaVuSerif-34"/>
       <use x="63.623047" xlink:href="#DejaVuSerif-30"/>
      </g>
     </g>
    </g>
    <g id="xtick_6">
     <g id="line2d_6">
      <g>
       <use style="stroke:#000000;stroke-width:0.8;" x="312.685714" xlink:href="#mfe5e5b25f2" y="307.584"/>
      </g>
     </g>
     <g id="text_6">
      <!-- 50 -->
      <g transform="translate(305.686964 322.942281)scale(0.11 -0.11)">
       <defs>
        <path d="M 3219 4666 
L 3219 4153 
L 1081 4153 
L 1081 2816 
Q 1244 2928 1461 2984 
Q 1678 3041 1947 3041 
Q 2703 3041 3140 2622 
Q 3578 2203 3578 1478 
Q 3578 738 3136 323 
Q 2694 -91 1894 -91 
Q 1572 -91 1234 -12 
Q 897 66 544 225 
L 544 1131 
L 897 1131 
Q 925 688 1179 453 
Q 1434 219 1894 219 
Q 2388 219 2653 544 
Q 2919 869 2919 1478 
Q 2919 2084 2655 2407 
Q 2391 2731 1894 2731 
Q 1613 2731 1398 2631 
Q 1184 2531 1019 2322 
L 750 2322 
L 750 4666 
L 3219 4666 
z
" id="DejaVuSerif-35" transform="scale(0.015625)"/>
       </defs>
       <use xlink:href="#DejaVuSerif-35"/>
       <use x="63.623047" xlink:href="#DejaVuSerif-30"/>
      </g>
     </g>
    </g>
    <g id="xtick_7">
     <g id="line2d_7">
      <g>
       <use style="stroke:#000000;stroke-width:0.8;" x="363.702857" xlink:href="#mfe5e5b25f2" y="307.584"/>
      </g>
     </g>
     <g id="text_7">
      <!-- 60 -->
      <g transform="translate(356.704107 322.942281)scale(0.11 -0.11)">
       <defs>
        <path d="M 2094 219 
Q 2534 219 2771 542 
Q 3009 866 3009 1472 
Q 3009 2078 2771 2401 
Q 2534 2725 2094 2725 
Q 1647 2725 1412 2412 
Q 1178 2100 1178 1509 
Q 1178 888 1415 553 
Q 1653 219 2094 219 
z
M 1075 2569 
Q 1288 2803 1556 2918 
Q 1825 3034 2163 3034 
Q 2859 3034 3264 2615 
Q 3669 2197 3669 1472 
Q 3669 763 3233 336 
Q 2797 -91 2069 -91 
Q 1278 -91 853 498 
Q 428 1088 428 2181 
Q 428 3406 931 4078 
Q 1434 4750 2350 4750 
Q 2597 4750 2869 4703 
Q 3141 4656 3425 4563 
L 3425 3794 
L 3072 3794 
Q 3034 4109 2831 4275 
Q 2628 4441 2284 4441 
Q 1678 4441 1381 3981 
Q 1084 3522 1075 2569 
z
" id="DejaVuSerif-36" transform="scale(0.015625)"/>
       </defs>
       <use xlink:href="#DejaVuSerif-36"/>
       <use x="63.623047" xlink:href="#DejaVuSerif-30"/>
      </g>
     </g>
    </g>
    <g id="xtick_8">
     <g id="line2d_8">
      <g>
       <use style="stroke:#000000;stroke-width:0.8;" x="414.72" xlink:href="#mfe5e5b25f2" y="307.584"/>
      </g>
     </g>
     <g id="text_8">
      <!-- 70 -->
      <g transform="translate(407.72125 322.942281)scale(0.11 -0.11)">
       <defs>
        <path d="M 3609 4347 
L 1784 0 
L 1319 0 
L 3059 4153 
L 903 4153 
L 903 3578 
L 538 3578 
L 538 4666 
L 3609 4666 
L 3609 4347 
z
" id="DejaVuSerif-37" transform="scale(0.015625)"/>
       </defs>
       <use xlink:href="#DejaVuSerif-37"/>
       <use x="63.623047" xlink:href="#DejaVuSerif-30"/>
      </g>
     </g>
    </g>
    <g id="text_9">
     <!-- Theta [deg] -->
     <g transform="translate(203.867266 337.588219)scale(0.11 -0.11)">
      <defs>
       <path d="M 1222 0 
L 1222 331 
L 1819 331 
L 1819 4294 
L 447 4294 
L 447 3566 
L 63 3566 
L 63 4666 
L 4206 4666 
L 4206 3566 
L 3822 3566 
L 3822 4294 
L 2450 4294 
L 2450 331 
L 3047 331 
L 3047 0 
L 1222 0 
z
" id="DejaVuSerif-54" transform="scale(0.015625)"/>
       <path d="M 263 0 
L 263 331 
L 781 331 
L 781 4531 
L 231 4531 
L 231 4863 
L 1356 4863 
L 1356 2731 
Q 1516 3069 1770 3241 
Q 2025 3413 2363 3413 
Q 2913 3413 3172 3097 
Q 3431 2781 3431 2113 
L 3431 331 
L 3944 331 
L 3944 0 
L 2356 0 
L 2356 331 
L 2853 331 
L 2853 1931 
Q 2853 2541 2704 2764 
Q 2556 2988 2175 2988 
Q 1775 2988 1565 2697 
Q 1356 2406 1356 1850 
L 1356 331 
L 1856 331 
L 1856 0 
L 263 0 
z
" id="DejaVuSerif-68" transform="scale(0.015625)"/>
       <path d="M 3469 1600 
L 991 1600 
L 991 1575 
Q 991 903 1244 561 
Q 1497 219 1991 219 
Q 2369 219 2611 417 
Q 2853 616 2950 1006 
L 3413 1006 
Q 3275 459 2904 184 
Q 2534 -91 1931 -91 
Q 1203 -91 761 389 
Q 319 869 319 1663 
Q 319 2450 753 2931 
Q 1188 3413 1894 3413 
Q 2647 3413 3050 2948 
Q 3453 2484 3469 1600 
z
M 2791 1931 
Q 2772 2513 2545 2808 
Q 2319 3103 1894 3103 
Q 1497 3103 1269 2806 
Q 1041 2509 991 1931 
L 2791 1931 
z
" id="DejaVuSerif-65" transform="scale(0.015625)"/>
       <path d="M 691 2988 
L 184 2988 
L 184 3322 
L 691 3322 
L 691 4353 
L 1269 4353 
L 1269 3322 
L 2350 3322 
L 2350 2988 
L 1269 2988 
L 1269 878 
Q 1269 456 1350 337 
Q 1431 219 1650 219 
Q 1875 219 1978 351 
Q 2081 484 2088 781 
L 2522 781 
Q 2497 328 2275 118 
Q 2053 -91 1600 -91 
Q 1103 -91 897 129 
Q 691 350 691 878 
L 691 2988 
z
" id="DejaVuSerif-74" transform="scale(0.015625)"/>
       <path d="M 2547 1044 
L 2547 1747 
L 1806 1747 
Q 1378 1747 1168 1562 
Q 959 1378 959 997 
Q 959 650 1171 447 
Q 1384 244 1747 244 
Q 2106 244 2326 466 
Q 2547 688 2547 1044 
z
M 3122 2075 
L 3122 331 
L 3634 331 
L 3634 0 
L 2547 0 
L 2547 359 
Q 2356 128 2106 18 
Q 1856 -91 1522 -91 
Q 969 -91 644 203 
Q 319 497 319 997 
Q 319 1513 691 1797 
Q 1063 2081 1741 2081 
L 2547 2081 
L 2547 2309 
Q 2547 2688 2317 2895 
Q 2088 3103 1672 3103 
Q 1328 3103 1125 2947 
Q 922 2791 872 2484 
L 575 2484 
L 575 3156 
Q 875 3284 1158 3348 
Q 1441 3413 1709 3413 
Q 2400 3413 2761 3070 
Q 3122 2728 3122 2075 
z
" id="DejaVuSerif-61" transform="scale(0.015625)"/>
       <path id="DejaVuSerif-20" transform="scale(0.015625)"/>
       <path d="M 550 4863 
L 2003 4863 
L 2003 4531 
L 1147 4531 
L 1147 -513 
L 2003 -513 
L 2003 -844 
L 550 -844 
L 550 4863 
z
" id="DejaVuSerif-5b" transform="scale(0.015625)"/>
       <path d="M 3359 331 
L 3909 331 
L 3909 0 
L 2784 0 
L 2784 519 
Q 2616 206 2355 57 
Q 2094 -91 1709 -91 
Q 1097 -91 708 395 
Q 319 881 319 1663 
Q 319 2444 706 2928 
Q 1094 3413 1709 3413 
Q 2094 3413 2355 3264 
Q 2616 3116 2784 2803 
L 2784 4531 
L 2241 4531 
L 2241 4863 
L 3359 4863 
L 3359 331 
z
M 2784 1497 
L 2784 1825 
Q 2784 2422 2554 2737 
Q 2325 3053 1888 3053 
Q 1444 3053 1217 2703 
Q 991 2353 991 1663 
Q 991 975 1217 622 
Q 1444 269 1888 269 
Q 2325 269 2554 583 
Q 2784 897 2784 1497 
z
" id="DejaVuSerif-64" transform="scale(0.015625)"/>
       <path d="M 3359 2988 
L 3359 72 
Q 3359 -644 2965 -1033 
Q 2572 -1422 1844 -1422 
Q 1516 -1422 1216 -1362 
Q 916 -1303 641 -1184 
L 641 -488 
L 941 -488 
Q 997 -813 1206 -963 
Q 1416 -1113 1806 -1113 
Q 2313 -1113 2548 -827 
Q 2784 -541 2784 72 
L 2784 519 
Q 2616 206 2355 57 
Q 2094 -91 1709 -91 
Q 1097 -91 708 395 
Q 319 881 319 1663 
Q 319 2444 706 2928 
Q 1094 3413 1709 3413 
Q 2094 3413 2355 3264 
Q 2616 3116 2784 2803 
L 2784 3322 
L 3909 3322 
L 3909 2988 
L 3359 2988 
z
M 2784 1825 
Q 2784 2422 2554 2737 
Q 2325 3053 1888 3053 
Q 1444 3053 1217 2703 
Q 991 2353 991 1663 
Q 991 975 1217 622 
Q 1444 269 1888 269 
Q 2325 269 2554 583 
Q 2784 897 2784 1497 
L 2784 1825 
z
" id="DejaVuSerif-67" transform="scale(0.015625)"/>
       <path d="M 1947 4863 
L 1947 -844 
L 494 -844 
L 494 -513 
L 1350 -513 
L 1350 4531 
L 494 4531 
L 494 4863 
L 1947 4863 
z
" id="DejaVuSerif-5d" transform="scale(0.015625)"/>
      </defs>
      <use xlink:href="#DejaVuSerif-54"/>
      <use x="66.699219" xlink:href="#DejaVuSerif-68"/>
      <use x="131.103516" xlink:href="#DejaVuSerif-65"/>
      <use x="190.283203" xlink:href="#DejaVuSerif-74"/>
      <use x="230.46875" xlink:href="#DejaVuSerif-61"/>
      <use x="290.087891" xlink:href="#DejaVuSerif-20"/>
      <use x="321.875" xlink:href="#DejaVuSerif-5b"/>
      <use x="360.888672" xlink:href="#DejaVuSerif-64"/>
      <use x="424.902344" xlink:href="#DejaVuSerif-65"/>
      <use x="484.082031" xlink:href="#DejaVuSerif-67"/>
      <use x="548.095703" xlink:href="#DejaVuSerif-5d"/>
     </g>
    </g>
   </g>
   <g id="matplotlib.axis_2">
    <g id="ytick_1">
     <g id="line2d_9">
      <defs>
       <path d="M 0 0 
L -3.5 0 
" id="m734872e6fc" style="stroke:#000000;stroke-width:0.8;"/>
      </defs>
      <g>
       <use style="stroke:#000000;stroke-width:0.8;" x="57.6" xlink:href="#m734872e6fc" y="307.584"/>
      </g>
     </g>
     <g id="text_10">
      <!-- 0 -->
      <g transform="translate(43.60125 311.763141)scale(0.11 -0.11)">
       <use xlink:href="#DejaVuSerif-30"/>
      </g>
     </g>
    </g>
    <g id="ytick_2">
     <g id="line2d_10">
      <g>
       <use style="stroke:#000000;stroke-width:0.8;" x="57.6" xlink:href="#m734872e6fc" y="278.016"/>
      </g>
     </g>
     <g id="text_11">
      <!-- 10 -->
      <g transform="translate(36.6025 282.195141)scale(0.11 -0.11)">
       <use xlink:href="#DejaVuSerif-31"/>
       <use x="63.623047" xlink:href="#DejaVuSerif-30"/>
      </g>
     </g>
    </g>
    <g id="ytick_3">
     <g id="line2d_11">
      <g>
       <use style="stroke:#000000;stroke-width:0.8;" x="57.6" xlink:href="#m734872e6fc" y="248.448"/>
      </g>
     </g>
     <g id="text_12">
      <!-- 20 -->
      <g transform="translate(36.6025 252.627141)scale(0.11 -0.11)">
       <use xlink:href="#DejaVuSerif-32"/>
       <use x="63.623047" xlink:href="#DejaVuSerif-30"/>
      </g>
     </g>
    </g>
    <g id="ytick_4">
     <g id="line2d_12">
      <g>
       <use style="stroke:#000000;stroke-width:0.8;" x="57.6" xlink:href="#m734872e6fc" y="218.88"/>
      </g>
     </g>
     <g id="text_13">
      <!-- 30 -->
      <g transform="translate(36.6025 223.059141)scale(0.11 -0.11)">
       <use xlink:href="#DejaVuSerif-33"/>
       <use x="63.623047" xlink:href="#DejaVuSerif-30"/>
      </g>
     </g>
    </g>
    <g id="ytick_5">
     <g id="line2d_13">
      <g>
       <use style="stroke:#000000;stroke-width:0.8;" x="57.6" xlink:href="#m734872e6fc" y="189.312"/>
      </g>
     </g>
     <g id="text_14">
      <!-- 40 -->
      <g transform="translate(36.6025 193.491141)scale(0.11 -0.11)">
       <use xlink:href="#DejaVuSerif-34"/>
       <use x="63.623047" xlink:href="#DejaVuSerif-30"/>
      </g>
     </g>
    </g>
    <g id="ytick_6">
     <g id="line2d_14">
      <g>
       <use style="stroke:#000000;stroke-width:0.8;" x="57.6" xlink:href="#m734872e6fc" y="159.744"/>
      </g>
     </g>
     <g id="text_15">
      <!-- 50 -->
      <g transform="translate(36.6025 163.923141)scale(0.11 -0.11)">
       <use xlink:href="#DejaVuSerif-35"/>
       <use x="63.623047" xlink:href="#DejaVuSerif-30"/>
      </g>
     </g>
    </g>
    <g id="ytick_7">
     <g id="line2d_15">
      <g>
       <use style="stroke:#000000;stroke-width:0.8;" x="57.6" xlink:href="#m734872e6fc" y="130.176"/>
      </g>
     </g>
     <g id="text_16">
      <!-- 60 -->
      <g transform="translate(36.6025 134.355141)scale(0.11 -0.11)">
       <use xlink:href="#DejaVuSerif-36"/>
       <use x="63.623047" xlink:href="#DejaVuSerif-30"/>
      </g>
     </g>
    </g>
    <g id="ytick_8">
     <g id="line2d_16">
      <g>
       <use style="stroke:#000000;stroke-width:0.8;" x="57.6" xlink:href="#m734872e6fc" y="100.608"/>
      </g>
     </g>
     <g id="text_17">
      <!-- 70 -->
      <g transform="translate(36.6025 104.787141)scale(0.11 -0.11)">
       <use xlink:href="#DejaVuSerif-37"/>
       <use x="63.623047" xlink:href="#DejaVuSerif-30"/>
      </g>
     </g>
    </g>
    <g id="ytick_9">
     <g id="line2d_17">
      <g>
       <use style="stroke:#000000;stroke-width:0.8;" x="57.6" xlink:href="#m734872e6fc" y="71.04"/>
      </g>
     </g>
     <g id="text_18">
      <!-- 80 -->
      <g transform="translate(36.6025 75.219141)scale(0.11 -0.11)">
       <defs>
        <path d="M 2981 1275 
Q 2981 1775 2732 2051 
Q 2484 2328 2034 2328 
Q 1584 2328 1336 2051 
Q 1088 1775 1088 1275 
Q 1088 772 1336 495 
Q 1584 219 2034 219 
Q 2484 219 2732 495 
Q 2981 772 2981 1275 
z
M 2853 3541 
Q 2853 3966 2637 4203 
Q 2422 4441 2034 4441 
Q 1650 4441 1433 4203 
Q 1216 3966 1216 3541 
Q 1216 3113 1433 2875 
Q 1650 2638 2034 2638 
Q 2422 2638 2637 2875 
Q 2853 3113 2853 3541 
z
M 2516 2484 
Q 3047 2413 3344 2092 
Q 3641 1772 3641 1275 
Q 3641 619 3225 264 
Q 2809 -91 2034 -91 
Q 1263 -91 845 264 
Q 428 619 428 1275 
Q 428 1772 725 2092 
Q 1022 2413 1556 2484 
Q 1084 2569 832 2842 
Q 581 3116 581 3541 
Q 581 4103 968 4426 
Q 1356 4750 2034 4750 
Q 2713 4750 3100 4426 
Q 3488 4103 3488 3541 
Q 3488 3116 3236 2842 
Q 2984 2569 2516 2484 
z
" id="DejaVuSerif-38" transform="scale(0.015625)"/>
       </defs>
       <use xlink:href="#DejaVuSerif-38"/>
       <use x="63.623047" xlink:href="#DejaVuSerif-30"/>
      </g>
     </g>
    </g>
    <g id="ytick_10">
     <g id="line2d_18">
      <g>
       <use style="stroke:#000000;stroke-width:0.8;" x="57.6" xlink:href="#m734872e6fc" y="41.472"/>
      </g>
     </g>
     <g id="text_19">
      <!-- 90 -->
      <g transform="translate(36.6025 45.651141)scale(0.11 -0.11)">
       <defs>
        <path d="M 2994 2091 
Q 2784 1856 2512 1740 
Q 2241 1625 1900 1625 
Q 1206 1625 804 2044 
Q 403 2463 403 3188 
Q 403 3897 839 4323 
Q 1275 4750 2003 4750 
Q 2794 4750 3217 4161 
Q 3641 3572 3641 2478 
Q 3641 1253 3137 581 
Q 2634 -91 1722 -91 
Q 1475 -91 1203 -44 
Q 931 3 647 97 
L 647 872 
L 997 872 
Q 1038 556 1241 387 
Q 1444 219 1784 219 
Q 2391 219 2687 676 
Q 2984 1134 2994 2091 
z
M 1978 4441 
Q 1534 4441 1298 4117 
Q 1063 3794 1063 3188 
Q 1063 2581 1298 2256 
Q 1534 1931 1978 1931 
Q 2422 1931 2658 2245 
Q 2894 2559 2894 3150 
Q 2894 3772 2656 4106 
Q 2419 4441 1978 4441 
z
" id="DejaVuSerif-39" transform="scale(0.015625)"/>
       </defs>
       <use xlink:href="#DejaVuSerif-39"/>
       <use x="63.623047" xlink:href="#DejaVuSerif-30"/>
      </g>
     </g>
    </g>
    <g id="text_20">
     <!-- Beta [deg] -->
     <g transform="translate(30.158437 203.651359)rotate(-90)scale(0.11 -0.11)">
      <defs>
       <path d="M 1581 331 
L 2516 331 
Q 3078 331 3337 575 
Q 3597 819 3597 1350 
Q 3597 1878 3339 2120 
Q 3081 2363 2516 2363 
L 1581 2363 
L 1581 331 
z
M 1581 2694 
L 2375 2694 
Q 2888 2694 3123 2891 
Q 3359 3088 3359 3513 
Q 3359 3941 3123 4136 
Q 2888 4331 2375 4331 
L 1581 4331 
L 1581 2694 
z
M 353 0 
L 353 331 
L 947 331 
L 947 4331 
L 353 4331 
L 353 4666 
L 2656 4666 
Q 3363 4666 3720 4377 
Q 4078 4088 4078 3513 
Q 4078 3097 3829 2850 
Q 3581 2603 3103 2547 
Q 3697 2472 4005 2167 
Q 4313 1863 4313 1350 
Q 4313 656 3875 328 
Q 3438 0 2509 0 
L 353 0 
z
" id="DejaVuSerif-42" transform="scale(0.015625)"/>
      </defs>
      <use xlink:href="#DejaVuSerif-42"/>
      <use x="73.486328" xlink:href="#DejaVuSerif-65"/>
      <use x="132.666016" xlink:href="#DejaVuSerif-74"/>
      <use x="172.851562" xlink:href="#DejaVuSerif-61"/>
      <use x="232.470703" xlink:href="#DejaVuSerif-20"/>
      <use x="264.257812" xlink:href="#DejaVuSerif-5b"/>
      <use x="303.271484" xlink:href="#DejaVuSerif-64"/>
      <use x="367.285156" xlink:href="#DejaVuSerif-65"/>
      <use x="426.464844" xlink:href="#DejaVuSerif-67"/>
      <use x="490.478516" xlink:href="#DejaVuSerif-5d"/>
     </g>
    </g>
   </g>
   <g id="line2d_19">
    <path clip-path="url(#p4af9fc7669)" d="M 57.6 300.805705 
L 64.998944 298.186173 
L 71.04711 295.56664 
L 76.468978 292.947108 
L 81.549317 290.327576 
L 86.422778 287.708043 
L 91.161258 285.088511 
L 95.806617 282.468979 
L 100.384861 279.849446 
L 104.912977 277.229914 
L 109.402515 274.610381 
L 113.861589 271.990849 
L 118.296051 269.371317 
L 122.710217 266.751784 
L 127.107328 264.132252 
L 131.489856 261.51272 
L 135.859706 258.893187 
L 140.218362 256.273655 
L 144.566987 253.654122 
L 148.906498 251.03459 
L 153.237615 248.415058 
L 157.560903 245.795525 
L 161.876803 243.175993 
L 166.185654 240.556461 
L 170.487707 237.936928 
L 174.783145 235.317396 
L 179.072088 232.697863 
L 183.354603 230.078331 
L 187.630712 227.458799 
L 191.900393 224.839266 
L 196.163589 222.219734 
L 200.420205 219.600202 
L 204.670118 216.980669 
L 208.91317 214.361137 
L 213.149176 211.741604 
L 217.377918 209.122072 
L 221.599153 206.50254 
L 225.812607 203.883007 
L 230.017974 201.263475 
L 234.214921 198.643943 
L 238.403079 196.02441 
L 242.582049 193.404878 
L 246.751394 190.785345 
L 250.910641 188.165813 
L 255.059276 185.546281 
L 259.196743 182.926748 
L 263.322437 180.307216 
L 267.435706 177.687684 
L 271.53584 175.068151 
L 275.622071 172.448619 
L 279.693566 169.829086 
L 283.749419 167.209554 
L 287.788645 164.590022 
L 291.810174 161.970489 
L 295.812836 159.350957 
L 299.795357 156.731425 
L 303.756343 154.111892 
L 307.694266 151.49236 
L 311.607449 148.872827 
L 315.49405 146.253295 
L 319.352036 143.633763 
L 323.179164 141.01423 
L 326.972949 138.394698 
L 330.730634 135.775166 
L 334.44915 133.155633 
L 338.125069 130.536101 
L 341.754557 127.916568 
L 345.333305 125.297036 
L 348.856458 122.677504 
L 352.318524 120.057971 
L 355.713269 117.438439 
L 359.033584 114.818907 
L 362.271331 112.199374 
L 365.417148 109.579842 
L 368.460213 106.960309 
L 371.387946 104.340777 
L 374.185646 101.721245 
L 376.836023 99.101712 
L 379.318605 96.48218 
L 381.608983 93.862648 
L 383.67782 91.243115 
L 385.48956 88.623583 
L 387.000711 86.00405 
L 388.157523 83.384518 
L 388.892837 80.764986 
L 389.121697 78.145453 
L 388.735181 75.525921 
L 387.591535 72.906389 
L 385.503202 70.286856 
L 382.217458 67.667324 
L 377.386866 65.047791 
L 370.523295 62.428259 
L 360.925084 59.808727 
L 347.560774 57.189194 
L 328.886529 54.569662 
L 302.58257 51.95013 
L 265.283979 49.330597 
L 212.780244 46.711065 
L 142.192009 44.091532 
L 57.6 41.472 
" style="fill:none;stroke:#1f77b4;stroke-linecap:square;stroke-width:1.5;"/>
   </g>
   <g id="line2d_20">
    <path clip-path="url(#p4af9fc7669)" d="M 57.6 300.805705 
L 64.662312 298.186173 
L 70.434776 295.56664 
L 75.608947 292.947108 
L 80.456567 290.327576 
L 85.10607 287.708043 
L 89.625984 285.088511 
L 94.056163 282.468979 
L 98.421324 279.849446 
L 102.737576 277.229914 
L 107.015837 274.610381 
L 111.263739 271.990849 
L 115.486755 269.371317 
L 119.68889 266.751784 
L 123.873118 264.132252 
L 128.041674 261.51272 
L 132.196253 258.893187 
L 136.33814 256.273655 
L 140.468313 253.654122 
L 144.587507 251.03459 
L 148.696266 248.415058 
L 152.79498 245.795525 
L 156.883917 243.175993 
L 160.963237 240.556461 
L 165.033015 237.936928 
L 169.09325 235.317396 
L 173.143874 232.697863 
L 177.184761 230.078331 
L 181.215731 227.458799 
L 185.236557 224.839266 
L 189.246962 222.219734 
L 193.246629 219.600202 
L 197.235194 216.980669 
L 201.212253 214.361137 
L 205.17736 211.741604 
L 209.130024 209.122072 
L 213.069712 206.50254 
L 216.995842 203.883007 
L 220.90779 201.263475 
L 224.804877 198.643943 
L 228.686373 196.02441 
L 232.551493 193.404878 
L 236.399391 190.785345 
L 240.229156 188.165813 
L 244.039809 185.546281 
L 247.830295 182.926748 
L 251.599479 180.307216 
L 255.346135 177.687684 
L 259.068943 175.068151 
L 262.766478 172.448619 
L 266.437198 169.829086 
L 270.079435 167.209554 
L 273.69138 164.590022 
L 277.271073 161.970489 
L 280.816381 159.350957 
L 284.324984 156.731425 
L 287.794351 154.111892 
L 291.221718 151.49236 
L 294.604059 148.872827 
L 297.93806 146.253295 
L 301.220074 143.633763 
L 304.44609 141.01423 
L 307.611678 138.394698 
L 310.711939 135.775166 
L 313.74144 133.155633 
L 316.69414 130.536101 
L 319.563301 127.916568 
L 322.341392 125.297036 
L 325.019965 122.677504 
L 327.589514 120.057971 
L 330.039307 117.438439 
L 332.357186 114.818907 
L 334.529325 112.199374 
L 336.53994 109.579842 
L 338.370936 106.960309 
L 340.001481 104.340777 
L 341.407475 101.721245 
L 342.560909 99.101712 
L 343.42906 96.48218 
L 343.973491 93.862648 
L 344.148801 91.243115 
L 343.901039 88.623583 
L 343.165701 86.00405 
L 341.865174 83.384518 
L 339.905456 80.764986 
L 337.171961 78.145453 
L 333.524114 75.525921 
L 328.788446 72.906389 
L 322.749864 70.286856 
L 315.140846 67.667324 
L 305.628704 65.047791 
L 293.801978 62.428259 
L 279.159214 59.808727 
L 261.107964 57.189194 
L 238.990133 54.569662 
L 212.162176 51.95013 
L 180.168246 49.330597 
L 143.027283 46.711065 
L 101.568921 44.091532 
L 57.6 41.472 
" style="fill:none;stroke:#ff7f0e;stroke-linecap:square;stroke-width:1.5;"/>
   </g>
   <g id="line2d_21">
    <path clip-path="url(#p4af9fc7669)" d="M 57.6 300.805705 
L 64.354972 298.186173 
L 69.875749 295.56664 
L 74.82381 292.947108 
L 79.459007 290.327576 
L 83.904098 287.708043 
L 88.224537 285.088511 
L 92.458349 282.468979 
L 96.629079 279.849446 
L 100.752035 277.229914 
L 104.837559 274.610381 
L 108.892847 271.990849 
L 112.923031 269.371317 
L 116.931831 266.751784 
L 120.921982 264.132252 
L 124.895509 261.51272 
L 128.853914 258.893187 
L 132.798308 256.273655 
L 136.7295 253.654122 
L 140.648066 251.03459 
L 144.554393 248.415058 
L 148.448718 245.795525 
L 152.331153 243.175993 
L 156.201704 240.556461 
L 160.060288 237.936928 
L 163.906744 235.317396 
L 167.74084 232.697863 
L 171.562281 230.078331 
L 175.370713 227.458799 
L 179.165727 224.839266 
L 182.946859 222.219734 
L 186.713596 219.600202 
L 190.465371 216.980669 
L 194.201567 214.361137 
L 197.921511 211.741604 
L 201.62448 209.122072 
L 205.309692 206.50254 
L 208.976307 203.883007 
L 212.623426 201.263475 
L 216.25008 198.643943 
L 219.855234 196.02441 
L 223.437778 193.404878 
L 226.996522 190.785345 
L 230.530192 188.165813 
L 234.03742 185.546281 
L 237.516739 182.926748 
L 240.966574 180.307216 
L 244.385232 177.687684 
L 247.770894 175.068151 
L 251.121597 172.448619 
L 254.435228 169.829086 
L 257.709506 167.209554 
L 260.941966 164.590022 
L 264.129938 161.970489 
L 267.27053 159.350957 
L 270.360605 156.731425 
L 273.396748 154.111892 
L 276.375246 151.49236 
L 279.292043 148.872827 
L 282.142711 146.253295 
L 284.922402 143.633763 
L 287.625797 141.01423 
L 290.247051 138.394698 
L 292.779726 135.775166 
L 295.216717 133.155633 
L 297.550162 130.536101 
L 299.771346 127.916568 
L 301.870581 125.297036 
L 303.837072 122.677504 
L 305.658757 120.057971 
L 307.322126 117.438439 
L 308.812002 114.818907 
L 310.111285 112.199374 
L 311.200653 109.579842 
L 312.058208 106.960309 
L 312.659053 104.340777 
L 312.97479 101.721245 
L 312.972929 99.101712 
L 312.616173 96.48218 
L 311.861578 93.862648 
L 310.659544 91.243115 
L 308.952623 88.623583 
L 306.674108 86.00405 
L 303.74639 83.384518 
L 300.079061 80.764986 
L 295.566786 78.145453 
L 290.087012 75.525921 
L 283.497688 72.906389 
L 275.635321 70.286856 
L 266.314011 67.667324 
L 255.326504 65.047791 
L 242.448981 62.428259 
L 227.452085 59.808727 
L 210.121443 57.189194 
L 190.291051 54.569662 
L 167.891124 51.95013 
L 143.006786 49.330597 
L 115.934544 46.711065 
L 87.212855 44.091532 
L 57.6 41.472 
" style="fill:none;stroke:#2ca02c;stroke-linecap:square;stroke-width:1.5;"/>
   </g>
   <g id="line2d_22">
    <path clip-path="url(#p4af9fc7669)" d="M 57.6 300.805705 
L 64.073263 298.186173 
L 69.363362 295.56664 
L 74.104203 292.947108 
L 78.544739 290.327576 
L 82.802527 287.708043 
L 86.940206 285.088511 
L 90.994129 282.468979 
L 94.986767 279.849446 
L 98.932698 277.229914 
L 102.841739 274.610381 
L 106.720692 271.990849 
L 110.574375 269.371317 
L 114.406253 266.751784 
L 118.218846 264.132252 
L 122.013988 261.51272 
L 125.793011 258.893187 
L 129.55687 256.273655 
L 133.306225 253.654122 
L 137.041509 251.03459 
L 140.762973 248.415058 
L 144.470717 245.795525 
L 148.164717 243.175993 
L 151.844846 240.556461 
L 155.510883 237.936928 
L 159.162527 235.317396 
L 162.799405 232.697863 
L 166.421076 230.078331 
L 170.027036 227.458799 
L 173.616721 224.839266 
L 177.189507 222.219734 
L 180.744714 219.600202 
L 184.281602 216.980669 
L 187.799372 214.361137 
L 191.297165 211.741604 
L 194.774059 209.122072 
L 198.229066 206.50254 
L 201.66113 203.883007 
L 205.069122 201.263475 
L 208.451837 198.643943 
L 211.807986 196.02441 
L 215.136195 193.404878 
L 218.434994 190.785345 
L 221.702812 188.165813 
L 224.93797 185.546281 
L 228.138672 182.926748 
L 231.302992 180.307216 
L 234.428868 177.687684 
L 237.514085 175.068151 
L 240.556267 172.448619 
L 243.552858 169.829086 
L 246.501106 167.209554 
L 249.398046 164.590022 
L 252.240478 161.970489 
L 255.024945 159.350957 
L 257.747707 156.731425 
L 260.404711 154.111892 
L 262.991559 151.49236 
L 265.503472 148.872827 
L 267.935249 146.253295 
L 270.281221 143.633763 
L 272.535194 141.01423 
L 274.690399 138.394698 
L 276.739415 135.775166 
L 278.674097 133.155633 
L 280.485491 130.536101 
L 282.16373 127.916568 
L 283.697924 125.297036 
L 285.07603 122.677504 
L 286.284704 120.057971 
L 287.309129 117.438439 
L 288.132826 114.818907 
L 288.737425 112.199374 
L 289.10241 109.579842 
L 289.204831 106.960309 
L 289.018963 104.340777 
L 288.515924 101.721245 
L 287.663245 99.101712 
L 286.424377 96.48218 
L 284.758142 93.862648 
L 282.618133 91.243115 
L 279.952065 88.623583 
L 276.70109 86.00405 
L 272.799131 83.384518 
L 268.172268 80.764986 
L 262.738296 78.145453 
L 256.406591 75.525921 
L 249.078515 72.906389 
L 240.648682 70.286856 
L 231.007517 67.667324 
L 220.045681 65.047791 
L 207.660978 62.428259 
L 193.768371 59.808727 
L 178.313405 57.189194 
L 161.288674 54.569662 
L 142.751774 51.95013 
L 122.841551 49.330597 
L 101.787939 46.711065 
L 79.910198 44.091532 
L 57.6 41.472 
" style="fill:none;stroke:#d62728;stroke-linecap:square;stroke-width:1.5;"/>
   </g>
   <g id="patch_3">
    <path d="M 57.6 307.584 
L 57.6 41.472 
" style="fill:none;stroke:#000000;stroke-linecap:square;stroke-linejoin:miter;stroke-width:0.8;"/>
   </g>
   <g id="patch_4">
    <path d="M 414.72 307.584 
L 414.72 41.472 
" style="fill:none;stroke:#000000;stroke-linecap:square;stroke-linejoin:miter;stroke-width:0.8;"/>
   </g>
   <g id="patch_5">
    <path d="M 57.6 307.584 
L 414.72 307.584 
" style="fill:none;stroke:#000000;stroke-linecap:square;stroke-linejoin:miter;stroke-width:0.8;"/>
   </g>
   <g id="patch_6">
    <path d="M 57.6 41.472 
L 414.72 41.472 
" style="fill:none;stroke:#000000;stroke-linecap:square;stroke-linejoin:miter;stroke-width:0.8;"/>
   </g>
   <g id="text_21">
    <!-- Theta - Beta -Mach chart (for Mach = 25) -->
    <g transform="translate(96.808219 35.472)scale(0.132 -0.132)">
     <defs>
      <path d="M 281 1959 
L 1881 1959 
L 1881 1472 
L 281 1472 
L 281 1959 
z
" id="DejaVuSerif-2d" transform="scale(0.015625)"/>
      <path d="M 353 0 
L 353 331 
L 947 331 
L 947 4331 
L 319 4331 
L 319 4666 
L 1678 4666 
L 3316 1344 
L 4953 4666 
L 6228 4666 
L 6228 4331 
L 5606 4331 
L 5606 331 
L 6203 331 
L 6203 0 
L 4378 0 
L 4378 331 
L 4972 331 
L 4972 3938 
L 3372 684 
L 2931 684 
L 1331 3938 
L 1331 331 
L 1925 331 
L 1925 0 
L 353 0 
z
" id="DejaVuSerif-4d" transform="scale(0.015625)"/>
      <path d="M 3291 997 
Q 3169 466 2822 187 
Q 2475 -91 1925 -91 
Q 1200 -91 759 389 
Q 319 869 319 1663 
Q 319 2459 759 2936 
Q 1200 3413 1925 3413 
Q 2241 3413 2553 3339 
Q 2866 3266 3181 3116 
L 3181 2266 
L 2847 2266 
Q 2781 2703 2561 2903 
Q 2341 3103 1931 3103 
Q 1466 3103 1228 2742 
Q 991 2381 991 1663 
Q 991 944 1227 581 
Q 1463 219 1931 219 
Q 2303 219 2525 412 
Q 2747 606 2828 997 
L 3291 997 
z
" id="DejaVuSerif-63" transform="scale(0.015625)"/>
      <path d="M 3059 3328 
L 3059 2497 
L 2728 2497 
Q 2713 2744 2591 2866 
Q 2469 2988 2234 2988 
Q 1809 2988 1582 2694 
Q 1356 2400 1356 1850 
L 1356 331 
L 2022 331 
L 2022 0 
L 263 0 
L 263 331 
L 781 331 
L 781 2994 
L 231 2994 
L 231 3322 
L 1356 3322 
L 1356 2731 
Q 1525 3078 1790 3245 
Q 2056 3413 2438 3413 
Q 2578 3413 2733 3391 
Q 2888 3369 3059 3328 
z
" id="DejaVuSerif-72" transform="scale(0.015625)"/>
      <path d="M 2041 -997 
Q 1281 -656 893 83 
Q 506 822 506 1931 
Q 506 3044 893 3783 
Q 1281 4522 2041 4863 
L 2041 4556 
Q 1559 4225 1350 3623 
Q 1141 3022 1141 1931 
Q 1141 844 1350 242 
Q 1559 -359 2041 -691 
L 2041 -997 
z
" id="DejaVuSerif-28" transform="scale(0.015625)"/>
      <path d="M 2753 4078 
L 2450 4078 
Q 2447 4313 2317 4434 
Q 2188 4556 1941 4556 
Q 1619 4556 1487 4379 
Q 1356 4203 1356 3750 
L 1356 3322 
L 2284 3322 
L 2284 2988 
L 1356 2988 
L 1356 331 
L 2094 331 
L 2094 0 
L 231 0 
L 231 331 
L 781 331 
L 781 2988 
L 231 2988 
L 231 3322 
L 781 3322 
L 781 3738 
Q 781 4294 1070 4578 
Q 1359 4863 1919 4863 
Q 2128 4863 2337 4825 
Q 2547 4788 2753 4709 
L 2753 4078 
z
" id="DejaVuSerif-66" transform="scale(0.015625)"/>
      <path d="M 1925 219 
Q 2388 219 2623 584 
Q 2859 950 2859 1663 
Q 2859 2375 2623 2739 
Q 2388 3103 1925 3103 
Q 1463 3103 1227 2739 
Q 991 2375 991 1663 
Q 991 950 1228 584 
Q 1466 219 1925 219 
z
M 1925 -91 
Q 1200 -91 759 389 
Q 319 869 319 1663 
Q 319 2456 758 2934 
Q 1197 3413 1925 3413 
Q 2653 3413 3092 2934 
Q 3531 2456 3531 1663 
Q 3531 869 3092 389 
Q 2653 -91 1925 -91 
z
" id="DejaVuSerif-6f" transform="scale(0.015625)"/>
      <path d="M 678 2894 
L 4684 2894 
L 4684 2394 
L 678 2394 
L 678 2894 
z
M 678 1619 
L 4684 1619 
L 4684 1119 
L 678 1119 
L 678 1619 
z
" id="DejaVuSerif-3d" transform="scale(0.015625)"/>
      <path d="M 453 -997 
L 453 -691 
Q 934 -359 1145 242 
Q 1356 844 1356 1931 
Q 1356 3022 1145 3623 
Q 934 4225 453 4556 
L 453 4863 
Q 1216 4522 1603 3783 
Q 1991 3044 1991 1931 
Q 1991 822 1603 83 
Q 1216 -656 453 -997 
z
" id="DejaVuSerif-29" transform="scale(0.015625)"/>
     </defs>
     <use xlink:href="#DejaVuSerif-54"/>
     <use x="66.699219" xlink:href="#DejaVuSerif-68"/>
     <use x="131.103516" xlink:href="#DejaVuSerif-65"/>
     <use x="190.283203" xlink:href="#DejaVuSerif-74"/>
     <use x="230.46875" xlink:href="#DejaVuSerif-61"/>
     <use x="290.087891" xlink:href="#DejaVuSerif-20"/>
     <use x="321.875" xlink:href="#DejaVuSerif-2d"/>
     <use x="355.664062" xlink:href="#DejaVuSerif-20"/>
     <use x="387.451172" xlink:href="#DejaVuSerif-42"/>
     <use x="460.9375" xlink:href="#DejaVuSerif-65"/>
     <use x="520.117188" xlink:href="#DejaVuSerif-74"/>
     <use x="560.302734" xlink:href="#DejaVuSerif-61"/>
     <use x="619.921875" xlink:href="#DejaVuSerif-20"/>
     <use x="651.708984" xlink:href="#DejaVuSerif-2d"/>
     <use x="685.498047" xlink:href="#DejaVuSerif-4d"/>
     <use x="787.890625" xlink:href="#DejaVuSerif-61"/>
     <use x="847.509766" xlink:href="#DejaVuSerif-63"/>
     <use x="903.515625" xlink:href="#DejaVuSerif-68"/>
     <use x="967.919922" xlink:href="#DejaVuSerif-20"/>
     <use x="999.707031" xlink:href="#DejaVuSerif-63"/>
     <use x="1055.712891" xlink:href="#DejaVuSerif-68"/>
     <use x="1120.117188" xlink:href="#DejaVuSerif-61"/>
     <use x="1179.736328" xlink:href="#DejaVuSerif-72"/>
     <use x="1227.539062" xlink:href="#DejaVuSerif-74"/>
     <use x="1267.724609" xlink:href="#DejaVuSerif-20"/>
     <use x="1299.511719" xlink:href="#DejaVuSerif-28"/>
     <use x="1338.525391" xlink:href="#DejaVuSerif-66"/>
     <use x="1375.537109" xlink:href="#DejaVuSerif-6f"/>
     <use x="1435.742188" xlink:href="#DejaVuSerif-72"/>
     <use x="1483.544922" xlink:href="#DejaVuSerif-20"/>
     <use x="1515.332031" xlink:href="#DejaVuSerif-4d"/>
     <use x="1617.724609" xlink:href="#DejaVuSerif-61"/>
     <use x="1677.34375" xlink:href="#DejaVuSerif-63"/>
     <use x="1733.349609" xlink:href="#DejaVuSerif-68"/>
     <use x="1797.753906" xlink:href="#DejaVuSerif-20"/>
     <use x="1829.541016" xlink:href="#DejaVuSerif-3d"/>
     <use x="1913.330078" xlink:href="#DejaVuSerif-20"/>
     <use x="1945.117188" xlink:href="#DejaVuSerif-32"/>
     <use x="2008.740234" xlink:href="#DejaVuSerif-35"/>
     <use x="2072.363281" xlink:href="#DejaVuSerif-29"/>
    </g>
   </g>
   <g id="legend_1">
    <g id="patch_7">
     <path d="M 331.56 302.084 
L 407.02 302.084 
Q 409.22 302.084 409.22 299.884 
L 409.22 236.310875 
Q 409.22 234.110875 407.02 234.110875 
L 331.56 234.110875 
Q 329.36 234.110875 329.36 236.310875 
L 329.36 299.884 
Q 329.36 302.084 331.56 302.084 
z
" style="fill:#ffffff;opacity:0.8;stroke:#cccccc;stroke-linejoin:miter;"/>
    </g>
    <g id="line2d_23">
     <path d="M 333.76 243.019156 
L 355.76 243.019156 
" style="fill:none;stroke:#1f77b4;stroke-linecap:square;stroke-width:1.5;"/>
    </g>
    <g id="line2d_24"/>
    <g id="text_22">
     <!-- $\gamma$ = 1.1 -->
     <g transform="translate(364.56 246.869156)scale(0.11 -0.11)">
      <defs>
       <path d="M 1491 2950 
L 1838 788 
L 3456 3500 
L 4066 3500 
L 1972 0 
L 1713 -1331 
L 1138 -1331 
L 1397 0 
L 988 2613 
Q 925 3006 628 3006 
L 475 3006 
L 569 3500 
L 788 3500 
Q 1403 3500 1491 2950 
z
" id="DejaVuSans-Oblique-3b3" transform="scale(0.015625)"/>
       <path d="M 603 325 
Q 603 500 722 622 
Q 841 744 1019 744 
Q 1191 744 1312 622 
Q 1434 500 1434 325 
Q 1434 153 1312 31 
Q 1191 -91 1019 -91 
Q 841 -91 722 29 
Q 603 150 603 325 
z
" id="DejaVuSerif-2e" transform="scale(0.015625)"/>
      </defs>
      <use transform="translate(0 0.78125)" xlink:href="#DejaVuSans-Oblique-3b3"/>
      <use transform="translate(59.179688 0.78125)" xlink:href="#DejaVuSerif-20"/>
      <use transform="translate(90.966797 0.78125)" xlink:href="#DejaVuSerif-3d"/>
      <use transform="translate(174.755859 0.78125)" xlink:href="#DejaVuSerif-20"/>
      <use transform="translate(206.542969 0.78125)" xlink:href="#DejaVuSerif-31"/>
      <use transform="translate(270.166016 0.78125)" xlink:href="#DejaVuSerif-2e"/>
      <use transform="translate(301.953125 0.78125)" xlink:href="#DejaVuSerif-31"/>
     </g>
    </g>
    <g id="line2d_25">
     <path d="M 333.76 259.187437 
L 355.76 259.187437 
" style="fill:none;stroke:#ff7f0e;stroke-linecap:square;stroke-width:1.5;"/>
    </g>
    <g id="line2d_26"/>
    <g id="text_23">
     <!-- $\gamma$ = 1.2 -->
     <g transform="translate(364.56 263.037437)scale(0.11 -0.11)">
      <use transform="translate(0 0.78125)" xlink:href="#DejaVuSans-Oblique-3b3"/>
      <use transform="translate(59.179688 0.78125)" xlink:href="#DejaVuSerif-20"/>
      <use transform="translate(90.966797 0.78125)" xlink:href="#DejaVuSerif-3d"/>
      <use transform="translate(174.755859 0.78125)" xlink:href="#DejaVuSerif-20"/>
      <use transform="translate(206.542969 0.78125)" xlink:href="#DejaVuSerif-31"/>
      <use transform="translate(270.166016 0.78125)" xlink:href="#DejaVuSerif-2e"/>
      <use transform="translate(299.328125 0.78125)" xlink:href="#DejaVuSerif-32"/>
     </g>
    </g>
    <g id="line2d_27">
     <path d="M 333.76 275.355719 
L 355.76 275.355719 
" style="fill:none;stroke:#2ca02c;stroke-linecap:square;stroke-width:1.5;"/>
    </g>
    <g id="line2d_28"/>
    <g id="text_24">
     <!-- $\gamma$ = 1.3 -->
     <g transform="translate(364.56 279.205719)scale(0.11 -0.11)">
      <use transform="translate(0 0.78125)" xlink:href="#DejaVuSans-Oblique-3b3"/>
      <use transform="translate(59.179688 0.78125)" xlink:href="#DejaVuSerif-20"/>
      <use transform="translate(90.966797 0.78125)" xlink:href="#DejaVuSerif-3d"/>
      <use transform="translate(174.755859 0.78125)" xlink:href="#DejaVuSerif-20"/>
      <use transform="translate(206.542969 0.78125)" xlink:href="#DejaVuSerif-31"/>
      <use transform="translate(270.166016 0.78125)" xlink:href="#DejaVuSerif-2e"/>
      <use transform="translate(301.953125 0.78125)" xlink:href="#DejaVuSerif-33"/>
     </g>
    </g>
    <g id="line2d_29">
     <path d="M 333.76 291.524 
L 355.76 291.524 
" style="fill:none;stroke:#d62728;stroke-linecap:square;stroke-width:1.5;"/>
    </g>
    <g id="line2d_30"/>
    <g id="text_25">
     <!-- $\gamma$ = 1.4 -->
     <g transform="translate(364.56 295.374)scale(0.11 -0.11)">
      <use transform="translate(0 0.78125)" xlink:href="#DejaVuSans-Oblique-3b3"/>
      <use transform="translate(59.179688 0.78125)" xlink:href="#DejaVuSerif-20"/>
      <use transform="translate(90.966797 0.78125)" xlink:href="#DejaVuSerif-3d"/>
      <use transform="translate(174.755859 0.78125)" xlink:href="#DejaVuSerif-20"/>
      <use transform="translate(206.542969 0.78125)" xlink:href="#DejaVuSerif-31"/>
      <use transform="translate(270.166016 0.78125)" xlink:href="#DejaVuSerif-2e"/>
      <use transform="translate(301.953125 0.78125)" xlink:href="#DejaVuSerif-34"/>
     </g>
    </g>
   </g>
  </g>
 </g>
 <defs>
  <clipPath id="p4af9fc7669">
   <rect height="266.112" width="357.12" x="57.6" y="41.472"/>
  </clipPath>
 </defs>
</svg>
