<?xml version="1.0" encoding="UTF-8" standalone="no"?>
<svg
   height="432pt"
   version="1.1"
   viewBox="0 0 864 432"
   width="864pt"
   id="svg9144"
   sodipodi:docname="fig3.svg"
   inkscape:version="1.1 (ce6663b3b7, 2021-05-25)"
   xmlns:inkscape="http://www.inkscape.org/namespaces/inkscape"
   xmlns:sodipodi="http://sodipodi.sourceforge.net/DTD/sodipodi-0.dtd"
   xmlns:xlink="http://www.w3.org/1999/xlink"
   xmlns="http://www.w3.org/2000/svg"
   xmlns:svg="http://www.w3.org/2000/svg"
   xmlns:rdf="http://www.w3.org/1999/02/22-rdf-syntax-ns#"
   xmlns:cc="http://creativecommons.org/ns#"
   xmlns:dc="http://purl.org/dc/elements/1.1/">
  <sodipodi:namedview
     id="namedview9146"
     pagecolor="#ffffff"
     bordercolor="#666666"
     borderopacity="1.0"
     inkscape:pageshadow="2"
     inkscape:pageopacity="0.0"
     inkscape:pagecheckerboard="0"
     inkscape:document-units="pt"
     showgrid="false"
     inkscape:zoom="1.09375"
     inkscape:cx="575.54286"
     inkscape:cy="288"
     inkscape:window-width="1920"
     inkscape:window-height="1043"
     inkscape:window-x="1920"
     inkscape:window-y="0"
     inkscape:window-maximized="1"
     inkscape:current-layer="xtick_1" />
  <metadata
     id="metadata8475">
    <rdf:RDF>
      <cc:Work>
        <dc:type
           rdf:resource="http://purl.org/dc/dcmitype/StillImage" />
        <dc:date>2021-10-21T23:00:15.746858</dc:date>
        <dc:format>image/svg+xml</dc:format>
        <dc:creator>
          <cc:Agent>
            <dc:title>Matplotlib v3.4.2, https://matplotlib.org/</dc:title>
          </cc:Agent>
        </dc:creator>
      </cc:Work>
    </rdf:RDF>
  </metadata>
  <defs
     id="defs8479">
    <style
       type="text/css"
       id="style8477">*{stroke-linecap:butt;stroke-linejoin:round;}</style>
  </defs>
  <g
     id="figure_1">
    <g
       id="patch_1"
       transform="matrix(0.912212,0,0,1,45.431307,0)">
      <path
         d="M 0,432 H 864 V 0 H 0 Z"
         style="fill:#ffffff"
         id="path8481" />
    </g>
    <g
       id="axes_1">
      <g
         id="patch_2">
        <path
           d="M 108 384.48  L 412.363636 384.48  L 412.363636 51.84  L 108 51.84  z "
           style="fill:#ffffff;"
           id="path8484" />
      </g>
      <g
         id="matplotlib.axis_1">
        <g
           id="xtick_1">
          <g
             id="line2d_1">
            <path
               clip-path="url(#p604ae91f24)"
               d="M 108 384.48  L 108 51.84  "
               style="fill:none;stroke:#b0b0b0;stroke-dasharray:2.96,1.28;stroke-dashoffset:0;stroke-width:0.8;"
               id="path8487" />
          </g>
          <g
             id="line2d_2">
            <defs
               id="defs8491">
              <path
                 d="M 0 0  L 0 -8  "
                 id="m474081671b"
                 style="stroke:#000000;stroke-width:0.8;" />
            </defs>
            <g
               id="g8495">
              <use
                 style="stroke:#000000;stroke-width:0.8;"
                 x="108"
                 xlink:href="#m474081671b"
                 y="384.48"
                 id="use8493" />
            </g>
          </g>
        </g>
        <g
           id="xtick_2">
          <g
             id="line2d_3">
            <path
               clip-path="url(#p604ae91f24)"
               d="M 234.818182 384.48  L 234.818182 51.84  "
               style="fill:none;stroke:#b0b0b0;stroke-dasharray:2.96,1.28;stroke-dashoffset:0;stroke-width:0.8;"
               id="path8512" />
          </g>
          <g
             id="line2d_4">
            <g
               id="g8517">
              <use
                 style="stroke:#000000;stroke-width:0.8;"
                 x="234.818182"
                 xlink:href="#m474081671b"
                 y="384.48"
                 id="use8515" />
            </g>
          </g>
          <g
             id="text_2">
            <!-- 0.5 -->
            <g
               transform="translate(219.528182 403.727188)scale(0.22 -0.22)"
               id="g8529">
              <defs
                 id="defs8521">
                <path
                   d="M 266 1200  L 856 1250  Q 922 819 1161 601  Q 1400 384 1738 384  Q 2144 384 2425 690  Q 2706 997 2706 1503  Q 2706 1984 2436 2262  Q 2166 2541 1728 2541  Q 1456 2541 1237 2417  Q 1019 2294 894 2097  L 366 2166  L 809 4519  L 3088 4519  L 3088 3981  L 1259 3981  L 1013 2750  Q 1425 3038 1878 3038  Q 2478 3038 2890 2622  Q 3303 2206 3303 1553  Q 3303 931 2941 478  Q 2500 -78 1738 -78  Q 1113 -78 717 272  Q 322 622 266 1200  z "
                   id="ArialMT-35"
                   transform="scale(0.015625)" />
              </defs>
              <path
                 d="m 4.15625,35.296875 q 0,12.703125 2.609375,20.4375 2.609375,7.75 7.75,11.9375 5.15625,4.203125 12.96875,4.203125 5.765625,0 10.109375,-2.328125 4.34375,-2.3125 7.171875,-6.6875 Q 47.609375,58.5 49.21875,52.21875 q 1.609375,-6.265625 1.609375,-16.921875 0,-12.59375 -2.59375,-20.328125 Q 45.65625,7.234375 40.5,3 35.359375,-1.21875 27.484375,-1.21875 q -10.34375,0 -16.25,7.421875 -7.078125,8.9375 -7.078125,29.09375 z m 9.03125,0 q 0,-17.625 4.125,-23.46875 Q 21.4375,6 27.484375,6 q 6.0625,0 10.1875,5.859375 4.125,5.859375 4.125,23.4375 0,17.6875 -4.125,23.484375 -4.125,5.8125 -10.28125,5.8125 -6.046875,0 -9.671875,-5.125 Q 13.1875,52.9375 13.1875,35.296875 Z"
                 id="use8523"
                 style="stroke-width:0.015625" />
              <path
                 d="M 64.693359,0 V 10.015625 H 74.708984 V 0 Z"
                 id="use8525"
                 style="stroke-width:0.015625" />
              <use
                 x="83.398438"
                 xlink:href="#ArialMT-35"
                 id="use8527" />
            </g>
          </g>
        </g>
        <g
           id="xtick_3">
          <g
             id="line2d_5">
            <path
               clip-path="url(#p604ae91f24)"
               d="M 361.636364 384.48  L 361.636364 51.84  "
               style="fill:none;stroke:#b0b0b0;stroke-dasharray:2.96,1.28;stroke-dashoffset:0;stroke-width:0.8;"
               id="path8533" />
          </g>
          <g
             id="line2d_6">
            <g
               id="g8538">
              <use
                 style="stroke:#000000;stroke-width:0.8;"
                 x="361.636364"
                 xlink:href="#m474081671b"
                 y="384.48"
                 id="use8536" />
            </g>
          </g>
          <g
             id="text_3">
            <!-- 1.0 -->
            <g
               transform="translate(346.346364 403.727188)scale(0.22 -0.22)"
               id="g8550">
              <defs
                 id="defs8542">
                <path
                   d="M 2384 0  L 1822 0  L 1822 3584  Q 1619 3391 1289 3197  Q 959 3003 697 2906  L 697 3450  Q 1169 3672 1522 3987  Q 1875 4303 2022 4600  L 2384 4600  L 2384 0  z "
                   id="ArialMT-31"
                   transform="scale(0.015625)" />
              </defs>
              <use
                 xlink:href="#ArialMT-31"
                 id="use8544" />
              <path
                 d="M 64.693359,0 V 10.015625 H 74.708984 V 0 Z"
                 id="use8546"
                 style="stroke-width:0.015625" />
              <path
                 d="m 87.554687,35.296875 q 0,12.703125 2.609375,20.4375 2.609375,7.75 7.75,11.9375 5.156248,4.203125 12.968748,4.203125 5.76563,0 10.10938,-2.328125 4.34375,-2.3125 7.17187,-6.6875 2.84375,-4.359375 4.45313,-10.640625 1.60937,-6.265625 1.60937,-16.921875 0,-12.59375 -2.59375,-20.328125 Q 129.05469,7.234375 123.89844,3 q -5.14063,-4.21875 -13.01563,-4.21875 -10.34375,0 -16.249998,7.421875 -7.078125,8.9375 -7.078125,29.09375 z m 9.03125,0 q 0,-17.625 4.125003,-23.46875 Q 104.83594,6 110.88281,6 q 6.0625,0 10.1875,5.859375 4.125,5.859375 4.125,23.4375 0,17.6875 -4.125,23.484375 -4.125,5.8125 -10.28125,5.8125 -6.04687,0 -9.67187,-5.125 -4.531253,-6.53125 -4.531253,-24.171875 z"
                 id="use8548"
                 style="stroke-width:0.015625" />
            </g>
          </g>
        </g>
        <g
           id="text_4">
          <!-- $u/V_e$ -->
          <g
             transform="translate(236.861818 427.846875)scale(0.22 -0.22)"
             id="g8568">
            <defs
               id="defs8558">
              <path
                 d="M 428 1388  L 838 3500  L 1416 3500  L 1006 1409  Q 975 1256 961 1147  Q 947 1038 947 966  Q 947 700 1109 554  Q 1272 409 1569 409  Q 2031 409 2368 721  Q 2706 1034 2809 1563  L 3194 3500  L 3769 3500  L 3091 0  L 2516 0  L 2631 550  Q 2388 244 2052 76  Q 1716 -91 1338 -91  Q 878 -91 622 161  Q 366 413 366 863  Q 366 956 381 1097  Q 397 1238 428 1388  z "
                 id="DejaVuSans-Oblique-75"
                 transform="scale(0.015625)" />
              <path
                 d="M 1625 4666  L 2156 4666  L 531 -594  L 0 -594  L 1625 4666  z "
                 id="DejaVuSans-2f"
                 transform="scale(0.015625)" />
              <path
                 d="M 1319 0  L 500 4666  L 1119 4666  L 1797 653  L 4063 4666  L 4750 4666  L 2053 0  L 1319 0  z "
                 id="DejaVuSans-Oblique-56"
                 transform="scale(0.015625)" />
              <path
                 d="M 3078 2063  Q 3088 2113 3092 2166  Q 3097 2219 3097 2272  Q 3097 2653 2873 2875  Q 2650 3097 2266 3097  Q 1838 3097 1509 2826  Q 1181 2556 1013 2059  L 3078 2063  z M 3578 1613  L 903 1613  Q 884 1494 878 1425  Q 872 1356 872 1306  Q 872 872 1139 634  Q 1406 397 1894 397  Q 2269 397 2603 481  Q 2938 566 3225 728  L 3116 159  Q 2806 34 2476 -28  Q 2147 -91 1806 -91  Q 1078 -91 686 257  Q 294 606 294 1247  Q 294 1794 489 2264  Q 684 2734 1063 3103  Q 1306 3334 1642 3459  Q 1978 3584 2356 3584  Q 2950 3584 3301 3228  Q 3653 2872 3653 2272  Q 3653 2128 3634 1964  Q 3616 1800 3578 1613  z "
                 id="DejaVuSans-Oblique-65"
                 transform="scale(0.015625)" />
            </defs>
            <use
               transform="translate(0 0.09375)"
               xlink:href="#DejaVuSans-Oblique-75"
               id="use8560" />
            <use
               transform="translate(63.378906 0.09375)"
               xlink:href="#DejaVuSans-2f"
               id="use8562" />
            <use
               transform="translate(97.070312 0.09375)"
               xlink:href="#DejaVuSans-Oblique-56"
               id="use8564" />
            <use
               transform="translate(165.478516 -16.3125)scale(0.7)"
               xlink:href="#DejaVuSans-Oblique-65"
               id="use8566" />
          </g>
        </g>
      </g>
      <g
         id="matplotlib.axis_2">
        <g
           id="ytick_1">
          <g
             id="line2d_7">
            <path
               clip-path="url(#p604ae91f24)"
               d="M 108 384.48  L 412.363636 384.48  "
               style="fill:none;stroke:#b0b0b0;stroke-dasharray:2.96,1.28;stroke-dashoffset:0;stroke-width:0.8;"
               id="path8572" />
          </g>
          <g
             id="line2d_8">
            <defs
               id="defs8576">
              <path
                 d="M 0 0  L 8 0  "
                 id="m49c8b96f5d"
                 style="stroke:#000000;stroke-width:0.8;" />
            </defs>
            <g
               id="g8580">
              <use
                 style="stroke:#000000;stroke-width:0.8;"
                 x="108"
                 xlink:href="#m49c8b96f5d"
                 y="384.48"
                 id="use8578" />
            </g>
          </g>
          <g
             id="text_5">
            <!-- 0 -->
            <g
               transform="translate(92.265938 392.353594)scale(0.22 -0.22)"
               id="g8585">
              <path
                 d="m 4.15625,35.296875 q 0,12.703125 2.609375,20.4375 2.609375,7.75 7.75,11.9375 5.15625,4.203125 12.96875,4.203125 5.765625,0 10.109375,-2.328125 4.34375,-2.3125 7.171875,-6.6875 Q 47.609375,58.5 49.21875,52.21875 q 1.609375,-6.265625 1.609375,-16.921875 0,-12.59375 -2.59375,-20.328125 Q 45.65625,7.234375 40.5,3 35.359375,-1.21875 27.484375,-1.21875 q -10.34375,0 -16.25,7.421875 -7.078125,8.9375 -7.078125,29.09375 z m 9.03125,0 q 0,-17.625 4.125,-23.46875 Q 21.4375,6 27.484375,6 q 6.0625,0 10.1875,5.859375 4.125,5.859375 4.125,23.4375 0,17.6875 -4.125,23.484375 -4.125,5.8125 -10.28125,5.8125 -6.046875,0 -9.671875,-5.125 Q 13.1875,52.9375 13.1875,35.296875 Z"
                 id="use8583"
                 style="stroke-width:0.015625" />
            </g>
          </g>
        </g>
        <g
           id="ytick_2">
          <g
             id="line2d_9">
            <path
               clip-path="url(#p604ae91f24)"
               d="M 108 301.32  L 412.363636 301.32  "
               style="fill:none;stroke:#b0b0b0;stroke-dasharray:2.96,1.28;stroke-dashoffset:0;stroke-width:0.8;"
               id="path8589" />
          </g>
          <g
             id="line2d_10">
            <g
               id="g8594">
              <use
                 style="stroke:#000000;stroke-width:0.8;"
                 x="108"
                 xlink:href="#m49c8b96f5d"
                 y="301.32"
                 id="use8592" />
            </g>
          </g>
          <g
             id="text_6">
            <!-- 5 -->
            <g
               transform="translate(92.265938 309.193594)scale(0.22 -0.22)"
               id="g8599">
              <use
                 xlink:href="#ArialMT-35"
                 id="use8597" />
            </g>
          </g>
        </g>
        <g
           id="ytick_3">
          <g
             id="line2d_11">
            <path
               clip-path="url(#p604ae91f24)"
               d="M 108 218.16  L 412.363636 218.16  "
               style="fill:none;stroke:#b0b0b0;stroke-dasharray:2.96,1.28;stroke-dashoffset:0;stroke-width:0.8;"
               id="path8603" />
          </g>
          <g
             id="line2d_12">
            <g
               id="g8608">
              <use
                 style="stroke:#000000;stroke-width:0.8;"
                 x="108"
                 xlink:href="#m49c8b96f5d"
                 y="218.16"
                 id="use8606" />
            </g>
          </g>
          <g
             id="text_7">
            <!-- 10 -->
            <g
               transform="translate(80.031875 226.033594)scale(0.22 -0.22)"
               id="g8615">
              <use
                 xlink:href="#ArialMT-31"
                 id="use8611" />
              <path
                 d="m 59.771484,35.296875 q 0,12.703125 2.609375,20.4375 2.609375,7.75 7.75,11.9375 5.15625,4.203125 12.96875,4.203125 5.765625,0 10.109375,-2.328125 4.34375,-2.3125 7.171876,-6.6875 2.84375,-4.359375 4.45312,-10.640625 1.60938,-6.265625 1.60938,-16.921875 0,-12.59375 -2.59375,-20.328125 Q 101.27148,7.234375 96.115234,3 90.974609,-1.21875 83.099609,-1.21875 q -10.34375,0 -16.25,7.421875 -7.078125,8.9375 -7.078125,29.09375 z m 9.03125,0 q 0,-17.625 4.125,-23.46875 Q 77.052734,6 83.099609,6 q 6.0625,0 10.1875,5.859375 4.125,5.859375 4.125,23.4375 0,17.6875 -4.125,23.484375 -4.125,5.8125 -10.28125,5.8125 -6.046875,0 -9.671875,-5.125 -4.53125,-6.53125 -4.53125,-24.171875 z"
                 id="use8613"
                 style="stroke-width:0.015625" />
            </g>
          </g>
        </g>
        <g
           id="ytick_4">
          <g
             id="line2d_13">
            <path
               clip-path="url(#p604ae91f24)"
               d="M 108 135  L 412.363636 135  "
               style="fill:none;stroke:#b0b0b0;stroke-dasharray:2.96,1.28;stroke-dashoffset:0;stroke-width:0.8;"
               id="path8619" />
          </g>
          <g
             id="line2d_14">
            <g
               id="g8624">
              <use
                 style="stroke:#000000;stroke-width:0.8;"
                 x="108"
                 xlink:href="#m49c8b96f5d"
                 y="135"
                 id="use8622" />
            </g>
          </g>
          <g
             id="text_8">
            <!-- 15 -->
            <g
               transform="translate(80.031875 142.873594)scale(0.22 -0.22)"
               id="g8631">
              <use
                 xlink:href="#ArialMT-31"
                 id="use8627" />
              <use
                 x="55.615234"
                 xlink:href="#ArialMT-35"
                 id="use8629" />
            </g>
          </g>
        </g>
        <g
           id="ytick_5">
          <g
             id="line2d_15">
            <path
               clip-path="url(#p604ae91f24)"
               d="M 108 51.84  L 412.363636 51.84  "
               style="fill:none;stroke:#b0b0b0;stroke-dasharray:2.96,1.28;stroke-dashoffset:0;stroke-width:0.8;"
               id="path8635" />
          </g>
          <g
             id="line2d_16">
            <g
               id="g8640">
              <use
                 style="stroke:#000000;stroke-width:0.8;"
                 x="108"
                 xlink:href="#m49c8b96f5d"
                 y="51.84"
                 id="use8638" />
            </g>
          </g>
          <g
             id="text_9">
            <!-- 20 -->
            <g
               transform="translate(80.031875 59.713594)scale(0.22 -0.22)"
               id="g8650">
              <defs
                 id="defs8644">
                <path
                   d="M 3222 541  L 3222 0  L 194 0  Q 188 203 259 391  Q 375 700 629 1000  Q 884 1300 1366 1694  Q 2113 2306 2375 2664  Q 2638 3022 2638 3341  Q 2638 3675 2398 3904  Q 2159 4134 1775 4134  Q 1369 4134 1125 3890  Q 881 3647 878 3216  L 300 3275  Q 359 3922 746 4261  Q 1134 4600 1788 4600  Q 2447 4600 2831 4234  Q 3216 3869 3216 3328  Q 3216 3053 3103 2787  Q 2991 2522 2730 2228  Q 2469 1934 1863 1422  Q 1356 997 1212 845  Q 1069 694 975 541  L 3222 541  z "
                   id="ArialMT-32"
                   transform="scale(0.015625)" />
              </defs>
              <use
                 xlink:href="#ArialMT-32"
                 id="use8646" />
              <path
                 d="m 59.771484,35.296875 q 0,12.703125 2.609375,20.4375 2.609375,7.75 7.75,11.9375 5.15625,4.203125 12.96875,4.203125 5.765625,0 10.109375,-2.328125 4.34375,-2.3125 7.171876,-6.6875 2.84375,-4.359375 4.45312,-10.640625 1.60938,-6.265625 1.60938,-16.921875 0,-12.59375 -2.59375,-20.328125 Q 101.27148,7.234375 96.115234,3 90.974609,-1.21875 83.099609,-1.21875 q -10.34375,0 -16.25,7.421875 -7.078125,8.9375 -7.078125,29.09375 z m 9.03125,0 q 0,-17.625 4.125,-23.46875 Q 77.052734,6 83.099609,6 q 6.0625,0 10.1875,5.859375 4.125,5.859375 4.125,23.4375 0,17.6875 -4.125,23.484375 -4.125,5.8125 -10.28125,5.8125 -6.046875,0 -9.671875,-5.125 -4.53125,-6.53125 -4.53125,-24.171875 z"
                 id="use8648"
                 style="stroke-width:0.015625" />
            </g>
          </g>
        </g>
        <g
           id="text_10">
          <!-- $y/\delta_{BO}$ -->
          <g
             transform="translate(71.411875 246.76)rotate(-90)scale(0.22 -0.22)"
             id="g8670">
            <defs
               id="defs8658">
              <path
                 d="M 1588 -325  Q 1188 -997 936 -1164  Q 684 -1331 294 -1331  L -159 -1331  L -63 -850  L 269 -850  Q 509 -850 678 -719  Q 847 -588 1056 -206  L 1234 128  L 459 3500  L 1069 3500  L 1650 819  L 3256 3500  L 3859 3500  L 1588 -325  z "
                 id="DejaVuSans-Oblique-79"
                 transform="scale(0.015625)" />
              <path
                 d="M 3472 4053  Q 3197 4272 2450 4272  Q 1659 4272 1588 3906  Q 1531 3619 2328 3469  Q 2953 3353 3253 3003  Q 3616 2581 3447 1716  Q 3284 888 2763 400  Q 2238 -91 1488 -91  Q 741 -91 406 400  Q 72 888 241 1747  Q 363 2384 891 2900  Q 1097 3100 1353 3213  Q 913 3459 1000 3900  Q 1166 4750 2544 4750  Q 3234 4750 3566 4531  L 3472 4053  z M 1753 3056  Q 1525 2966 1306 2738  Q 969 2384 847 1747  Q 722 1113 919 756  Q 1119 397 1584 397  Q 2044 397 2381 759  Q 2722 1122 2838 1716  Q 2956 2338 2731 2638  Q 2491 2959 2103 2994  Q 1906 3013 1753 3056  z "
                 id="DejaVuSans-Oblique-3b4"
                 transform="scale(0.015625)" />
              <path
                 d="M 1081 4666  L 2694 4666  Q 3350 4666 3675 4422  Q 4000 4178 4000 3688  Q 4000 3238 3720 2911  Q 3441 2584 2988 2516  Q 3375 2428 3569 2181  Q 3763 1934 3763 1522  Q 3763 819 3242 409  Q 2722 0 1819 0  L 172 0  L 1081 4666  z M 1234 2228  L 903 519  L 1919 519  Q 2491 519 2800 781  Q 3109 1044 3109 1522  Q 3109 1891 2904 2059  Q 2700 2228 2247 2228  L 1234 2228  z M 1606 4147  L 1331 2741  L 2272 2741  Q 2775 2741 3058 2959  Q 3341 3178 3341 3566  Q 3341 3869 3150 4008  Q 2959 4147 2541 4147  L 1606 4147  z "
                 id="DejaVuSans-Oblique-42"
                 transform="scale(0.015625)" />
              <path
                 d="M 2919 4238  Q 2400 4238 2003 3986  Q 1606 3734 1313 3219  Q 1125 2891 1026 2522  Q 928 2153 928 1778  Q 928 1128 1239 775  Q 1550 422 2119 422  Q 2631 422 3032 676  Q 3434 931 3719 1434  Q 3909 1772 4009 2142  Q 4109 2513 4109 2881  Q 4109 3528 3796 3883  Q 3484 4238 2919 4238  z M 2100 -91  Q 1241 -91 748 418  Q 256 928 256 1813  Q 256 2319 448 2847  Q 641 3375 978 3788  Q 1375 4272 1862 4511  Q 2350 4750 2938 4750  Q 3794 4750 4287 4245  Q 4781 3741 4781 2869  Q 4781 2331 4593 1812  Q 4406 1294 4056 872  Q 3656 384 3173 146  Q 2691 -91 2100 -91  z "
                 id="DejaVuSans-Oblique-4f"
                 transform="scale(0.015625)" />
            </defs>
            <use
               transform="translate(0 0.78125)"
               xlink:href="#DejaVuSans-Oblique-79"
               id="use8660" />
            <use
               transform="translate(59.179688 0.78125)"
               xlink:href="#DejaVuSans-2f"
               id="use8662" />
            <use
               transform="translate(92.871094 0.78125)"
               xlink:href="#DejaVuSans-Oblique-3b4"
               id="use8664" />
            <use
               transform="translate(154.052734 -15.625)scale(0.7)"
               xlink:href="#DejaVuSans-Oblique-42"
               id="use8666" />
            <use
               transform="translate(202.075195 -15.625)scale(0.7)"
               xlink:href="#DejaVuSans-Oblique-4f"
               id="use8668" />
          </g>
        </g>
      </g>
      <g
         id="line2d_17">
        <path
           clip-path="url(#p604ae91f24)"
           d="M 108 384.48  L 150.531317 350.409925  L 177.483322 329.123823  L 203.694619 308.714852  L 235.355415 284.371786  L 275.302679 253.653528  L 290.755412 241.486187  L 302.636492 231.852971  L 311.577586 224.342022  L 319.514492 217.390064  L 325.88856 211.527235  L 331.501955 206.070412  L 336.403222 200.989024  L 340.647207 196.251463  L 344.29247 191.825987  L 347.39898 187.681457  L 350.026174 183.787918  L 352.231414 180.117025  L 354.068858 176.642321  L 355.725005 173.017692  L 357.057344 169.571487  L 358.204584 165.984571  L 359.155019 162.268124  L 359.91107 158.426069  L 360.518439 154.195552  L 360.986201 149.33899  L 361.322359 143.385131  L 361.530075 135.39956  L 361.623559 121.856301  L 361.636589 63.922156  L 361.636589 -1  L 361.636589 -1  "
           style="fill:none;stroke:#0000ff;stroke-linecap:square;"
           id="path8674" />
      </g>
      <g
         id="line2d_18">
        <path
           clip-path="url(#p604ae91f24)"
           d="M 108 384.48  L 134.258972 367.365226  L 189.253616 331.163281  L 253.019514 289.036238  L 273.648892 275.120945  L 288.058502 265.146938  L 300.05755 256.567859  L 309.144911 249.817085  L 317.259805 243.518118  L 323.814558 238.166485  L 329.619054 233.151686  L 334.715233 228.451625  L 339.152238 224.042527  L 342.983955 219.89978  L 346.266735 215.99866  L 349.057421 212.314914  L 351.411723 208.825216  L 353.382958 205.507498  L 355.021151 202.341165  L 356.493437 199.010442  L 357.673981 195.817017  L 358.686723 192.465832  L 359.521991 188.965171  L 360.222251 185.061292  L 360.762714 180.772971  L 361.175121 175.621403  L 361.452215 169.15533  L 361.607681 159.756588  L 361.658884 139.570942  L 361.660488 -1  L 361.660488 -1  "
           style="fill:none;stroke:#008000;stroke-linecap:square;"
           id="path8677" />
      </g>
      <g
         id="line2d_19">
        <path
           clip-path="url(#p604ae91f24)"
           d="M 108 384.48  L 125.929003 364.026846  L 142.110888 345.908288  L 158.136357 328.309605  L 173.946154 311.292524  L 189.467752 294.914216  L 206.109585 277.696827  L 223.612073 259.934018  L 242.966762 240.629122  L 271.694743 212.351498  L 294.03418 190.253962  L 306.710749 177.403357  L 316.16522 167.50262  L 323.726491 159.263162  L 329.730974 152.411884  L 334.962419 146.117882  L 339.481608 140.330858  L 343.353613 135.001227  L 346.645062 130.08109  L 349.421851 125.524966  L 351.74734 121.290302  L 353.681052 117.337782  L 355.420923 113.273106  L 356.81874 109.463354  L 358.021445 105.553217  L 359.017812 101.558185  L 359.811173 97.483594  L 360.449988 93.054836  L 360.944054 88.033515  L 361.301675 81.948723  L 361.521299 74.112197  L 361.62564 61.22702  L 361.643008 15.091339  L 361.643009 -1  L 361.643009 -1  "
           style="fill:none;stroke:#ff0000;stroke-linecap:square;"
           id="path8680" />
      </g>
      <g
         id="patch_3">
        <path
           d="M 108 384.48  L 108 51.84  "
           style="fill:none;stroke:#000000;stroke-linecap:square;stroke-linejoin:miter;stroke-width:0.8;"
           id="path8683" />
      </g>
      <g
         id="patch_4">
        <path
           d="M 412.363636 384.48  L 412.363636 51.84  "
           style="fill:none;stroke:#000000;stroke-linecap:square;stroke-linejoin:miter;stroke-width:0.8;"
           id="path8686" />
      </g>
      <g
         id="patch_5">
        <path
           d="M 108 384.48  L 412.363636 384.48  "
           style="fill:none;stroke:#000000;stroke-linecap:square;stroke-linejoin:miter;stroke-width:0.8;"
           id="path8689" />
      </g>
      <g
         id="patch_6">
        <path
           d="M 108 51.84  L 412.363636 51.84  "
           style="fill:none;stroke:#000000;stroke-linecap:square;stroke-linejoin:miter;stroke-width:0.8;"
           id="path8692" />
      </g>
      <g
         id="legend_1">
        <g
           id="patch_7">
          <path
             d="M 119.2 132.5375  L 239.52 132.5375  Q 242.72 132.5375 242.72 129.3375  L 242.72 63.04  Q 242.72 59.84 239.52 59.84  L 119.2 59.84  Q 116 59.84 116 63.04  L 116 129.3375  Q 116 132.5375 119.2 132.5375  z "
             style="fill:#ffffff;opacity:0.8;stroke:#cccccc;stroke-linejoin:miter;"
             id="path8695" />
        </g>
        <g
           id="line2d_20">
          <path
             d="M 122.4 72.0925  L 154.4 72.0925  "
             style="fill:none;stroke:#0000ff;stroke-linecap:square;"
             id="path8698" />
        </g>
        <g
           id="line2d_21" />
        <g
           id="text_11">
          <!-- Adiabatic -->
          <g
             transform="translate(167.2 77.6925)scale(0.16 -0.16)"
             id="g8729">
            <defs
               id="defs8709">
              <path
                 d="M -9 0  L 1750 4581  L 2403 4581  L 4278 0  L 3588 0  L 3053 1388  L 1138 1388  L 634 0  L -9 0  z M 1313 1881  L 2866 1881  L 2388 3150  Q 2169 3728 2063 4100  Q 1975 3659 1816 3225  L 1313 1881  z "
                 id="ArialMT-41"
                 transform="scale(0.015625)" />
              <path
                 d="M 2575 0  L 2575 419  Q 2259 -75 1647 -75  Q 1250 -75 917 144  Q 584 363 401 755  Q 219 1147 219 1656  Q 219 2153 384 2558  Q 550 2963 881 3178  Q 1213 3394 1622 3394  Q 1922 3394 2156 3267  Q 2391 3141 2538 2938  L 2538 4581  L 3097 4581  L 3097 0  L 2575 0  z M 797 1656  Q 797 1019 1065 703  Q 1334 388 1700 388  Q 2069 388 2326 689  Q 2584 991 2584 1609  Q 2584 2291 2321 2609  Q 2059 2928 1675 2928  Q 1300 2928 1048 2622  Q 797 2316 797 1656  z "
                 id="ArialMT-64"
                 transform="scale(0.015625)" />
              <path
                 d="M 425 3934  L 425 4581  L 988 4581  L 988 3934  L 425 3934  z M 425 0  L 425 3319  L 988 3319  L 988 0  L 425 0  z "
                 id="ArialMT-69"
                 transform="scale(0.015625)" />
              <path
                 d="M 2588 409  Q 2275 144 1986 34  Q 1697 -75 1366 -75  Q 819 -75 525 192  Q 231 459 231 875  Q 231 1119 342 1320  Q 453 1522 633 1644  Q 813 1766 1038 1828  Q 1203 1872 1538 1913  Q 2219 1994 2541 2106  Q 2544 2222 2544 2253  Q 2544 2597 2384 2738  Q 2169 2928 1744 2928  Q 1347 2928 1158 2789  Q 969 2650 878 2297  L 328 2372  Q 403 2725 575 2942  Q 747 3159 1072 3276  Q 1397 3394 1825 3394  Q 2250 3394 2515 3294  Q 2781 3194 2906 3042  Q 3031 2891 3081 2659  Q 3109 2516 3109 2141  L 3109 1391  Q 3109 606 3145 398  Q 3181 191 3288 0  L 2700 0  Q 2613 175 2588 409  z M 2541 1666  Q 2234 1541 1622 1453  Q 1275 1403 1131 1340  Q 988 1278 909 1158  Q 831 1038 831 891  Q 831 666 1001 516  Q 1172 366 1500 366  Q 1825 366 2078 508  Q 2331 650 2450 897  Q 2541 1088 2541 1459  L 2541 1666  z "
                 id="ArialMT-61"
                 transform="scale(0.015625)" />
              <path
                 d="M 941 0  L 419 0  L 419 4581  L 981 4581  L 981 2947  Q 1338 3394 1891 3394  Q 2197 3394 2470 3270  Q 2744 3147 2920 2923  Q 3097 2700 3197 2384  Q 3297 2069 3297 1709  Q 3297 856 2875 390  Q 2453 -75 1863 -75  Q 1275 -75 941 416  L 941 0  z M 934 1684  Q 934 1088 1097 822  Q 1363 388 1816 388  Q 2184 388 2453 708  Q 2722 1028 2722 1663  Q 2722 2313 2464 2622  Q 2206 2931 1841 2931  Q 1472 2931 1203 2611  Q 934 2291 934 1684  z "
                 id="ArialMT-62"
                 transform="scale(0.015625)" />
              <path
                 d="M 1650 503  L 1731 6  Q 1494 -44 1306 -44  Q 1000 -44 831 53  Q 663 150 594 308  Q 525 466 525 972  L 525 2881  L 113 2881  L 113 3319  L 525 3319  L 525 4141  L 1084 4478  L 1084 3319  L 1650 3319  L 1650 2881  L 1084 2881  L 1084 941  Q 1084 700 1114 631  Q 1144 563 1211 522  Q 1278 481 1403 481  Q 1497 481 1650 503  z "
                 id="ArialMT-74"
                 transform="scale(0.015625)" />
              <path
                 d="M 2588 1216  L 3141 1144  Q 3050 572 2676 248  Q 2303 -75 1759 -75  Q 1078 -75 664 370  Q 250 816 250 1647  Q 250 2184 428 2587  Q 606 2991 970 3192  Q 1334 3394 1763 3394  Q 2303 3394 2647 3120  Q 2991 2847 3088 2344  L 2541 2259  Q 2463 2594 2264 2762  Q 2066 2931 1784 2931  Q 1359 2931 1093 2626  Q 828 2322 828 1663  Q 828 994 1084 691  Q 1341 388 1753 388  Q 2084 388 2306 591  Q 2528 794 2588 1216  z "
                 id="ArialMT-63"
                 transform="scale(0.015625)" />
            </defs>
            <use
               xlink:href="#ArialMT-41"
               id="use8711" />
            <use
               x="66.699219"
               xlink:href="#ArialMT-64"
               id="use8713" />
            <use
               x="122.314453"
               xlink:href="#ArialMT-69"
               id="use8715" />
            <use
               x="144.53125"
               xlink:href="#ArialMT-61"
               id="use8717" />
            <use
               x="200.146484"
               xlink:href="#ArialMT-62"
               id="use8719" />
            <use
               x="255.761719"
               xlink:href="#ArialMT-61"
               id="use8721" />
            <use
               x="311.376953"
               xlink:href="#ArialMT-74"
               id="use8723" />
            <use
               x="339.160156"
               xlink:href="#ArialMT-69"
               id="use8725" />
            <use
               x="361.376953"
               xlink:href="#ArialMT-63"
               id="use8727" />
          </g>
        </g>
        <g
           id="line2d_22">
          <path
             d="M 122.4 94.725  L 154.4 94.725  "
             style="fill:none;stroke:#008000;stroke-linecap:square;"
             id="path8732" />
        </g>
        <g
           id="line2d_23" />
        <g
           id="text_12">
          <!-- $T_{w}/T_e$ = 4 -->
          <g
             transform="translate(167.2 100.325)scale(0.16 -0.16)"
             id="g8761">
            <defs
               id="defs8741">
              <path
                 d="M 378 4666  L 4325 4666  L 4225 4134  L 2559 4134  L 1759 0  L 1125 0  L 1925 4134  L 275 4134  L 378 4666  z "
                 id="DejaVuSans-Oblique-54"
                 transform="scale(0.015625)" />
              <path
                 d="M 544 3500  L 1113 3500  L 1259 684  L 2566 3500  L 3231 3500  L 3425 684  L 4666 3500  L 5241 3500  L 3641 0  L 2969 0  L 2797 2900  L 1459 0  L 781 0  L 544 3500  z "
                 id="DejaVuSans-Oblique-77"
                 transform="scale(0.015625)" />
              <path
                 id="ArialMT-20"
                 transform="scale(0.015625)" />
              <path
                 d="M 3381 2694  L 356 2694  L 356 3219  L 3381 3219  L 3381 2694  z M 3381 1303  L 356 1303  L 356 1828  L 3381 1828  L 3381 1303  z "
                 id="ArialMT-3d"
                 transform="scale(0.015625)" />
              <path
                 d="M 2069 0  L 2069 1097  L 81 1097  L 81 1613  L 2172 4581  L 2631 4581  L 2631 1613  L 3250 1613  L 3250 1097  L 2631 1097  L 2631 0  L 2069 0  z M 2069 1613  L 2069 3678  L 634 1613  L 2069 1613  z "
                 id="ArialMT-34"
                 transform="scale(0.015625)" />
            </defs>
            <use
               transform="translate(0 0.09375)"
               xlink:href="#DejaVuSans-Oblique-54"
               id="use8743" />
            <use
               transform="translate(61.083984 -16.3125)scale(0.7)"
               xlink:href="#DejaVuSans-Oblique-77"
               id="use8745" />
            <use
               transform="translate(121.069336 0.09375)"
               xlink:href="#DejaVuSans-2f"
               id="use8747" />
            <use
               transform="translate(154.760742 0.09375)"
               xlink:href="#DejaVuSans-Oblique-54"
               id="use8749" />
            <use
               transform="translate(215.844727 -16.3125)scale(0.7)"
               xlink:href="#DejaVuSans-Oblique-65"
               id="use8751" />
            <use
               transform="translate(261.645508 0.09375)"
               xlink:href="#ArialMT-20"
               id="use8753" />
            <use
               transform="translate(289.428711 0.09375)"
               xlink:href="#ArialMT-3d"
               id="use8755" />
            <use
               transform="translate(347.827148 0.09375)"
               xlink:href="#ArialMT-20"
               id="use8757" />
            <use
               transform="translate(375.610352 0.09375)"
               xlink:href="#ArialMT-34"
               id="use8759" />
          </g>
        </g>
        <g
           id="line2d_24">
          <path
             d="M 122.4 117.3575  L 154.4 117.3575  "
             style="fill:none;stroke:#ff0000;stroke-linecap:square;"
             id="path8764" />
        </g>
        <g
           id="line2d_25" />
        <g
           id="text_13">
          <!-- $T_{w}/T_e$ = 8 -->
          <g
             transform="translate(167.2 122.9575)scale(0.16 -0.16)"
             id="g8789">
            <defs
               id="defs8769">
              <path
                 d="M 1131 2484  Q 781 2613 612 2850  Q 444 3088 444 3419  Q 444 3919 803 4259  Q 1163 4600 1759 4600  Q 2359 4600 2725 4251  Q 3091 3903 3091 3403  Q 3091 3084 2923 2848  Q 2756 2613 2416 2484  Q 2838 2347 3058 2040  Q 3278 1734 3278 1309  Q 3278 722 2862 322  Q 2447 -78 1769 -78  Q 1091 -78 675 323  Q 259 725 259 1325  Q 259 1772 486 2073  Q 713 2375 1131 2484  z M 1019 3438  Q 1019 3113 1228 2906  Q 1438 2700 1772 2700  Q 2097 2700 2305 2904  Q 2513 3109 2513 3406  Q 2513 3716 2298 3927  Q 2084 4138 1766 4138  Q 1444 4138 1231 3931  Q 1019 3725 1019 3438  z M 838 1322  Q 838 1081 952 856  Q 1066 631 1291 507  Q 1516 384 1775 384  Q 2178 384 2440 643  Q 2703 903 2703 1303  Q 2703 1709 2433 1975  Q 2163 2241 1756 2241  Q 1359 2241 1098 1978  Q 838 1716 838 1322  z "
                 id="ArialMT-38"
                 transform="scale(0.015625)" />
            </defs>
            <use
               transform="translate(0 0.09375)"
               xlink:href="#DejaVuSans-Oblique-54"
               id="use8771" />
            <use
               transform="translate(61.083984 -16.3125)scale(0.7)"
               xlink:href="#DejaVuSans-Oblique-77"
               id="use8773" />
            <use
               transform="translate(121.069336 0.09375)"
               xlink:href="#DejaVuSans-2f"
               id="use8775" />
            <use
               transform="translate(154.760742 0.09375)"
               xlink:href="#DejaVuSans-Oblique-54"
               id="use8777" />
            <use
               transform="translate(215.844727 -16.3125)scale(0.7)"
               xlink:href="#DejaVuSans-Oblique-65"
               id="use8779" />
            <use
               transform="translate(261.645508 0.09375)"
               xlink:href="#ArialMT-20"
               id="use8781" />
            <use
               transform="translate(289.428711 0.09375)"
               xlink:href="#ArialMT-3d"
               id="use8783" />
            <use
               transform="translate(347.827148 0.09375)"
               xlink:href="#ArialMT-20"
               id="use8785" />
            <use
               transform="translate(375.610352 0.09375)"
               xlink:href="#ArialMT-38"
               id="use8787" />
          </g>
        </g>
      </g>
    </g>
    <g
       id="axes_2">
      <g
         id="patch_8">
        <path
           d="M 473.236364 384.48  L 777.6 384.48  L 777.6 51.84  L 473.236364 51.84  z "
           style="fill:#ffffff;"
           id="path8794" />
      </g>
      <g
         id="matplotlib.axis_3">
        <g
           id="xtick_4">
          <g
             id="line2d_26">
            <path
               clip-path="url(#pf42157803a)"
               d="M 516.716883 384.48  L 516.716883 51.84  "
               style="fill:none;stroke:#b0b0b0;stroke-dasharray:2.96,1.28;stroke-dashoffset:0;stroke-width:0.8;"
               id="path8797" />
          </g>
          <g
             id="line2d_27">
            <g
               id="g8802">
              <use
                 style="stroke:#000000;stroke-width:0.8;"
                 x="516.716883"
                 xlink:href="#m474081671b"
                 y="384.48"
                 id="use8800" />
            </g>
          </g>
          <g
             id="text_14">
            <!-- 2 -->
            <g
               transform="translate(510.599852 403.727188)scale(0.22 -0.22)"
               id="g8807">
              <use
                 xlink:href="#ArialMT-32"
                 id="use8805" />
            </g>
          </g>
        </g>
        <g
           id="xtick_5">
          <g
             id="line2d_28">
            <path
               clip-path="url(#pf42157803a)"
               d="M 603.677922 384.48  L 603.677922 51.84  "
               style="fill:none;stroke:#b0b0b0;stroke-dasharray:2.96,1.28;stroke-dashoffset:0;stroke-width:0.8;"
               id="path8811" />
          </g>
          <g
             id="line2d_29">
            <g
               id="g8816">
              <use
                 style="stroke:#000000;stroke-width:0.8;"
                 x="603.677922"
                 xlink:href="#m474081671b"
                 y="384.48"
                 id="use8814" />
            </g>
          </g>
          <g
             id="text_15">
            <!-- 4 -->
            <g
               transform="translate(597.560891 403.727188)scale(0.22 -0.22)"
               id="g8821">
              <use
                 xlink:href="#ArialMT-34"
                 id="use8819" />
            </g>
          </g>
        </g>
        <g
           id="xtick_6">
          <g
             id="line2d_30">
            <path
               clip-path="url(#pf42157803a)"
               d="M 690.638961 384.48  L 690.638961 51.84  "
               style="fill:none;stroke:#b0b0b0;stroke-dasharray:2.96,1.28;stroke-dashoffset:0;stroke-width:0.8;"
               id="path8825" />
          </g>
          <g
             id="line2d_31">
            <g
               id="g8830">
              <use
                 style="stroke:#000000;stroke-width:0.8;"
                 x="690.638961"
                 xlink:href="#m474081671b"
                 y="384.48"
                 id="use8828" />
            </g>
          </g>
          <g
             id="text_16">
            <!-- 6 -->
            <g
               transform="translate(684.52193 403.727188)scale(0.22 -0.22)"
               id="g8838">
              <defs
                 id="defs8834">
                <path
                   d="M 3184 3459  L 2625 3416  Q 2550 3747 2413 3897  Q 2184 4138 1850 4138  Q 1581 4138 1378 3988  Q 1113 3794 959 3422  Q 806 3050 800 2363  Q 1003 2672 1297 2822  Q 1591 2972 1913 2972  Q 2475 2972 2870 2558  Q 3266 2144 3266 1488  Q 3266 1056 3080 686  Q 2894 316 2569 119  Q 2244 -78 1831 -78  Q 1128 -78 684 439  Q 241 956 241 2144  Q 241 3472 731 4075  Q 1159 4600 1884 4600  Q 2425 4600 2770 4297  Q 3116 3994 3184 3459  z M 888 1484  Q 888 1194 1011 928  Q 1134 663 1356 523  Q 1578 384 1822 384  Q 2178 384 2434 671  Q 2691 959 2691 1453  Q 2691 1928 2437 2201  Q 2184 2475 1800 2475  Q 1419 2475 1153 2201  Q 888 1928 888 1484  z "
                   id="ArialMT-36"
                   transform="scale(0.015625)" />
              </defs>
              <use
                 xlink:href="#ArialMT-36"
                 id="use8836" />
            </g>
          </g>
        </g>
        <g
           id="xtick_7">
          <g
             id="line2d_32">
            <path
               clip-path="url(#pf42157803a)"
               d="M 777.6 384.48  L 777.6 51.84  "
               style="fill:none;stroke:#b0b0b0;stroke-dasharray:2.96,1.28;stroke-dashoffset:0;stroke-width:0.8;"
               id="path8842" />
          </g>
          <g
             id="line2d_33">
            <g
               id="g8847">
              <use
                 style="stroke:#000000;stroke-width:0.8;"
                 x="777.6"
                 xlink:href="#m474081671b"
                 y="384.48"
                 id="use8845" />
            </g>
          </g>
          <g
             id="text_17">
            <!-- 8 -->
            <g
               transform="translate(771.482969 403.727188)scale(0.22 -0.22)"
               id="g8852">
              <use
                 xlink:href="#ArialMT-38"
                 id="use8850" />
            </g>
          </g>
        </g>
        <g
           id="text_18">
          <!-- $T/T_e$ or $T_0/T_{e}$ -->
          <g
             transform="translate(559.858182 427.846875)scale(0.22 -0.22)"
             id="g8887">
            <defs
               id="defs8859">
              <path
                 d="M 213 1659  Q 213 2581 725 3025  Q 1153 3394 1769 3394  Q 2453 3394 2887 2945  Q 3322 2497 3322 1706  Q 3322 1066 3130 698  Q 2938 331 2570 128  Q 2203 -75 1769 -75  Q 1072 -75 642 372  Q 213 819 213 1659  z M 791 1659  Q 791 1022 1069 705  Q 1347 388 1769 388  Q 2188 388 2466 706  Q 2744 1025 2744 1678  Q 2744 2294 2464 2611  Q 2184 2928 1769 2928  Q 1347 2928 1069 2612  Q 791 2297 791 1659  z "
                 id="ArialMT-6f"
                 transform="scale(0.015625)" />
              <path
                 d="M 416 0  L 416 3319  L 922 3319  L 922 2816  Q 1116 3169 1280 3281  Q 1444 3394 1641 3394  Q 1925 3394 2219 3213  L 2025 2691  Q 1819 2813 1613 2813  Q 1428 2813 1281 2702  Q 1134 2591 1072 2394  Q 978 2094 978 1738  L 978 0  L 416 0  z "
                 id="ArialMT-72"
                 transform="scale(0.015625)" />
              <path
                 d="M 2034 4250  Q 1547 4250 1301 3770  Q 1056 3291 1056 2328  Q 1056 1369 1301 889  Q 1547 409 2034 409  Q 2525 409 2770 889  Q 3016 1369 3016 2328  Q 3016 3291 2770 3770  Q 2525 4250 2034 4250  z M 2034 4750  Q 2819 4750 3233 4129  Q 3647 3509 3647 2328  Q 3647 1150 3233 529  Q 2819 -91 2034 -91  Q 1250 -91 836 529  Q 422 1150 422 2328  Q 422 3509 836 4129  Q 1250 4750 2034 4750  z "
                 id="DejaVuSans-30"
                 transform="scale(0.015625)" />
            </defs>
            <use
               transform="translate(0 0.09375)"
               xlink:href="#DejaVuSans-Oblique-54"
               id="use8861" />
            <use
               transform="translate(61.083984 0.09375)"
               xlink:href="#DejaVuSans-2f"
               id="use8863" />
            <use
               transform="translate(94.775391 0.09375)"
               xlink:href="#DejaVuSans-Oblique-54"
               id="use8865" />
            <use
               transform="translate(155.859375 -16.3125)scale(0.7)"
               xlink:href="#DejaVuSans-Oblique-65"
               id="use8867" />
            <use
               transform="translate(201.660156 0.09375)"
               xlink:href="#ArialMT-20"
               id="use8869" />
            <use
               transform="translate(229.443359 0.09375)"
               xlink:href="#ArialMT-6f"
               id="use8871" />
            <use
               transform="translate(285.058594 0.09375)"
               xlink:href="#ArialMT-72"
               id="use8873" />
            <use
               transform="translate(318.359375 0.09375)"
               xlink:href="#ArialMT-20"
               id="use8875" />
            <use
               transform="translate(346.142578 0.09375)"
               xlink:href="#DejaVuSans-Oblique-54"
               id="use8877" />
            <use
               transform="translate(407.226562 -16.3125)scale(0.7)"
               xlink:href="#DejaVuSans-30"
               id="use8879" />
            <use
               transform="translate(454.49707 0.09375)"
               xlink:href="#DejaVuSans-2f"
               id="use8881" />
            <use
               transform="translate(488.188477 0.09375)"
               xlink:href="#DejaVuSans-Oblique-54"
               id="use8883" />
            <use
               transform="translate(549.272461 -16.3125)scale(0.7)"
               xlink:href="#DejaVuSans-Oblique-65"
               id="use8885" />
          </g>
        </g>
      </g>
      <g
         id="matplotlib.axis_4">
        <g
           id="ytick_6">
          <g
             id="line2d_34">
            <path
               clip-path="url(#pf42157803a)"
               d="M 473.236364 384.48  L 777.6 384.48  "
               style="fill:none;stroke:#b0b0b0;stroke-dasharray:2.96,1.28;stroke-dashoffset:0;stroke-width:0.8;"
               id="path8891" />
          </g>
          <g
             id="line2d_35">
            <g
               id="g8896">
              <use
                 style="stroke:#000000;stroke-width:0.8;"
                 x="473.236364"
                 xlink:href="#m49c8b96f5d"
                 y="384.48"
                 id="use8894" />
            </g>
          </g>
        </g>
        <g
           id="ytick_7">
          <g
             id="line2d_36">
            <path
               clip-path="url(#pf42157803a)"
               d="M 473.236364 301.32  L 777.6 301.32  "
               style="fill:none;stroke:#b0b0b0;stroke-dasharray:2.96,1.28;stroke-dashoffset:0;stroke-width:0.8;"
               id="path8900" />
          </g>
          <g
             id="line2d_37">
            <g
               id="g8905">
              <use
                 style="stroke:#000000;stroke-width:0.8;"
                 x="473.236364"
                 xlink:href="#m49c8b96f5d"
                 y="301.32"
                 id="use8903" />
            </g>
          </g>
        </g>
        <g
           id="ytick_8">
          <g
             id="line2d_38">
            <path
               clip-path="url(#pf42157803a)"
               d="M 473.236364 218.16  L 777.6 218.16  "
               style="fill:none;stroke:#b0b0b0;stroke-dasharray:2.96,1.28;stroke-dashoffset:0;stroke-width:0.8;"
               id="path8909" />
          </g>
          <g
             id="line2d_39">
            <g
               id="g8914">
              <use
                 style="stroke:#000000;stroke-width:0.8;"
                 x="473.236364"
                 xlink:href="#m49c8b96f5d"
                 y="218.16"
                 id="use8912" />
            </g>
          </g>
        </g>
        <g
           id="ytick_9">
          <g
             id="line2d_40">
            <path
               clip-path="url(#pf42157803a)"
               d="M 473.236364 135  L 777.6 135  "
               style="fill:none;stroke:#b0b0b0;stroke-dasharray:2.96,1.28;stroke-dashoffset:0;stroke-width:0.8;"
               id="path8918" />
          </g>
          <g
             id="line2d_41">
            <g
               id="g8923">
              <use
                 style="stroke:#000000;stroke-width:0.8;"
                 x="473.236364"
                 xlink:href="#m49c8b96f5d"
                 y="135"
                 id="use8921" />
            </g>
          </g>
        </g>
        <g
           id="ytick_10">
          <g
             id="line2d_42">
            <path
               clip-path="url(#pf42157803a)"
               d="M 473.236364 51.84  L 777.6 51.84  "
               style="fill:none;stroke:#b0b0b0;stroke-dasharray:2.96,1.28;stroke-dashoffset:0;stroke-width:0.8;"
               id="path8927" />
          </g>
          <g
             id="line2d_43">
            <g
               id="g8932">
              <use
                 style="stroke:#000000;stroke-width:0.8;"
                 x="473.236364"
                 xlink:href="#m49c8b96f5d"
                 y="51.84"
                 id="use8930" />
            </g>
          </g>
        </g>
      </g>
      <g
         id="line2d_44">
        <path
           clip-path="url(#pf42157803a)"
           d="M 656.15876 384.48  L 656.068499 379.581679  L 655.797799 374.687264  L 655.346928 369.800656  L 654.71639 364.925749  L 653.906958 360.066423  L 652.919723 355.226538  L 651.437881 349.209855  L 649.684202 343.236938  L 647.663447 337.315078  L 645.381532 331.451421  L 642.845605 325.652938  L 640.064107 319.926387  L 637.046803 314.278281  L 633.804796 308.714852  L 630.350515 303.242012  L 626.697671 297.865319  L 622.861194 292.589946  L 618.857136 287.420643  L 613.855139 281.363522  L 608.667509 275.471849  L 603.326695 269.751127  L 597.866053 264.205787  L 591.388913 257.962287  L 584.848042 251.965427  L 577.361516 245.415616  L 569.013 238.432963  L 559.941297 231.146301  L 548.650983 222.391894  L 530.604787 208.749947  L 517.307828 198.579255  L 509.39412 192.255386  L 503.49889 187.28129  L 498.376512 182.664515  L 494.310478 178.705014  L 490.794883 174.970833  L 487.77727 171.430773  L 485.205204 168.056767  L 483.027861 164.823825  L 481.197107 161.709905  L 479.668165 158.695735  L 478.296304 155.50173  L 477.104793 152.131661  L 476.104392 148.58526  L 475.293946 144.858854  L 474.629034 140.703392  L 474.122279 136.119064  L 473.727136 130.38699  L 473.462923 123.038128  L 473.31532 111.948312  L 473.269534 86.990081  L 473.268442 -1  L 473.268442 -1  "
           style="fill:none;stroke:#0000ff;stroke-linecap:square;"
           id="path8937" />
      </g>
      <g
         id="line2d_45">
        <path
           clip-path="url(#pf42157803a)"
           d="M 656.15876 384.48  L 656.266241 375.910288  L 656.588307 367.361497  L 657.123575 358.854479  L 657.869199 350.409925  L 658.820426 342.04825  L 659.970217 333.789449  L 661.308919 325.652938  L 663.054021 316.527704  L 665.006065 307.612854  L 667.13668 298.932712  L 669.705821 289.47535  L 672.406222 280.369925  L 675.801086 269.751127  L 680.109997 257.090437  L 689.772636 229.055192  L 692.212357 221.114615  L 694.033735 214.406057  L 695.341579 208.749947  L 696.32937 203.484751  L 697.018766 198.579255  L 697.439073 194.001682  L 697.631549 189.307504  L 697.588674 184.931347  L 697.330947 180.474865  L 696.829717 175.634464  L 695.99594 169.878121  L 694.379433 160.603234  L 692.941476 151.87574  L 692.129186 145.599035  L 691.536583 139.249954  L 691.121933 132.292186  L 690.852785 123.747581  L 690.711819 111.47705  L 690.671951 82.753066  L 690.671425 -1  L 690.671425 -1  "
           style="fill:none;stroke:#0000ff;stroke-dasharray:3.7,1.6;stroke-dashoffset:0;"
           id="path8940" />
      </g>
      <g
         id="line2d_46">
        <path
           clip-path="url(#pf42157803a)"
           d="M 603.677922 384.48  L 604.882703 379.758913  L 605.830595 375.008709  L 606.520187 370.236357  L 606.950576 365.448858  L 607.121473 360.653227  L 607.033315 355.856478  L 606.687365 351.065604  L 606.085813 346.28755  L 605.231866 341.529189  L 604.129823 336.79729  L 602.785143 332.098494  L 601.204491 327.439276  L 599.395768 322.825915  L 597.368118 318.264457  L 595.131917 313.760688  L 592.698732 309.320093  L 590.081264 304.947833  L 586.71647 299.798053  L 583.131674 294.761125  L 579.354022 289.843755  L 575.411922 285.051743  L 570.644014 279.625938  L 565.739202 274.383418  L 560.026175 268.621824  L 553.543055 262.437193  L 546.376615 255.935063  L 537.980548 248.638738  L 526.759964 239.209198  L 509.716298 224.902245  L 502.708516 218.705191  L 497.456329 213.763846  L 493.252829 209.508712  L 489.625539 205.507498  L 486.76482 202.032113  L 484.306487 198.714782  L 482.209429 195.532786  L 480.433355 192.465832  L 478.816729 189.230244  L 477.489678 186.089959  L 476.32944 182.775427  L 475.348491 179.286935  L 474.547939 175.621403  L 473.885858 171.534365  L 473.35527 166.7906  L 472.963049 161.157856  L 472.697654 153.937191  L 472.546932 143.042363  L 472.499028 118.988059  L 472.497727 -1  L 472.497727 -1  "
           style="fill:none;stroke:#008000;stroke-linecap:square;"
           id="path8943" />
      </g>
      <g
         id="line2d_47">
        <path
           clip-path="url(#pf42157803a)"
           d="M 603.677922 384.48  L 605.94166 376.911839  L 608.467615 369.279845  L 611.252719 361.612666  L 614.29076 353.939033  L 617.571674 346.28755  L 621.080928 338.686446  L 624.799069 331.163281  L 628.701474 323.744625  L 633.27465 315.554915  L 637.993467 307.562712  L 643.338637 298.950536  L 649.778996 289.036238  L 658.160575 276.607453  L 672.157573 255.935063  L 676.820892 248.638738  L 680.541919 242.419864  L 683.451415 237.137254  L 685.914889 232.187237  L 687.765267 227.998024  L 689.289151 224.042527  L 690.512078 220.302776  L 691.553301 216.378596  L 692.301419 212.674181  L 692.837462 208.825216  L 693.143187 204.862751  L 693.221678 200.808771  L 693.081503 196.388384  L 692.666436 190.834928  L 691.403768 178.302973  L 690.740013 170.105053  L 690.337884 162.327383  L 690.089586 153.008236  L 689.967739 139.10819  L 689.941723 99.796938  L 689.941681 -1  L 689.941681 -1  "
           style="fill:none;stroke:#008000;stroke-dasharray:3.7,1.6;stroke-dashoffset:0;"
           id="path8946" />
      </g>
      <g
         id="line2d_48">
        <path
           clip-path="url(#pf42157803a)"
           d="M 777.6 384.48  L 774.683704 376.984427  L 771.566874 369.554132  L 768.251702 362.193429  L 764.740762 354.906584  L 761.037072 347.697801  L 757.144135 340.571214  L 753.065984 333.530874  L 748.807225 326.580742  L 744.37307 319.724669  L 739.76936 312.966389  L 735.002589 306.309502  L 730.079915 299.757459  L 725.009167 293.31355  L 718.475499 285.415454  L 711.741785 277.696827  L 704.827542 270.162818  L 697.753689 262.81803  L 690.542401 255.666484  L 683.216935 248.711584  L 675.801421 241.956094  L 668.32063 235.402115  L 659.292962 227.805296  L 650.251217 220.501835  L 641.238658 213.491487  L 630.817075 205.680951  L 620.556475 198.262195  L 609.103217 190.253962  L 596.661132 181.827142  L 582.224853 172.329367  L 562.992383 159.980869  L 533.203609 140.88817  L 522.116794 133.48431  L 513.945387 127.760259  L 507.45257 122.948184  L 501.83175 118.496117  L 497.408244 114.719516  L 493.573424 111.166008  L 490.266205 107.805411  L 487.428445 104.610772  L 485.005696 101.558185  L 482.947629 98.626579  L 481.05014 95.519584  L 479.483006 92.515414  L 478.197016 89.595904  L 477.063844 86.4895  L 476.098713 83.197948  L 475.305328 79.719669  L 474.641982 75.807536  L 474.104221 71.223629  L 473.702647 65.733028  L 473.434456 58.862348  L 473.276736 48.488417  L 473.222981 26.612866  L 473.220864 -1  L 473.220864 -1  "
           style="fill:none;stroke:#ff0000;stroke-linecap:square;"
           id="path8949" />
      </g>
      <g
         id="line2d_49">
        <path
           clip-path="url(#pf42157803a)"
           d="M 777.6 384.48  L 772.142478 369.554132  L 767.031645 354.906584  L 762.26773 340.571214  L 757.84987 326.580742  L 753.774943 312.966389  L 750.036563 299.757459  L 746.220015 285.415454  L 742.794391 271.654621  L 739.410945 257.081161  L 736.144967 241.956094  L 732.796419 225.338197  L 726.831555 194.196112  L 723.798346 179.151224  L 721.379909 168.290314  L 719.136308 159.263162  L 716.867649 151.110112  L 714.580254 143.74504  L 712.105214 136.554981  L 709.300912 129.14215  L 705.921219 120.882974  L 698.395741 102.763583  L 696.501011 97.483594  L 695.041829 92.784769  L 693.875888 88.292581  L 692.921412 83.700055  L 692.175716 78.981621  L 691.599649 73.870679  L 691.177011 68.114212  L 690.882766 60.990374  L 690.706515 50.843255  L 690.639424 31.550925  L 690.634855 -1  L 690.634855 -1  "
           style="fill:none;stroke:#ff0000;stroke-dasharray:3.7,1.6;stroke-dashoffset:0;"
           id="path8952" />
      </g>
      <g
         id="patch_9">
        <path
           d="M 473.236364 384.48  L 473.236364 51.84  "
           style="fill:none;stroke:#000000;stroke-linecap:square;stroke-linejoin:miter;stroke-width:0.8;"
           id="path8955" />
      </g>
      <g
         id="patch_10">
        <path
           d="M 777.6 384.48  L 777.6 51.84  "
           style="fill:none;stroke:#000000;stroke-linecap:square;stroke-linejoin:miter;stroke-width:0.8;"
           id="path8958" />
      </g>
      <g
         id="patch_11">
        <path
           d="M 473.236364 384.48  L 777.6 384.48  "
           style="fill:none;stroke:#000000;stroke-linecap:square;stroke-linejoin:miter;stroke-width:0.8;"
           id="path8961" />
      </g>
      <g
         id="patch_12">
        <path
           d="M 473.236364 51.84  L 777.6 51.84  "
           style="fill:none;stroke:#000000;stroke-linecap:square;stroke-linejoin:miter;stroke-width:0.8;"
           id="path8964" />
      </g>
      <g
         id="text_19">
        <!-- Solid: $T/T_e$ -->
        <g
           transform="translate(526.877922 279.5085)scale(0.16 -0.16)"
           id="g8994">
          <defs
             id="defs8970">
            <path
               d="M 288 1472  L 859 1522  Q 900 1178 1048 958  Q 1197 738 1509 602  Q 1822 466 2213 466  Q 2559 466 2825 569  Q 3091 672 3220 851  Q 3350 1031 3350 1244  Q 3350 1459 3225 1620  Q 3100 1781 2813 1891  Q 2628 1963 1997 2114  Q 1366 2266 1113 2400  Q 784 2572 623 2826  Q 463 3081 463 3397  Q 463 3744 659 4045  Q 856 4347 1234 4503  Q 1613 4659 2075 4659  Q 2584 4659 2973 4495  Q 3363 4331 3572 4012  Q 3781 3694 3797 3291  L 3216 3247  Q 3169 3681 2898 3903  Q 2628 4125 2100 4125  Q 1550 4125 1298 3923  Q 1047 3722 1047 3438  Q 1047 3191 1225 3031  Q 1400 2872 2139 2705  Q 2878 2538 3153 2413  Q 3553 2228 3743 1945  Q 3934 1663 3934 1294  Q 3934 928 3725 604  Q 3516 281 3123 101  Q 2731 -78 2241 -78  Q 1619 -78 1198 103  Q 778 284 539 648  Q 300 1013 288 1472  z "
               id="ArialMT-53"
               transform="scale(0.015625)" />
            <path
               d="M 409 0  L 409 4581  L 972 4581  L 972 0  L 409 0  z "
               id="ArialMT-6c"
               transform="scale(0.015625)" />
            <path
               d="M 578 2678  L 578 3319  L 1219 3319  L 1219 2678  L 578 2678  z M 578 0  L 578 641  L 1219 641  L 1219 0  L 578 0  z "
               id="ArialMT-3a"
               transform="scale(0.015625)" />
          </defs>
          <use
             transform="translate(0 0.09375)"
             xlink:href="#ArialMT-53"
             id="use8972" />
          <use
             transform="translate(66.699219 0.09375)"
             xlink:href="#ArialMT-6f"
             id="use8974" />
          <use
             transform="translate(122.314453 0.09375)"
             xlink:href="#ArialMT-6c"
             id="use8976" />
          <use
             transform="translate(144.53125 0.09375)"
             xlink:href="#ArialMT-69"
             id="use8978" />
          <use
             transform="translate(166.748047 0.09375)"
             xlink:href="#ArialMT-64"
             id="use8980" />
          <use
             transform="translate(222.363281 0.09375)"
             xlink:href="#ArialMT-3a"
             id="use8982" />
          <use
             transform="translate(250.146484 0.09375)"
             xlink:href="#ArialMT-20"
             id="use8984" />
          <use
             transform="translate(277.929688 0.09375)"
             xlink:href="#DejaVuSans-Oblique-54"
             id="use8986" />
          <use
             transform="translate(339.013672 0.09375)"
             xlink:href="#DejaVuSans-2f"
             id="use8988" />
          <use
             transform="translate(372.705078 0.09375)"
             xlink:href="#DejaVuSans-Oblique-54"
             id="use8990" />
          <use
             transform="translate(433.789062 -16.3125)scale(0.7)"
             xlink:href="#DejaVuSans-Oblique-65"
             id="use8992" />
        </g>
      </g>
      <g
         id="text_20">
        <!-- Dashed: $T_0/T_{e}$ -->
        <g
           transform="translate(586.638961 96.5565)scale(0.16 -0.16)"
           id="g9029">
          <defs
             id="defs9001">
            <path
               d="M 494 0  L 494 4581  L 2072 4581  Q 2606 4581 2888 4516  Q 3281 4425 3559 4188  Q 3922 3881 4101 3404  Q 4281 2928 4281 2316  Q 4281 1794 4159 1391  Q 4038 988 3847 723  Q 3656 459 3429 307  Q 3203 156 2883 78  Q 2563 0 2147 0  L 494 0  z M 1100 541  L 2078 541  Q 2531 541 2789 625  Q 3047 709 3200 863  Q 3416 1078 3536 1442  Q 3656 1806 3656 2325  Q 3656 3044 3420 3430  Q 3184 3816 2847 3947  Q 2603 4041 2063 4041  L 1100 4041  L 1100 541  z "
               id="ArialMT-44"
               transform="scale(0.015625)" />
            <path
               d="M 197 991  L 753 1078  Q 800 744 1014 566  Q 1228 388 1613 388  Q 2000 388 2187 545  Q 2375 703 2375 916  Q 2375 1106 2209 1216  Q 2094 1291 1634 1406  Q 1016 1563 777 1677  Q 538 1791 414 1992  Q 291 2194 291 2438  Q 291 2659 392 2848  Q 494 3038 669 3163  Q 800 3259 1026 3326  Q 1253 3394 1513 3394  Q 1903 3394 2198 3281  Q 2494 3169 2634 2976  Q 2775 2784 2828 2463  L 2278 2388  Q 2241 2644 2061 2787  Q 1881 2931 1553 2931  Q 1166 2931 1000 2803  Q 834 2675 834 2503  Q 834 2394 903 2306  Q 972 2216 1119 2156  Q 1203 2125 1616 2013  Q 2213 1853 2448 1751  Q 2684 1650 2818 1456  Q 2953 1263 2953 975  Q 2953 694 2789 445  Q 2625 197 2315 61  Q 2006 -75 1616 -75  Q 969 -75 630 194  Q 291 463 197 991  z "
               id="ArialMT-73"
               transform="scale(0.015625)" />
            <path
               d="M 422 0  L 422 4581  L 984 4581  L 984 2938  Q 1378 3394 1978 3394  Q 2347 3394 2619 3248  Q 2891 3103 3008 2847  Q 3125 2591 3125 2103  L 3125 0  L 2563 0  L 2563 2103  Q 2563 2525 2380 2717  Q 2197 2909 1863 2909  Q 1613 2909 1392 2779  Q 1172 2650 1078 2428  Q 984 2206 984 1816  L 984 0  L 422 0  z "
               id="ArialMT-68"
               transform="scale(0.015625)" />
            <path
               d="M 2694 1069  L 3275 997  Q 3138 488 2766 206  Q 2394 -75 1816 -75  Q 1088 -75 661 373  Q 234 822 234 1631  Q 234 2469 665 2931  Q 1097 3394 1784 3394  Q 2450 3394 2872 2941  Q 3294 2488 3294 1666  Q 3294 1616 3291 1516  L 816 1516  Q 847 969 1125 678  Q 1403 388 1819 388  Q 2128 388 2347 550  Q 2566 713 2694 1069  z M 847 1978  L 2700 1978  Q 2663 2397 2488 2606  Q 2219 2931 1791 2931  Q 1403 2931 1139 2672  Q 875 2413 847 1978  z "
               id="ArialMT-65"
               transform="scale(0.015625)" />
          </defs>
          <use
             transform="translate(0 0.09375)"
             xlink:href="#ArialMT-44"
             id="use9003" />
          <use
             transform="translate(72.216797 0.09375)"
             xlink:href="#ArialMT-61"
             id="use9005" />
          <use
             transform="translate(127.832031 0.09375)"
             xlink:href="#ArialMT-73"
             id="use9007" />
          <use
             transform="translate(177.832031 0.09375)"
             xlink:href="#ArialMT-68"
             id="use9009" />
          <use
             transform="translate(233.447266 0.09375)"
             xlink:href="#ArialMT-65"
             id="use9011" />
          <use
             transform="translate(289.0625 0.09375)"
             xlink:href="#ArialMT-64"
             id="use9013" />
          <use
             transform="translate(344.677734 0.09375)"
             xlink:href="#ArialMT-3a"
             id="use9015" />
          <use
             transform="translate(372.460938 0.09375)"
             xlink:href="#ArialMT-20"
             id="use9017" />
          <use
             transform="translate(400.244141 0.09375)"
             xlink:href="#DejaVuSans-Oblique-54"
             id="use9019" />
          <use
             transform="translate(461.328125 -16.3125)scale(0.7)"
             xlink:href="#DejaVuSans-30"
             id="use9021" />
          <use
             transform="translate(508.598633 0.09375)"
             xlink:href="#DejaVuSans-2f"
             id="use9023" />
          <use
             transform="translate(542.290039 0.09375)"
             xlink:href="#DejaVuSans-Oblique-54"
             id="use9025" />
          <use
             transform="translate(603.374023 -16.3125)scale(0.7)"
             xlink:href="#DejaVuSans-Oblique-65"
             id="use9027" />
        </g>
      </g>
      <g
         id="text_21">
        <g
           id="patch_13">
          <path
             d="M 513.780519 44.532  L 821.080519 44.532  Q 825.280519 44.532 825.280519 40.332  L 825.280519 26.892  Q 825.280519 22.692 821.080519 22.692  L 513.780519 22.692  Q 509.580519 22.692 509.580519 26.892  L 509.580519 40.332  Q 509.580519 44.532 513.780519 44.532  z "
             style="fill:#f5deb3;opacity:0.5;stroke:#000000;stroke-linejoin:miter;"
             id="path9032" />
        </g>
        <!-- $Ma_e= 5$, $\gamma=1.4$, $Pr=0.72$, $\sigma=0.75$, Adiabatic -->
        <g
           transform="translate(513.780519 37.392)scale(0.14 -0.14)"
           id="g9131">
          <defs
             id="defs9049">
            <path
               d="M 1081 4666  L 2028 4666  L 2572 1522  L 4378 4666  L 5350 4666  L 4441 0  L 3828 0  L 4622 4091  L 2791 897  L 2175 897  L 1581 4103  L 788 0  L 172 0  L 1081 4666  z "
               id="DejaVuSans-Oblique-4d"
               transform="scale(0.015625)" />
            <path
               d="M 3438 1997  L 3047 0  L 2472 0  L 2578 531  Q 2325 219 2001 64  Q 1678 -91 1281 -91  Q 834 -91 548 182  Q 263 456 263 884  Q 263 1497 752 1853  Q 1241 2209 2100 2209  L 2900 2209  L 2931 2363  Q 2938 2388 2941 2417  Q 2944 2447 2944 2509  Q 2944 2788 2717 2942  Q 2491 3097 2081 3097  Q 1800 3097 1504 3025  Q 1209 2953 897 2809  L 997 3341  Q 1322 3463 1633 3523  Q 1944 3584 2234 3584  Q 2853 3584 3176 3315  Q 3500 3047 3500 2534  Q 3500 2431 3484 2292  Q 3469 2153 3438 1997  z M 2816 1759  L 2241 1759  Q 1534 1759 1195 1570  Q 856 1381 856 984  Q 856 709 1029 553  Q 1203 397 1509 397  Q 1978 397 2328 733  Q 2678 1069 2791 1631  L 2816 1759  z "
               id="DejaVuSans-Oblique-61"
               transform="scale(0.015625)" />
            <path
               d="M 678 2906  L 4684 2906  L 4684 2381  L 678 2381  L 678 2906  z M 678 1631  L 4684 1631  L 4684 1100  L 678 1100  L 678 1631  z "
               id="DejaVuSans-3d"
               transform="scale(0.015625)" />
            <path
               d="M 691 4666  L 3169 4666  L 3169 4134  L 1269 4134  L 1269 2991  Q 1406 3038 1543 3061  Q 1681 3084 1819 3084  Q 2600 3084 3056 2656  Q 3513 2228 3513 1497  Q 3513 744 3044 326  Q 2575 -91 1722 -91  Q 1428 -91 1123 -41  Q 819 9 494 109  L 494 744  Q 775 591 1075 516  Q 1375 441 1709 441  Q 2250 441 2565 725  Q 2881 1009 2881 1497  Q 2881 1984 2565 2268  Q 2250 2553 1709 2553  Q 1456 2553 1204 2497  Q 953 2441 691 2322  L 691 4666  z "
               id="DejaVuSans-35"
               transform="scale(0.015625)" />
            <path
               d="M 569 0  L 569 641  L 1209 641  L 1209 0  Q 1209 -353 1084 -570  Q 959 -788 688 -906  L 531 -666  Q 709 -588 793 -436  Q 878 -284 888 0  L 569 0  z "
               id="ArialMT-2c"
               transform="scale(0.015625)" />
            <path
               d="M 1491 2950  L 1838 788  L 3456 3500  L 4066 3500  L 1972 0  L 1713 -1331  L 1138 -1331  L 1397 0  L 988 2613  Q 925 3006 628 3006  L 475 3006  L 569 3500  L 788 3500  Q 1403 3500 1491 2950  z "
               id="DejaVuSans-Oblique-3b3"
               transform="scale(0.015625)" />
            <path
               d="M 794 531  L 1825 531  L 1825 4091  L 703 3866  L 703 4441  L 1819 4666  L 2450 4666  L 2450 531  L 3481 531  L 3481 0  L 794 0  L 794 531  z "
               id="DejaVuSans-31"
               transform="scale(0.015625)" />
            <path
               d="M 684 794  L 1344 794  L 1344 0  L 684 0  L 684 794  z "
               id="DejaVuSans-2e"
               transform="scale(0.015625)" />
            <path
               d="M 2419 4116  L 825 1625  L 2419 1625  L 2419 4116  z M 2253 4666  L 3047 4666  L 3047 1625  L 3713 1625  L 3713 1100  L 3047 1100  L 3047 0  L 2419 0  L 2419 1100  L 313 1100  L 313 1709  L 2253 4666  z "
               id="DejaVuSans-34"
               transform="scale(0.015625)" />
            <path
               d="M 1081 4666  L 2541 4666  Q 3178 4666 3512 4369  Q 3847 4072 3847 3500  Q 3847 2731 3353 2303  Q 2859 1875 1966 1875  L 1172 1875  L 806 0  L 172 0  L 1081 4666  z M 1613 4147  L 1275 2394  L 2069 2394  Q 2606 2394 2893 2669  Q 3181 2944 3181 3456  Q 3181 3784 2986 3965  Q 2791 4147 2438 4147  L 1613 4147  z "
               id="DejaVuSans-Oblique-50"
               transform="scale(0.015625)" />
            <path
               d="M 2853 2969  Q 2766 3016 2653 3041  Q 2541 3066 2413 3066  Q 1953 3066 1609 2717  Q 1266 2369 1153 1784  L 800 0  L 225 0  L 909 3500  L 1484 3500  L 1375 2956  Q 1603 3259 1920 3421  Q 2238 3584 2597 3584  Q 2691 3584 2781 3573  Q 2872 3563 2963 3538  L 2853 2969  z "
               id="DejaVuSans-Oblique-72"
               transform="scale(0.015625)" />
            <path
               d="M 525 4666  L 3525 4666  L 3525 4397  L 1831 0  L 1172 0  L 2766 4134  L 525 4134  L 525 4666  z "
               id="DejaVuSans-37"
               transform="scale(0.015625)" />
            <path
               d="M 1228 531  L 3431 531  L 3431 0  L 469 0  L 469 531  Q 828 903 1448 1529  Q 2069 2156 2228 2338  Q 2531 2678 2651 2914  Q 2772 3150 2772 3378  Q 2772 3750 2511 3984  Q 2250 4219 1831 4219  Q 1534 4219 1204 4116  Q 875 4013 500 3803  L 500 4441  Q 881 4594 1212 4672  Q 1544 4750 1819 4750  Q 2544 4750 2975 4387  Q 3406 4025 3406 3419  Q 3406 3131 3298 2873  Q 3191 2616 2906 2266  Q 2828 2175 2409 1742  Q 1991 1309 1228 531  z "
               id="DejaVuSans-32"
               transform="scale(0.015625)" />
            <path
               d="M 2219 3044  Q 1744 3044 1422 2700  Q 1081 2341 969 1747  Q 844 1119 1044 756  Q 1241 397 1706 397  Q 2166 397 2503 759  Q 2844 1122 2966 1747  Q 3075 2319 2881 2700  Q 2700 3044 2219 3044  z M 2309 3503  L 4219 3500  L 4106 2925  L 3463 2925  Q 3706 2438 3575 1747  Q 3406 888 2884 400  Q 2359 -91 1609 -91  Q 856 -91 525 400  Q 194 888 363 1747  Q 528 2609 1050 3097  Q 1484 3503 2309 3503  z "
               id="DejaVuSans-Oblique-3c3"
               transform="scale(0.015625)" />
          </defs>
          <use
             transform="translate(0 0.78125)"
             xlink:href="#DejaVuSans-Oblique-4d"
             id="use9051" />
          <use
             transform="translate(86.279297 0.78125)"
             xlink:href="#DejaVuSans-Oblique-61"
             id="use9053" />
          <use
             transform="translate(147.558594 -15.625)scale(0.7)"
             xlink:href="#DejaVuSans-Oblique-65"
             id="use9055" />
          <use
             transform="translate(212.841797 0.78125)"
             xlink:href="#DejaVuSans-3d"
             id="use9057" />
          <use
             transform="translate(316.113281 0.78125)"
             xlink:href="#DejaVuSans-35"
             id="use9059" />
          <use
             transform="translate(379.736328 0.78125)"
             xlink:href="#ArialMT-2c"
             id="use9061" />
          <use
             transform="translate(407.519531 0.78125)"
             xlink:href="#ArialMT-20"
             id="use9063" />
          <use
             transform="translate(435.302734 0.78125)"
             xlink:href="#DejaVuSans-Oblique-3b3"
             id="use9065" />
          <use
             transform="translate(513.964844 0.78125)"
             xlink:href="#DejaVuSans-3d"
             id="use9067" />
          <use
             transform="translate(617.236328 0.78125)"
             xlink:href="#DejaVuSans-31"
             id="use9069" />
          <use
             transform="translate(680.859375 0.78125)"
             xlink:href="#DejaVuSans-2e"
             id="use9071" />
          <use
             transform="translate(712.646484 0.78125)"
             xlink:href="#DejaVuSans-34"
             id="use9073" />
          <use
             transform="translate(776.269531 0.78125)"
             xlink:href="#ArialMT-2c"
             id="use9075" />
          <use
             transform="translate(804.052734 0.78125)"
             xlink:href="#ArialMT-20"
             id="use9077" />
          <use
             transform="translate(831.835938 0.78125)"
             xlink:href="#DejaVuSans-Oblique-50"
             id="use9079" />
          <use
             transform="translate(892.138672 0.78125)"
             xlink:href="#DejaVuSans-Oblique-72"
             id="use9081" />
          <use
             transform="translate(952.734375 0.78125)"
             xlink:href="#DejaVuSans-3d"
             id="use9083" />
          <use
             transform="translate(1056.005859 0.78125)"
             xlink:href="#DejaVuSans-30"
             id="use9085" />
          <use
             transform="translate(1119.628906 0.78125)"
             xlink:href="#DejaVuSans-2e"
             id="use9087" />
          <use
             transform="translate(1143.666016 0.78125)"
             xlink:href="#DejaVuSans-37"
             id="use9089" />
          <use
             transform="translate(1207.289062 0.78125)"
             xlink:href="#DejaVuSans-32"
             id="use9091" />
          <use
             transform="translate(1270.912109 0.78125)"
             xlink:href="#ArialMT-2c"
             id="use9093" />
          <use
             transform="translate(1298.695312 0.78125)"
             xlink:href="#ArialMT-20"
             id="use9095" />
          <use
             transform="translate(1326.478516 0.78125)"
             xlink:href="#DejaVuSans-Oblique-3c3"
             id="use9097" />
          <use
             transform="translate(1409.339844 0.78125)"
             xlink:href="#DejaVuSans-3d"
             id="use9099" />
          <use
             transform="translate(1512.611328 0.78125)"
             xlink:href="#DejaVuSans-30"
             id="use9101" />
          <use
             transform="translate(1576.234375 0.78125)"
             xlink:href="#DejaVuSans-2e"
             id="use9103" />
          <use
             transform="translate(1600.271484 0.78125)"
             xlink:href="#DejaVuSans-37"
             id="use9105" />
          <use
             transform="translate(1663.894531 0.78125)"
             xlink:href="#DejaVuSans-35"
             id="use9107" />
          <use
             transform="translate(1727.517578 0.78125)"
             xlink:href="#ArialMT-2c"
             id="use9109" />
          <use
             transform="translate(1755.300781 0.78125)"
             xlink:href="#ArialMT-20"
             id="use9111" />
          <use
             transform="translate(1783.083984 0.78125)"
             xlink:href="#ArialMT-41"
             id="use9113" />
          <use
             transform="translate(1849.783203 0.78125)"
             xlink:href="#ArialMT-64"
             id="use9115" />
          <use
             transform="translate(1905.398438 0.78125)"
             xlink:href="#ArialMT-69"
             id="use9117" />
          <use
             transform="translate(1927.615234 0.78125)"
             xlink:href="#ArialMT-61"
             id="use9119" />
          <use
             transform="translate(1983.230469 0.78125)"
             xlink:href="#ArialMT-62"
             id="use9121" />
          <use
             transform="translate(2038.845703 0.78125)"
             xlink:href="#ArialMT-61"
             id="use9123" />
          <use
             transform="translate(2094.460938 0.78125)"
             xlink:href="#ArialMT-74"
             id="use9125" />
          <use
             transform="translate(2122.244141 0.78125)"
             xlink:href="#ArialMT-69"
             id="use9127" />
          <use
             transform="translate(2144.460938 0.78125)"
             xlink:href="#ArialMT-63"
             id="use9129" />
        </g>
      </g>
    </g>
  </g>
  <defs
     id="defs9142">
    <clipPath
       id="p604ae91f24">
      <rect
         height="332.64"
         width="304.363636"
         x="108"
         y="51.84"
         id="rect9136" />
    </clipPath>
    <clipPath
       id="pf42157803a">
      <rect
         height="332.64"
         width="304.363636"
         x="473.236364"
         y="51.84"
         id="rect9139" />
    </clipPath>
  </defs>
</svg>
